<?xml version="1.0" standalone="no"?>
<!DOCTYPE svg PUBLIC "-//W3C//DTD SVG 1.1//EN" "http://www.w3.org/Graphics/SVG/1.1/DTD/svg11.dtd" >
<svg>
<metadata>
Created by FontForge 20120731 at Mon Dec 29 07:16:54 2014
 By Orthosie Webhosting
Copyright (c) 2014 by Zetafonts. All rights reserved.
</metadata>
<defs>
<font id="AmazingGroteskLight" horiz-adv-x="635" >
  <font-face 
    font-family="AmazingGroteskLight"
    font-weight="300"
    font-stretch="normal"
    units-per-em="1000"
    panose-1="2 0 8 3 5 0 0 2 0 4"
    ascent="800"
    descent="-200"
    x-height="551"
    cap-height="710"
    bbox="-49 -280 1216 940"
    underline-thickness="50"
    underline-position="-50"
    unicode-range="U+0020-FB06"
  />
<missing-glyph horiz-adv-x="270" 
 />
    <glyph glyph-name=".notdef" horiz-adv-x="270" 
 />
    <glyph glyph-name=".null" horiz-adv-x="0" 
 />
    <glyph glyph-name="nonmarkingreturn" horiz-adv-x="333" 
 />
    <glyph glyph-name="space" unicode=" " horiz-adv-x="270" 
 />
    <glyph glyph-name="exclam" unicode="!" horiz-adv-x="297" 
d="M123 177v594h40v-559h29v-35h-69zM186 32q0 17 -11.5 28.5t-28.5 11.5t-28.5 -11.5t-11.5 -28.5t11.5 -28.5t28.5 -11.5t28.5 11.5t11.5 28.5z" />
    <glyph glyph-name="quotedbl" unicode="&#x22;" horiz-adv-x="205" 
d="M39 735h45v-175h-25zM122 735h44l-20 -175h-24v175z" />
    <glyph glyph-name="numbersign" unicode="#" horiz-adv-x="761" 
d="M626 710l-65 -211h154v-36h-165l-62 -201h160v-36h-171l-69 -226h-45l68 226h-194l-69 -226h-45l68 226h-141v36h152l60 201h-145v36h156l64 211h49l-65 -211h192l64 211h49zM248 262h194l60 201h-192z" />
    <glyph glyph-name="dollar" unicode="$" horiz-adv-x="628" 
d="M67 22v133h39v-105q22 -6 48.5 -10.5t52.5 -7.5t49 -5t39 -2v328q-122 14 -174 67.5t-52 134.5q0 40 16 70t45.5 50t71.5 31t93 14v76h40v-75q18 0 37 -1t42 -5t51.5 -10.5t65.5 -18.5v-124h-40v95q-42 11 -85 17t-71 7v-291q33 -4 74.5 -13.5t77.5 -32t60.5 -62.5
t24.5 -104q0 -40 -17.5 -73t-48.5 -57.5t-75 -39t-96 -18.5v-97h-40v96q-39 0 -97.5 5.5t-130.5 27.5zM530 179v9q0 39 -18 67.5t-46.5 47t-63 29.5t-67.5 16v-322q36 4 71 16t62.5 31.5t44.5 46t17 59.5zM111 555q0 -69 47.5 -108t136.5 -53v286q-35 -2 -68.5 -9t-59 -21.5
t-41 -37.5t-15.5 -57z" />
    <glyph glyph-name="percent" unicode="%" horiz-adv-x="666" 
d="M577 710l-445 -710h-45l441 710h49zM44 590q0 43 9.5 68.5t26.5 38.5t40 17t50 4q26 0 48.5 -4t39 -17.5t26 -38.5t9.5 -68v-63q0 -43 -10 -68t-26.5 -38.5t-39.5 -17.5t-48 -4q-27 0 -50 4.5t-39.5 18t-26 38t-9.5 65.5v65zM258 597q0 53 -23.5 70t-66.5 17
q-42 0 -65 -17.5t-23 -69.5v-77q0 -50 23 -67.5t66 -17.5q21 0 37.5 3.5t28 13.5t17.5 27t6 43v75zM368 188q0 43 9.5 68.5t26.5 38.5t40 17t50 4q26 0 48.5 -4t39 -17.5t26 -38.5t9.5 -68v-63q0 -43 -10 -68t-26.5 -38.5t-39.5 -17.5t-48 -4q-27 0 -50 4.5t-39.5 18t-26 38
t-9.5 65.5v65zM582 195q0 53 -23.5 70t-66.5 17q-42 0 -65 -17.5t-23 -69.5v-77q0 -50 23 -67.5t66 -17.5q21 0 37.5 3.5t28 13.5t17.5 27t6 43v75z" />
    <glyph glyph-name="ampersand" unicode="&#x26;" horiz-adv-x="799" 
d="M368 354h-63q-41 0 -79.5 -5t-68 -21.5t-47.5 -47.5t-18 -83q0 -44 25.5 -75.5t63 -52.5t81.5 -31t82 -10q71 0 128 14.5t97 28.5l12 4q-2 17 -3.5 38t-1.5 48v90h-103l12 40h141q55 0 88.5 -6t52.5 -14q22 -9 31 -19l-8 -23q-8 3 -18 6t-21 5q-19 4 -45.5 7.5t-58.5 3.5
h-26v-111q0 -65 11 -104q2 -11 4.5 -21t6.5 -18l-28 -8q-3 2 -8 9q-4 5 -8.5 13.5t-8.5 22.5q-42 -14 -103.5 -30t-142.5 -16q-43 0 -94 11t-95 36t-73.5 65t-29.5 98q0 84 33 125.5t95 57.5q-43 14 -70 50.5t-27 104.5q0 61 26 96.5t64 53.5t81 23t76 5q21 0 41.5 -2
t44.5 -6.5t53.5 -12t68.5 -19.5v-142h-38v110q-21 7 -44.5 12.5t-46 9t-43 5t-35.5 1.5q-41 0 -78.5 -3t-66.5 -16.5t-46 -40t-17 -73.5q0 -45 18 -73t45.5 -43.5t61 -21t63.5 -5.5h66z" />
    <glyph glyph-name="quotesingle" unicode="'" horiz-adv-x="152" 
d="M46 735h59l-16 -175h-30z" />
    <glyph glyph-name="parenleft" unicode="(" horiz-adv-x="242" 
d="M105 358q0 -208 38 -341t104 -181l-20 -18q-74 52 -118.5 185.5t-44.5 354.5q0 112 10 199t30 151.5t49 108t67 69.5l19 -17q-27 -24 -51.5 -66.5t-43 -105.5t-29 -147t-10.5 -192z" />
    <glyph glyph-name="parenright" unicode=")" horiz-adv-x="225" 
d="M176 358q0 -221 -44.5 -354.5t-118.5 -185.5l-20 18q66 48 104 181t38 341q0 108 -10.5 192t-29 147t-43 105.5t-51.5 66.5l19 17q38 -26 67 -69.5t49 -108t30 -151.5t10 -199z" />
    <glyph glyph-name="asterisk" unicode="*" horiz-adv-x="444" 
d="M355 386l18 -31l-125 -72l125 -72l-18 -31l-125 72v-144h-36v144l-125 -72l-18 31l125 72l-125 72l18 31l125 -72v144h36v-144z" />
    <glyph glyph-name="plus" unicode="+" horiz-adv-x="434" 
d="M193 273h-135v35h135v137h36v-137h135v-35h-135v-137h-36v137z" />
    <glyph glyph-name="comma" unicode="," horiz-adv-x="170" 
d="M39 32q0 17 11.5 28.5t28.5 11.5q19 0 31 -15q10 -11 10 -32q0 -20 -3 -39.5t-11.5 -38t-24.5 -35.5t-42 -31l-13 17q18 15 28.5 27.5t15.5 23.5t6.5 21.5t1.5 21.5q-17 1 -28 12t-11 28z" />
    <glyph glyph-name="hyphen" unicode="-" horiz-adv-x="405" 
d="M340 308v-40h-288v40h288z" />
    <glyph glyph-name="period" unicode="." horiz-adv-x="170" 
d="M47 32q0 17 11.5 28.5t28.5 11.5t28.5 -11.5t11.5 -28.5t-11.5 -28.5t-28.5 -11.5t-28.5 11.5t-11.5 28.5z" />
    <glyph glyph-name="slash" unicode="/" horiz-adv-x="354" 
d="M349 771l-275 -900h-40l271 900h44z" />
    <glyph glyph-name="zero" unicode="0" horiz-adv-x="640" 
d="M59 397q0 100 18.5 163.5t52.5 99t82.5 48.5t108.5 13q58 0 106 -13t82 -49t52.5 -99t18.5 -162v-87q0 -99 -19 -162t-53.5 -98.5t-82 -48.5t-105.5 -13q-60 0 -108.5 13t-82 48t-52 96.5t-18.5 159.5v91zM539 413q0 88 -18.5 141t-49.5 81.5t-70 38t-80 9.5
q-44 0 -84 -9.5t-70.5 -38t-48.5 -81.5t-18 -140v-119q0 -89 19 -142t50.5 -81t71 -36t80.5 -8q37 0 75.5 8t70 35.5t52 80t20.5 140.5v121z" />
    <glyph glyph-name="one" unicode="1" horiz-adv-x="341" 
d="M281 40v-40h-223v40h91v630h-103v40h143v-670h92z" />
    <glyph glyph-name="two" unicode="2" horiz-adv-x="621" 
d="M77 662q146 59 229 59q23 0 50.5 -2t55 -8t53 -17.5t45.5 -31.5t32 -49t12 -70q0 -36 -12 -63.5t-35.5 -55t-58.5 -59t-82 -74.5l-270 -251h456v116h35v-156h-545v40l330 308q37 34 63.5 59t44 46t26 41.5t8.5 46.5q0 46 -17 72.5t-45.5 40t-65 17t-76.5 3.5
q-17 0 -39 -2t-47.5 -7t-52.5 -13t-54 -20v-112h-40v142z" />
    <glyph glyph-name="three" unicode="3" horiz-adv-x="598" 
d="M74 674q39 12 68 19.5t52.5 12t43 6.5t39.5 2h7q33 0 76.5 -4.5t81.5 -22t64.5 -52.5t26.5 -95q0 -71 -28 -108t-72 -51q62 -16 95.5 -57.5t33.5 -125.5q0 -58 -26 -98t-66 -64.5t-88 -35.5t-92 -11q-86 0 -146.5 16.5t-98.5 30.5l17 39q38 -14 94.5 -30.5t133.5 -16.5
q36 0 76.5 10t75 31t57.5 52.5t23 75.5q0 52 -18 83.5t-47.5 48.5t-68 22.5t-79.5 5.5h-63l-9 37h66q38 0 72.5 5.5t60.5 21t41 43.5t15 73q0 46 -17 73t-45.5 40.5t-65 17.5t-76.5 4h-5q-15 0 -35 -2t-42.5 -6t-46 -9.5t-45.5 -12.5v-110h-40v142z" />
    <glyph glyph-name="four" unicode="4" horiz-adv-x="642" 
d="M475 246q0 32 -3.5 58.5t-7.5 45.5q-2 11 -5 21t-6 18l23 8q10 -9 19 -31q8 -19 14 -52.5t6 -88.5v-77h119v-40h-119v-108h-40v108h-416v40l354 562h50l-354 -562h366v98z" />
    <glyph glyph-name="five" unicode="5" horiz-adv-x="599" 
d="M502 670h-398v-258q16 6 32.5 11.5t37.5 9.5t48.5 6.5t65.5 2.5q127 0 199.5 -57t72.5 -182q0 -61 -26 -102t-66 -66t-86.5 -35.5t-88.5 -10.5q-92 -1 -156 16t-105 37l19 39q40 -17 100 -34.5t142 -17.5q37 1 77 12t73.5 32t55 53t21.5 76q0 52 -17.5 90t-48 62.5
t-73 36t-93.5 11.5q-40 0 -67 -3t-46.5 -7.5t-35.5 -10.5t-34 -13h-44v342h476v-143h-35v103z" />
    <glyph glyph-name="six" unicode="6" horiz-adv-x="631" 
d="M536 678v-123h-40v95q-39 16 -89 22t-90 6q-32 0 -71.5 -6.5t-74 -26.5t-58 -58t-23.5 -102v-89q18 8 43 16.5t55.5 16t65 12t72.5 4.5q46 0 92 -7.5t82.5 -32t59 -69.5t22.5 -120q0 -72 -20.5 -117t-57 -70t-86 -34t-106.5 -9q-60 0 -108.5 8t-83 37.5t-53 86
t-18.5 154.5v196q0 77 24 125.5t62 76.5t85.5 38t95.5 10q30 0 55.5 -2t51 -6.5t52.5 -12t61 -19.5zM540 216q0 64 -21 102t-53.5 57t-70.5 24.5t-72 5.5q-32 0 -67 -4.5t-67 -10.5t-58 -13t-41 -13v-103q0 -87 18.5 -134.5t49 -70t71.5 -27t86 -4.5q38 0 78 4t72.5 22.5
t53.5 57t21 107.5z" />
    <glyph glyph-name="seven" unicode="7" horiz-adv-x="598" 
d="M72 554h-35v156h530v-40l-335 -670h-45l335 670h-450v-116z" />
    <glyph glyph-name="eight" unicode="8" horiz-adv-x="640" 
d="M457 396q38 -13 63.5 -36t41.5 -51t22.5 -57.5t6.5 -54.5q0 -59 -20 -99.5t-56.5 -65.5t-86.5 -36t-110 -11q-57 0 -106.5 11t-86.5 35.5t-58.5 65t-21.5 100.5q0 88 34 136t100 63q-21 7 -39.5 19t-32.5 30.5t-22.5 44t-8.5 59.5q0 55 25 87.5t62 49.5t79 22t76 5
q35 0 77.5 -5t79 -22t61.5 -49.5t25 -88.5q0 -66 -31 -102t-73 -50zM316 374q-54 0 -97 -9.5t-73 -30.5t-45.5 -55t-15.5 -82q0 -50 19 -82.5t50.5 -51.5t73.5 -27t87 -8q49 0 92 8t75 27t50.5 51.5t18.5 82.5q0 49 -17.5 83t-48.5 55t-74 30t-95 9zM318 674
q-32 0 -67.5 -2.5t-65.5 -15t-50 -37.5t-20 -70q0 -43 16 -69.5t44 -41t64.5 -19.5t77.5 -5q40 0 77 5t65.5 20t45.5 41.5t17 69.5q0 45 -20 70t-50.5 37t-66.5 14.5t-67 2.5z" />
    <glyph glyph-name="nine" unicode="9" horiz-adv-x="637" 
d="M318 716q61 0 110 -8t82.5 -37t51.5 -86t18 -154v-199q0 -77 -23.5 -125.5t-61.5 -76t-85.5 -37.5t-95.5 -10q-42 0 -100 8.5t-136 43.5l19 36q24 -14 54.5 -23t60.5 -14.5t56.5 -8t43.5 -2.5q32 0 71.5 6t74.5 26.5t58.5 58.5t23.5 102v95l-6 -3q-14 -6 -30.5 -14.5
t-39 -16.5t-51 -13.5t-66.5 -5.5h-58q-47 0 -90 8.5t-76 34t-53 72t-20 121.5q0 68 22.5 111.5t60 68t86 33.5t99.5 9zM90 495q0 -65 18.5 -103.5t47.5 -59.5t64.5 -27.5t69.5 -6.5h63q62 0 105.5 15t72.5 26l9 3v95q0 84 -16.5 132t-46.5 72t-71 30t-89 6q-40 0 -80.5 -5
t-73 -24t-53 -55t-20.5 -98z" />
    <glyph glyph-name="colon" unicode=":" horiz-adv-x="170" 
d="M42 32q0 17 11.5 28.5t28.5 11.5t28.5 -11.5t11.5 -28.5t-11.5 -28.5t-28.5 -11.5t-28.5 11.5t-11.5 28.5zM42 450q0 17 11.5 28.5t28.5 11.5t28.5 -11.5t11.5 -28.5t-11.5 -28.5t-28.5 -11.5t-28.5 11.5t-11.5 28.5z" />
    <glyph glyph-name="semicolon" unicode=";" horiz-adv-x="170" 
d="M39 32q0 17 11.5 28.5t28.5 11.5q19 0 31 -15q10 -11 10 -32q0 -20 -3 -39.5t-11.5 -38t-24.5 -35.5t-42 -31l-13 17q18 15 28.5 27.5t15.5 23.5t6.5 21.5t1.5 21.5q-17 1 -28 12t-11 28zM40 450q0 17 11.5 28.5t28.5 11.5t28.5 -11.5t11.5 -28.5t-11.5 -28.5
t-28.5 -11.5t-28.5 11.5t-11.5 28.5z" />
    <glyph glyph-name="less" unicode="&#x3c;" horiz-adv-x="488" 
d="M421 146l-359 128v40l358 114v-43l-297 -92l298 -103v-44z" />
    <glyph glyph-name="equal" unicode="=" horiz-adv-x="510" 
d="M427 364v-36h-358v36h358zM427 252v-36h-358v36h358z" />
    <glyph glyph-name="greater" unicode="&#x3e;" horiz-adv-x="482" 
d="M62 190l298 103l-297 92v43l358 -114v-40l-359 -128v44z" />
    <glyph glyph-name="question" unicode="?" horiz-adv-x="578" 
d="M59 672q75 30 126.5 41.5t92.5 11.5q34 0 77.5 -4t81 -21.5t63.5 -52t26 -94.5q0 -38 -17 -69.5t-42.5 -58t-55 -48.5t-55 -42t-42.5 -38t-17 -37v-84h-40v87q0 27 17 49.5t42.5 42.5t55 40t55 43t42.5 50.5t17 62.5q0 46 -17 72.5t-45.5 40t-65 17t-76.5 3.5
q-32 0 -80.5 -9.5t-102.5 -32.5v-112h-40v142zM320 32q0 17 -11.5 28.5t-28.5 11.5t-28.5 -11.5t-11.5 -28.5t11.5 -28.5t28.5 -11.5t28.5 11.5t11.5 28.5z" />
    <glyph glyph-name="at" unicode="@" horiz-adv-x="815" 
d="M292 401v64q16 3 35 5.5t38.5 5t37 3.5t29.5 1q46 0 71.5 -13.5t38 -36t15 -51t2.5 -59.5v-161q6 -24 22.5 -37t48.5 -13q24 0 44.5 8.5t35.5 28.5t24 52.5t9 80.5q0 69 -24 132.5t-67 112t-102.5 77t-130.5 28.5t-131 -29t-104 -77.5t-68.5 -111.5t-24.5 -130
q0 -69 24.5 -131t68.5 -109t104 -75t131 -28q32 0 63.5 11.5t58.5 21.5l43 -29q-38 -18 -80.5 -31t-84.5 -13q-77 0 -144.5 30.5t-117.5 83t-79 122t-29 148.5t29 149t79 123t117.5 84t144.5 31q76 0 142.5 -29t116 -81t77.5 -122.5t28 -154.5q0 -73 -17 -115.5t-41 -64
t-51 -27.5t-46 -6q-30 0 -49.5 6t-31.5 15t-18 20t-9 21h-1q-16 -23 -43 -40.5t-75 -17.5q-40 0 -66 9t-41 25t-21 37.5t-6 46.5v20q0 24 7.5 44.5t26 35.5t50 23.5t79.5 8.5h89q0 30 -3.5 52t-12.5 37t-25.5 22.5t-42.5 7.5t-56.5 -3t-48.5 -5v-33h-38zM307 190
q0 -41 23 -58t73 -17q20 0 39.5 3.5t36 14.5t27.5 33t13 58v58h-91q-68 0 -94.5 -19t-26.5 -53v-20z" />
    <glyph glyph-name="A" unicode="A" horiz-adv-x="740" 
d="M228 710h181v-9l223 -661h90v-40h-123l-74 222h-312l-73 -222h-123v40h90l212 630h-91v40zM226 263h286l-134 407h-17z" />
    <glyph glyph-name="B" unicode="B" horiz-adv-x="686" 
d="M57 40h93v630h-92v40h291q33 0 74 -4t77 -21.5t60.5 -52t24.5 -94.5q0 -68 -29.5 -105t-77.5 -51q38 -8 67.5 -22t49.5 -36t30 -53.5t10 -74.5q0 -58 -18 -95.5t-48 -60t-69 -31.5t-81 -9h-362v40zM414 40q37 0 70 8t57.5 26t39 47.5t14.5 73.5q0 52 -18 83.5t-47.5 49
t-68 23t-79.5 5.5h-192v-316h224zM190 394h150q41 0 78 4.5t65.5 19.5t45 43.5t16.5 75.5t-17.5 73.5t-46 40t-66.5 16.5t-78 3h-147v-276z" />
    <glyph glyph-name="C" unicode="C" 
d="M559 683v-139h-40v110q-22 7 -46 12.5t-47.5 9t-44 5t-35.5 1.5q-45 0 -89 -7.5t-79 -35t-56.5 -82t-21.5 -148.5v-108q0 -84 18 -137t49.5 -83t74 -41.5t92.5 -11.5q40 0 75.5 6t65.5 14.5t54.5 17.5t43.5 16l16 -38q-20 -7 -45 -16.5t-56.5 -18t-69.5 -14.5t-84 -6
q-57 0 -107 12.5t-87.5 47t-59 95.5t-21.5 157v95q0 91 17.5 153t53 100.5t89.5 55.5t127 17q33 0 84 -7.5t129 -31.5z" />
    <glyph glyph-name="D" unicode="D" horiz-adv-x="710" 
d="M59 670v40h296q72 0 127 -11t92.5 -44t57 -95t19.5 -164v-95q0 -96 -23.5 -155.5t-63.5 -91.5t-93.5 -43t-113.5 -11h-299v40h92v630h-91zM190 670v-630h167q49 0 95 10t81 38.5t56.5 80t21.5 135.5v112q0 94 -24.5 145.5t-61.5 75.5t-81 28.5t-83 4.5h-171z" />
    <glyph glyph-name="E" unicode="E" 
d="M566 710v-143h-40v103h-336v-286h272v-40h-272v-304h356v103h40v-143h-527v40h91v630h-91v40h507z" />
    <glyph glyph-name="F" unicode="F" horiz-adv-x="576" 
d="M59 670v40h498v-143h-40v103h-326v-303h262v-40h-262v-287h92v-40h-224v40h92v630h-92z" />
    <glyph glyph-name="G" unicode="G" horiz-adv-x="629" 
d="M557 683v-139h-38v110q-22 7 -46 12.5t-47 9.5t-43.5 6t-35.5 2q-45 0 -89 -7.5t-79 -35.5t-57 -83t-22 -149v-108q0 -84 18 -137t49.5 -83t74 -41.5t92.5 -11.5q67 0 119 14.5t90 28.5q-6 34 -6 88v90h-103v35h143v-146q0 -65 11 -104q2 -11 4.5 -21t6.5 -18l-23 -8
q-3 2 -8 9q-4 5 -8.5 13.5t-8.5 22.5q-37 -14 -89.5 -28t-127.5 -15q-57 0 -107.5 12.5t-87.5 47t-58.5 95.5t-21.5 157v95q0 91 17.5 153t53 100.5t89.5 55.5t127 17q33 0 83 -7.5t128 -31.5z" />
    <glyph glyph-name="H" unicode="H" horiz-adv-x="799" 
d="M514 670v40h224v-40h-92v-630h92v-40h-224v40h92v306h-416v-306h92v-40h-224v40h92v630h-92v40h224v-40h-92v-285h416v285h-92z" />
    <glyph glyph-name="I" unicode="I" horiz-adv-x="279" 
d="M120 40v630h-92v40h224v-40h-92v-630h92v-40h-224v40h92z" />
    <glyph glyph-name="J" unicode="J" horiz-adv-x="454" 
d="M48 52q23 -14 49.5 -21t50.5 -7q31 0 63.5 7t58.5 28t42.5 59.5t16.5 102.5v449h-103v40h143v-472q0 -77 -17 -125.5t-46.5 -76t-70 -37.5t-88.5 -10q-31 0 -60.5 9t-54.5 23z" />
    <glyph glyph-name="K" unicode="K" horiz-adv-x="754" 
d="M701 710v-40h-92l-278 -350l235 -227q23 -23 44.5 -38.5t38.5 -25.5q10 -5 19 -10t17 -9l-11 -23q-14 -1 -36 8q-18 8 -46.5 27t-67.5 57l-332 321v-255q0 -57 -6 -89.5t-14 -51.5q-9 -22 -19 -31l-23 8q3 8 6 18t5 21q4 19 7.5 45t3.5 59v546h-103v40h143v-254l112 -109
l289 363h108z" />
    <glyph glyph-name="L" unicode="L" horiz-adv-x="606" 
d="M576 143v-143h-518v40h92v630h-92v40h224v-40h-92v-630h346v103h40z" />
    <glyph glyph-name="M" unicode="M" horiz-adv-x="947" 
d="M903 40v-40h-226v40h93l-19 600l-268 -541h-22l-259 543l-20 -602h92v-40h-225v40h92l21 630h-92v40h147l255 -549l265 549h146v-40h-92l20 -630h92z" />
    <glyph glyph-name="N" unicode="N" horiz-adv-x="835" 
d="M565 671v39h224v-39h-92v-631h92v-40h-144l-455 652v-612h92v-40h-234v40h102v631h-92v39h143l456 -653v614h-92z" />
    <glyph glyph-name="O" unicode="O" horiz-adv-x="661" 
d="M601 311q0 -99 -22 -162t-59 -98.5t-86 -48.5t-104 -13t-104 13t-86 48.5t-59 98.5t-22 162v88q0 99 22 162t59 98.5t86 48.5t104 13t104 -13t86 -48.5t59 -98t22 -162.5v-88zM100 297q0 -86 19.5 -139t51.5 -82t73.5 -38.5t85.5 -9.5t85.5 9.5t73.5 38.5t51.5 82
t19.5 139v102q0 92 -19 147.5t-50.5 85.5t-73 40t-87.5 10t-87.5 -10t-73 -40t-50.5 -85.5t-19 -147.5v-102z" />
    <glyph glyph-name="P" unicode="P" horiz-adv-x="640" 
d="M282 0h-225v40h93v630h-92v40h265q75 0 127 -12.5t84 -39.5t46 -69t14 -102t-15.5 -99.5t-48 -62.5t-84 -32t-123.5 -9h-133v-244h92v-40zM190 324h133q51 0 93.5 4.5t72.5 21t47 48.5t17 88q0 61 -17 97.5t-47.5 56t-72.5 25t-93 5.5h-133v-346z" />
    <glyph glyph-name="Q" unicode="Q" horiz-adv-x="661" 
d="M601 311q0 -94 -19.5 -155t-53.5 -97t-78.5 -51.5t-95.5 -17.5v-136h-46v136q-51 2 -96.5 17t-79.5 51t-53.5 97t-19.5 156v88q0 99 22 162t59 98.5t86 48.5t104 13t104 -13t86 -48.5t59 -98t22 -162.5v-88zM100 297q0 -86 19.5 -139t51.5 -82t73.5 -38.5t85.5 -9.5
t85.5 9.5t73.5 38.5t51.5 82t19.5 139v102q0 92 -19 147.5t-50.5 85.5t-73 40t-87.5 10t-87.5 -10t-73 -40t-50.5 -85.5t-19 -147.5v-102z" />
    <glyph glyph-name="R" unicode="R" horiz-adv-x="676" 
d="M282 0h-224v40h92v630h-92v40h254q72 0 127.5 -9t93.5 -33.5t57.5 -67.5t19.5 -110q0 -93 -46 -139t-134 -58l149 -194q20 -26 38.5 -44.5t33.5 -30.5l33 -24l-16 -22q-16 2 -34 13q-17 11 -42.5 33t-58.5 67l-152 197q-11 -2 -20.5 -2h-20.5h-150v-246h92v-40zM190 326
h128q51 0 95.5 4.5t78.5 21t54.5 49t23.5 89.5q0 62 -20.5 98t-55 54t-80 23t-96.5 5h-128v-344z" />
    <glyph glyph-name="S" unicode="S" horiz-adv-x="624" 
d="M72 22v133h39v-100q24 -6 52.5 -11t56 -8t51 -5t37.5 -2q39 0 79.5 9.5t73.5 28t54 46.5t21 65q0 45 -17 75t-46.5 49.5t-68.5 31.5t-84 20q-128 23 -187 73t-59 133q0 44 19 75t53.5 50.5t83.5 28.5t108 9q19 0 38 -1.5t42 -5t51.5 -11t66.5 -19.5v-124h-40v95
q-42 12 -86 19t-72 7q-40 0 -79.5 -4.5t-71 -18t-51.5 -37.5t-20 -63q0 -36 14 -62.5t40 -45.5t63.5 -32.5t85.5 -23.5q21 -5 48.5 -9.5t56.5 -13.5t56.5 -23t49 -36.5t34.5 -55.5t13 -80q0 -43 -20 -77.5t-55.5 -59t-85 -37.5t-108.5 -13q-38 0 -99.5 4t-136.5 27z" />
    <glyph glyph-name="T" unicode="T" horiz-adv-x="698" 
d="M75 534h-35v176h619v-176h-35v136h-257v-631h102v-39h-244v39h102v631h-252v-136z" />
    <glyph glyph-name="U" unicode="U" horiz-adv-x="778" 
d="M159 297q0 -86 19.5 -139t51.5 -81.5t73 -38t85 -9.5t85.5 9.5t73.5 38t51.5 81.5t19.5 139v373h-89v40h219v-40h-89v-359q0 -99 -22 -162t-59 -98.5t-86 -48.5t-104 -13t-104 13t-86 48.5t-58.5 98.5t-21.5 162v359h-89v40h219v-40h-89v-373z" />
    <glyph glyph-name="V" unicode="V" horiz-adv-x="721" 
d="M575 710h123v-40h-90l-226 -670h-40l-226 670h-90v40h123l213 -647z" />
    <glyph glyph-name="W" unicode="W" horiz-adv-x="1056" 
d="M922 710h123v-40h-90l-238 -670h-40l-151 474l-167 -474h-40l-214 670h-90v40h123l202 -649l165 479l-42 130h-90v40h123l202 -649z" />
    <glyph glyph-name="X" unicode="X" horiz-adv-x="730" 
d="M682 39v-39h-81l-247 325l-246 -325h-77v39h56l243 317l-242 315h-57v39h79l244 -323l245 323h83v-39h-63l-242 -315l243 -317h62z" />
    <glyph glyph-name="Y" unicode="Y" horiz-adv-x="672" 
d="M559 710h93v-40h-70l-237 -340v-290h92v-40h-224v40h92v290l-215 340h-70v40h93l212 -340z" />
    <glyph glyph-name="Z" unicode="Z" horiz-adv-x="634" 
d="M569 156h35v-156h-575v40l515 631h-470v-117h-35v156h556v-38l-516 -632h490v116z" />
    <glyph glyph-name="bracketleft" unicode="[" horiz-adv-x="236" 
d="M93 903h143v-35h-103v-1031h103v-35h-143v1101z" />
    <glyph glyph-name="backslash" unicode="\" horiz-adv-x="289" 
d="M53 710l225 -710h-42l-229 710h46z" />
    <glyph glyph-name="bracketright" unicode="]" horiz-adv-x="234" 
d="M143 -198h-143v35h103v1031h-103v35h143v-1101z" />
    <glyph glyph-name="asciicircum" unicode="^" horiz-adv-x="389" 
d="M348 552h-58l-95 140l-96 -140h-58l126 169h53z" />
    <glyph glyph-name="underscore" unicode="_" horiz-adv-x="593" 
d="M501 -72v-36h-408v36h408z" />
    <glyph glyph-name="grave" unicode="`" horiz-adv-x="155" 
d="M71 712l49 -116h-41l-49 116h41z" />
    <glyph glyph-name="a" unicode="a" horiz-adv-x="544" 
d="M90 459v72q20 4 45.5 8t51.5 7.5t50 5.5t42 2q61 0 96 -18.5t52 -49.5t21 -71t4 -82v-242q0 -39 4.5 -49t13.5 -10t17.5 1.5t30.5 9.5l11 -29q-14 -5 -22.5 -8.5t-14 -5t-11 -2t-13.5 -0.5q-20 0 -30.5 4.5t-16 14t-7 23.5t-2.5 32h-5q-2 -4 -5 -7t-5 -6
q-11 -17 -23 -29.5t-30 -20.5t-44 -12.5t-65 -4.5q-54 0 -89.5 12.5t-57 34t-30 50t-8.5 61.5v29q0 31 11 59t37 48t69.5 32t108.5 12h136q0 47 -4.5 82t-18.5 57.5t-39 33.5t-66 11q-42 0 -80.5 -6t-73.5 -11v-38h-40zM90 149q0 -63 36 -90t111 -27q31 0 62.5 3t56.5 19
t40.5 49.5t15.5 93.5v93h-139q-102 0 -142.5 -29.5t-40.5 -83.5v-28z" />
    <glyph glyph-name="b" unicode="b" horiz-adv-x="625" 
d="M160 771v-269q10 9 23 19t32 18.5t46.5 13.5t68.5 5q48 0 89.5 -11.5t72.5 -41t49 -79.5t18 -127v-66q0 -75 -18 -122.5t-49 -74.5t-72.5 -37t-88.5 -10q-45 0 -74.5 5t-49 11.5t-32.5 14.5t-26 14q-8 -35 -18 -48q-2 -4 -5 -7l-5 -5l-23 8q3 8 6 18t5 21q4 19 7.5 45
t3.5 59v611h-103v35h143zM155 64q14 -6 28.5 -13t34.5 -12.5t47 -9.5t65 -4q34 0 68 7.5t61 29.5t43.5 61.5t16.5 103.5v85q0 64 -17.5 104.5t-45 64t-61 32.5t-65.5 9q-54 0 -99 -15.5t-71 -36.5v-324q0 -26 -1.5 -45.5t-3.5 -36.5z" />
    <glyph glyph-name="c" unicode="c" horiz-adv-x="539" 
d="M304 522q-32 0 -65.5 -7.5t-61.5 -29t-45.5 -60.5t-17.5 -103v-95q0 -65 16.5 -104.5t42.5 -61.5t59 -29t65 -7q63 0 104.5 10.5t71.5 21.5l15 -37q-29 -11 -74.5 -21t-117.5 -10q-47 0 -87.5 10t-70.5 37t-47 74.5t-17 122.5v76q0 77 18 125.5t49.5 76t73 37.5t89.5 10
q15 0 30 -0.5t33 -3t40.5 -7.5t52.5 -14l-1 -3v-110h-35v84q-32 10 -65.5 14t-54.5 4z" />
    <glyph glyph-name="d" unicode="d" horiz-adv-x="630" 
d="M369 771h143v-693q0 -17 3 -26.5t7 -14t9 -5.5t9 -1q9 0 23 1.5t36 9.5l12 -30q-29 -10 -46 -14.5t-34 -4.5q-37 0 -52 39q-12 -6 -25 -13.5t-32.5 -14t-48 -11t-71.5 -4.5q-47 0 -88.5 10t-72.5 37t-49 74.5t-18 122.5v66q0 77 18 127t49 79.5t72.5 41t89.5 11.5
q40 0 67.5 -5t46.5 -13.5t31.5 -18t23.5 -18.5v231h-103v37zM472 61v409q-26 22 -71.5 37t-97.5 15q-32 0 -65.5 -9t-61 -32.5t-45 -64t-17.5 -104.5v-85q0 -64 16.5 -103.5t43.5 -61.5t60.5 -29.5t68.5 -7.5q36 0 62 3.5t45.5 9t34 11.5t27.5 12z" />
    <glyph glyph-name="e" unicode="e" horiz-adv-x="572" 
d="M66 309q0 77 18 125.5t49.5 76t73 37.5t89.5 10q46 0 86 -11.5t69 -37.5t45.5 -67.5t16.5 -100.5q0 -18 -1 -38.5t-3 -30.5h-403v-45q0 -65 16.5 -103.5t42.5 -59t59 -27t65 -6.5q63 0 104.5 7.5t71.5 18.5l15 -37q-29 -11 -74.5 -21t-117.5 -10q-47 0 -87.5 10t-70.5 37
t-47 74.5t-17 122.5v76zM106 312h367v40q0 45 -16 76.5t-41.5 51.5t-57 29t-62.5 9q-32 0 -65.5 -5.5t-61.5 -26t-45.5 -61.5t-17.5 -113z" />
    <glyph glyph-name="f" unicode="f" horiz-adv-x="348" 
d="M153 490h131v-40h-131v-410h91v-40h-222v40h91v410h-53v40h53q0 73 17 118t47 70t70.5 33.5t87.5 8.5v-37q-34 0 -67 -4.5t-58.5 -23t-41 -57.5t-15.5 -108z" />
    <glyph glyph-name="g" unicode="g" horiz-adv-x="601" 
d="M103 -100q13 -26 31.5 -41t39.5 -23t44 -10t45 -2q31 0 63.5 6t58.5 26t42.5 58t16.5 102v10q-11 -6 -24 -12.5t-32 -12t-45.5 -9t-64.5 -3.5q-47 0 -88.5 10t-72.5 37t-49 74.5t-18 122.5v66q0 77 18 127t49 79.5t72.5 41t89.5 11.5q40 0 67.5 -5t46.5 -13t31.5 -18
t22.5 -19q6 26 21 38.5t35 12.5q17 0 34 -4.5t46 -14.5l-13 -30q-22 8 -35.5 10t-22.5 2q-8 0 -18 -11t-10 -46v-427q0 -77 -17 -125.5t-46.5 -76t-70 -37.5t-88.5 -10q-30 0 -58 4t-52.5 14t-44.5 27.5t-35 43.5zM444 469q-27 22 -70.5 35.5t-94.5 13.5q-32 0 -65.5 -8.5
t-61 -31t-45 -62.5t-17.5 -104v-85q0 -64 17 -102.5t44.5 -59.5t61 -27.5t66.5 -6.5q34 0 59.5 2.5t44.5 6t33.5 9t27.5 11.5v409z" />
    <glyph glyph-name="h" unicode="h" horiz-adv-x="655" 
d="M613 0l-24.5 -3.5t-20.5 -1.5q-26 0 -47 22.5t-21 64.5v239q0 65 -13 104t-35 60t-51 27.5t-60 6.5t-63.5 -2t-59.5 -16t-45 -45.5t-19 -91.5v-364h-40v730h-103v40h143v-290q29 44 76.5 61t105.5 17q46 0 83.5 -10t64.5 -37t41.5 -75.5t14.5 -125.5v-228q0 -17 4 -26.5
t10 -14t12 -5.5t11 -1h12.5t18.5 2z" />
    <glyph glyph-name="i" unicode="i" horiz-adv-x="318" 
d="M117 695q0 17 11.5 28.5t28.5 11.5t28.5 -11.5t11.5 -28.5t-11.5 -28.5t-28.5 -11.5t-28.5 11.5t-11.5 28.5zM282 40v-40h-223v40h91v471h-103v40h143v-511h92z" />
    <glyph glyph-name="j" unicode="j" horiz-adv-x="273" 
d="M165 551v-625q0 -57 -6 -89.5t-14 -51.5q-9 -22 -19 -31l-23 8q3 8 6 18t5 21q4 19 7.5 45t3.5 59v606h-103v40h143zM102 695q0 17 11.5 28.5t28.5 11.5t28.5 -11.5t11.5 -28.5t-11.5 -28.5t-28.5 -11.5t-28.5 11.5t-11.5 28.5z" />
    <glyph glyph-name="k" unicode="k" horiz-adv-x="645" 
d="M558 551v-40h-92l-186 -234l191 -184q23 -23 44.5 -38t38.5 -25q10 -5 19 -10.5t17 -9.5l-13 -23q-14 -1 -36 8q-18 8 -46.5 27t-67.5 57l-272 262v-196q0 -57 -6 -89.5t-14 -51.5q-9 -22 -19 -31l-23 8q3 8 6 18t5 21q4 19 7.5 45t3.5 59v606h-103v40h143v-373l97 -94
l198 248h108z" />
    <glyph glyph-name="l" unicode="l" horiz-adv-x="261" 
d="M150 124q0 -65 11 -104q2 -11 4.5 -21t6.5 -18l-23 -8q-12 10 -20 31q-8 19 -13.5 51.5t-5.5 89.5v585h-103v40h143v-646z" />
    <glyph glyph-name="m" unicode="m" horiz-adv-x="941" 
d="M904 0l-24.5 -3.5t-20.5 -1.5q-26 0 -47 22.5t-21 64.5v219q0 65 -7.5 107t-23.5 66.5t-40 34t-58 9.5q-57 0 -101.5 -25t-70.5 -73q2 -28 4.5 -60.5t2.5 -69.5v-289h-40v301q0 65 -8 107t-24 66t-41 33.5t-59 9.5q-52 0 -94.5 -23.5t-70.5 -63.5v-431h-40v460
q0 19 -3 30.5t-7 17t-9 7t-9 1.5h-9.5t-11.5 -1l-9 35q8 2 19.5 3t19.5 1q23 0 39.5 -18.5t19.5 -55.5q33 34 78 56t85 22q61 0 98.5 -21t55.5 -78q15 22 35.5 40t44.5 31t50 20.5t52 7.5q49 0 82 -13t53 -44t28.5 -82.5t8.5 -128.5v-208q0 -17 4 -26.5t10 -14t12 -5.5
t11 -1h12.5t18.5 2z" />
    <glyph glyph-name="n" unicode="n" horiz-adv-x="683" 
d="M641 0l-24.5 -3.5t-20.5 -1.5q-26 0 -47 22.5t-21 64.5v301q0 34 -12 59.5t-32 42.5t-48 25t-59 8q-34 0 -67 -7.5t-61.5 -22.5t-50 -38t-32.5 -54v-396h-40v460q0 19 -3 30.5t-7 17t-9 7t-9 1.5h-9.5t-11.5 -1l-9 35q8 2 19.5 3t19.5 1q23 0 39.5 -18.5t19.5 -55.5v-16
q15 22 38.5 39.5t51.5 29.5t59 18.5t61 6.5q93 0 142.5 -47t49.5 -135v-294q0 -17 4 -26.5t10 -14t12 -5.5t11 -1h12.5t18.5 2z" />
    <glyph glyph-name="o" unicode="o" horiz-adv-x="530" 
d="M40 309q0 77 17 125.5t47 76t70.5 37.5t88.5 10q46 0 87 -10t71 -37.5t47.5 -76t17.5 -124.5v-73q0 -77 -17.5 -125.5t-48 -75.5t-71.5 -37t-87 -10q-47 0 -87.5 10t-70.5 37t-47 74.5t-17 122.5v76zM446 321q0 65 -17 104t-43.5 60t-59 28t-63.5 7q-32 0 -64.5 -7
t-59 -28t-43 -60t-16.5 -103v-98q0 -65 16.5 -103.5t42.5 -58.5t59 -26.5t65 -6.5q29 0 61.5 6t59.5 26t44.5 58t17.5 103v99z" />
    <glyph glyph-name="p" unicode="p" horiz-adv-x="625" 
d="M116 -212v672q0 19 -3 30.5t-7 17t-9 7t-9 1.5q-33 0 -60 -10l-11 29q29 10 46 14.5t34 4.5q43 0 55 -53q10 9 23.5 19.5t33 18.5t48 13.5t69.5 5.5q48 0 89.5 -11.5t72.5 -41t49 -79.5t18 -127v-66q0 -75 -18 -122.5t-49 -74.5t-72.5 -37t-88.5 -10q-40 0 -67 3t-45.5 8
t-32 12.5t-26.5 16.5v-228zM156 62q14 -6 28.5 -12.5t33.5 -11.5t45 -8.5t63 -3.5q34 0 68 7.5t61 29t43.5 61t16.5 103.5v85q0 64 -17.5 104.5t-45 64t-61 32.5t-65.5 9q-54 0 -99 -15.5t-71 -36.5v-408z" />
    <glyph glyph-name="q" unicode="q" horiz-adv-x="621" 
d="M452 -212v241q-10 -8 -23 -15.5t-32.5 -13t-47.5 -8.5t-67 -3q-47 0 -88.5 10t-72.5 37t-49 74.5t-18 122.5v66q0 77 18 127t49 79.5t72.5 41t89.5 11.5q40 0 68 -5.5t47.5 -14.5t32.5 -19t24 -19q5 26 20.5 40t35.5 14q17 0 34 -4.5t46 -14.5l-13 -30q-22 8 -35.5 10
t-22.5 2q-8 0 -18 -10.5t-10 -40.5v-665zM452 470q-26 22 -71.5 37t-97.5 15q-32 0 -65.5 -9t-61 -32.5t-45 -64t-17.5 -104.5v-85q0 -64 16.5 -103.5t43.5 -61t60.5 -29t68.5 -7.5q36 0 62 2.5t45.5 7t34 11t27.5 14.5v409z" />
    <glyph glyph-name="r" unicode="r" horiz-adv-x="502" 
d="M488 533v-93h-40v64q-35 10 -68.5 12t-55.5 2q-25 0 -47 -4.5t-40 -16t-31.5 -32t-21.5 -52.5v-413h-40v511h-103v40h143v-64q20 39 53 55t87 16q15 0 31.5 -0.5t36 -3t43 -7.5t53.5 -14z" />
    <glyph glyph-name="s" unicode="s" horiz-adv-x="549" 
d="M78 15v113h37v-85q19 -5 40.5 -8.5t42.5 -5.5t39 -3t30 -1q32 0 63 9.5t56 26.5t40 40.5t15 52.5v19q0 34 -18 53.5t-45 30t-59 14.5t-59 7q-53 5 -87.5 17t-55.5 31.5t-29.5 45.5t-8.5 58q0 35 15.5 60t43 41.5t66.5 24t87 7.5q15 0 30.5 -0.5t34 -3t41.5 -7.5t53 -14
v-114h-38v85q-33 11 -66 14.5t-55 3.5q-32 0 -62.5 -3.5t-54.5 -14t-38.5 -29.5t-14.5 -50q0 -57 35 -81t113 -32q25 -3 62 -6.5t70.5 -17t57.5 -42.5t24 -84q0 -44 -16 -77t-44.5 -55.5t-68 -34t-87.5 -11.5q-31 0 -79.5 3.5t-109.5 22.5z" />
    <glyph glyph-name="t" unicode="t" horiz-adv-x="330" 
d="M165 725v-170h128v-40h-128v-433q0 -17 4 -26.5t10 -14t12 -5.5t11 -1q9 0 28.5 1.5t48.5 7.5l8 -36q-33 -5 -55 -9t-39 -4q-26 0 -47 22.5t-21 64.5v433h-103l10 40h93v159z" />
    <glyph glyph-name="u" unicode="u" horiz-adv-x="633" 
d="M421 551h122v-460q0 -31 7 -44t24 -13q15 0 45 11l11 -29q-29 -10 -44.5 -14.5t-32.5 -4.5q-44 0 -50 74q-29 -44 -76.5 -61t-105.5 -17q-46 0 -85 10t-67 37t-44 75.5t-16 125.5v272h-84v38h124v-321q0 -65 14.5 -104t38.5 -60t54.5 -27.5t61.5 -6.5q32 0 65 3.5
t59.5 20t43.5 49.5t17 92v314h-82v40z" />
    <glyph glyph-name="v" unicode="v" horiz-adv-x="591" 
d="M460 551h123v-40h-90l-184 -511h-40l-164 511h-90v40h123l152 -489z" />
    <glyph glyph-name="w" unicode="w" horiz-adv-x="885" 
d="M433 550l152 -488l170 489h123v-40h-90l-184 -511h-40l-120 374l-133 -374h-40l-164 511h-90v40h123l152 -489l131 378l-21 71h-82v40z" />
    <glyph glyph-name="x" unicode="x" horiz-adv-x="649" 
d="M605 40v-40h-81l-204 246l-202 -244v-2h-77v40h56l198 236l-197 235h-57v40h79l200 -245l202 245h83v-40h-63l-197 -235l198 -236h62z" />
    <glyph glyph-name="y" unicode="y" horiz-adv-x="536" 
d="M401 551h122v-518q0 -77 -17 -125.5t-46.5 -76t-70 -37.5t-88.5 -10q-30 0 -58.5 4t-53.5 14t-45.5 27t-35.5 43l31 29q13 -26 32 -41t40.5 -23t45 -10.5t45.5 -2.5q31 0 63.5 6t58.5 26t42.5 58t16.5 102v55q-29 -44 -76.5 -61t-105.5 -17q-46 0 -83.5 10t-63.5 37
t-40.5 75.5t-14.5 125.5v270h-84v40h122v-321q0 -65 13.5 -104t36 -60t51.5 -27.5t60 -6.5q32 0 64 3.5t58.5 19.5t43.5 49t19 93v314h-82v40z" />
    <glyph glyph-name="z" unicode="z" horiz-adv-x="619" 
d="M514 146h35v-146h-478v40l415 473h-380v-108h-35v146h465v-38l-415 -473h393v106z" />
    <glyph glyph-name="braceleft" unicode="{" horiz-adv-x="307" 
d="M172 358q0 -208 38 -341t104 -181l-20 -18q-73 51 -117 178.5t-46 338.5h-116v36h116q0 108 10.5 193t30.5 148t48.5 106t66.5 68l19 -17q-27 -24 -51.5 -66.5t-43 -105.5t-29 -147t-10.5 -192z" />
    <glyph glyph-name="bar" unicode="|" horiz-adv-x="171" 
d="M106 781v-853h-40v853h40z" />
    <glyph glyph-name="braceright" unicode="}" horiz-adv-x="348" 
d="M291 371v-36h-115q-2 -211 -46.5 -338.5t-116.5 -178.5l-20 18q66 48 104 181t38 341q0 108 -10.5 192t-29 147t-43 105.5t-51.5 66.5l19 17q37 -25 65.5 -68t48.5 -106t30.5 -148t11.5 -193h115z" />
    <glyph glyph-name="asciitilde" unicode="~" horiz-adv-x="420" 
d="M275 296q-24 0 -42.5 10t-38.5 27q-19 14 -31 21t-25 7q-37 0 -51 -59l-31 7q5 38 27 64.5t54 26.5q25 0 43 -10t39 -27q18 -15 30 -21.5t25 -6.5q38 0 51 58l31 -7q-5 -38 -27 -64t-54 -26z" />
    <glyph glyph-name="exclamdown" unicode="&#xa1;" horiz-adv-x="218" 
d="M82 533.021v-593.928h40v558.932h29v34.9961h-69zM145 678.004q0 -16.998 -11.5 -28.4961q-11.5 -11.499 -28.5 -11.499t-28.5 11.499q-11.5 11.498 -11.5 28.4961t11.5 28.4961q11.5 11.499 28.5 11.499t28.5 -11.499q11.5 -11.498 11.5 -28.4961z" />
    <glyph glyph-name="cent" unicode="&#xa2;" horiz-adv-x="476" 
d="M265 522v-497q63 0 103 10.5t70 21.5l15 -37q-29 -11 -74 -20.5t-114 -10.5v-84h-40v86q-41 3 -75 15.5t-58.5 40t-38.5 73t-14 113.5v76q0 68 14 113.5t39 74t59 42t74 17.5v62h40v-60h4q30 0 65.5 -3.5t95.5 -21.5l-1 -3v-110h-40v84q-32 10 -65.5 14t-54.5 4h-4z
M79 322v-95q0 -56 12.5 -93t32.5 -59.5t46.5 -33.5t54.5 -14v492q-28 -4 -54 -15.5t-46.5 -34t-33 -58.5t-12.5 -89z" />
    <glyph glyph-name="sterling" unicode="&#xa3;" horiz-adv-x="568" 
d="M330 338v-40h-238v-258h407v103h38v-143h-486v396q0 102 19.5 165.5t57.5 99.5t93 48.5t127 12.5q38 0 77.5 -9t78.5 -21v-142h-38v110q-11 3 -26 7t-32 7.5t-34 5.5t-32 2q-39 0 -83 -6.5t-81 -32.5t-61.5 -79.5t-24.5 -147.5v-78h238z" />
    <glyph glyph-name="currency" unicode="&#xa4;" horiz-adv-x="485" 
d="M135 259q0 -51 32 -82t81 -31t81 31t32 82q0 49 -32 81t-81 32t-81 -32t-32 -81zM86 259q0 38 18 73l-66 66l68 69l66 -66q34 19 76 19q41 0 76 -18l62 61l66 -67l-62 -61q9 -17 14.5 -36.5t5.5 -39.5q0 -21 -5.5 -40.5t-14.5 -36.5l60 -60l-67 -69l-61 62
q-17 -10 -36 -14t-38 -4q-20 0 -39 4t-36 14l-66 -65l-67 68l65 66q-9 17 -14 35.5t-5 39.5z" />
    <glyph glyph-name="yen" unicode="&#xa5;" horiz-adv-x="660" 
d="M488 230v-36h-149v-154h92v-40h-224v40h92v154h-169v36h169v76h-169v36h160l-206 329h-70v39h93l212 -340l234 340h93v-39h-70l-230 -329h142v-36h-149v-76h149z" />
    <glyph glyph-name="brokenbar" unicode="&#xa6;" horiz-adv-x="192" 
d="M66 426v355h40v-355h-40zM106 291v-363h-40v363h40z" />
    <glyph glyph-name="section" unicode="&#xa7;" horiz-adv-x="525" 
d="M63 -72v113h35v-85q19 -5 40.5 -8.5t42.5 -5.5t39 -3t30 -1q32 0 63 8t56 23t40 37t15 51v19q0 34 -18 52.5t-45 26.5t-59 10.5t-59 5.5q-53 5 -87.5 19t-55.5 35t-29.5 48.5t-8.5 59.5q0 45 23.5 73t66.5 43q-51 18 -70.5 52t-19.5 82q0 35 15.5 60.5t43 42.5t66.5 25
t87 8q30 0 64.5 -5t94.5 -23v-114h-38v85q-33 11 -66 14.5t-55 3.5q-32 0 -62.5 -3.5t-54.5 -14t-38.5 -29.5t-14.5 -50q0 -57 35 -81t113 -32q17 -2 39.5 -3.5t46.5 -6.5t47.5 -13.5t41.5 -24.5t29.5 -41t11.5 -61q0 -52 -23.5 -82.5t-62.5 -45.5q17 -6 32.5 -15t27 -23.5
t18 -35t6.5 -48.5q0 -44 -16 -75.5t-44.5 -52t-68 -30.5t-87.5 -10q-31 0 -78.5 3.5t-108.5 22.5zM104 333q0 -57 41 -90t120 -33q31 0 60 4.5t51 15.5t35 29.5t13 47.5v19q0 31 -15.5 51.5t-39.5 32t-54 16t-58 4.5q-33 0 -61 -4.5t-48.5 -15.5t-32 -30t-11.5 -47z" />
    <glyph glyph-name="dieresis" unicode="&#xa8;" horiz-adv-x="481" 
d="M80 688q0 17 11.5 28.5t28.5 11.5t28.5 -11.5t11.5 -28.5t-11.5 -28.5t-28.5 -11.5t-28.5 11.5t-11.5 28.5zM310 688q0 17 11.5 28.5t28.5 11.5t28.5 -11.5t11.5 -28.5t-11.5 -28.5t-28.5 -11.5t-28.5 11.5t-11.5 28.5z" />
    <glyph glyph-name="copyright" unicode="&#xa9;" horiz-adv-x="698" 
d="M29 443q0 66 25 124t68.5 101.5t101.5 68.5t124 25t124 -25t101.5 -68.5t68.5 -101.5t25 -124t-25 -124t-68.5 -101.5t-101.5 -68.5t-124 -25t-124 25t-101.5 68.5t-68.5 101.5t-25 124zM73 442q0 -57 21.5 -107.5t59 -88t88 -59t107.5 -21.5t107 21.5t87.5 59t59.5 88
t22 107.5t-22 107t-59.5 87.5t-87.5 59.5t-107 22t-107.5 -22t-88 -59.5t-59 -87.5t-21.5 -107zM452 519h-39v35q-13 7 -29 11.5t-33 4.5q-16 0 -31 -4t-26 -16t-18 -33t-7 -54v-44q0 -63 21 -85t60 -22q35 0 56.5 6.5t41.5 13.5l14 -35q-22 -9 -49 -17.5t-63 -8.5h-11
q-24 0 -47 5t-40.5 20t-28.5 42.5t-11 72.5v48q0 50 11 80t30 45.5t45 20.5t56 5q10 0 32 -2.5t69 -12.5z" />
    <glyph glyph-name="ordfeminine" unicode="&#xaa;" horiz-adv-x="427" 
d="M346 380q4 -2 8 -2q3 0 8 1t16 6q2 -8 3.5 -15t3.5 -15q-17 -7 -23.5 -8.5t-18.5 -1.5q-26 0 -33 10.5t-10 31.5h-3q-9 -11 -18 -19.5t-21.5 -14.5t-30.5 -9t-44 -3h-6q-35 0 -58.5 9t-37.5 24.5t-19.5 36.5t-5.5 47v9q0 48 36 76.5t117 28.5q21 0 41.5 -0.5t40.5 -0.5
q0 28 -3 48.5t-11 33.5t-24 19.5t-41 6.5q-26 0 -50.5 -3.5t-46.5 -7.5v-20q-7 0 -14.5 -0.5t-14.5 -0.5q-1 14 -2 27t-3 27q26 6 64.5 12.5t70.5 6.5q42 0 66 -14t36 -35.5t14.5 -48t2.5 -51.5v-67q0 -20 -0.5 -42t0.5 -40t3.5 -30t7.5 -12zM292 535h-86q-57 0 -82 -17.5
t-25 -51.5v-16q0 -37 21.5 -53.5t64.5 -16.5h27q15 1 29.5 5t25.5 13.5t17.5 27t7.5 44.5v65z" />
    <glyph glyph-name="guillemotleft" unicode="&#xab;" horiz-adv-x="497" 
d="M253 476l-189 -188l189 -186v-53l-239 239l239 238v-50zM450 476l-189 -188l189 -186v-53l-239 239l239 238v-50z" />
    <glyph glyph-name="logicalnot" unicode="&#xac;" horiz-adv-x="538" 
d="M40 222q0 48 18 90.5t49.5 73.5t73.5 49t90 18t90 -18t73.5 -49t49.5 -73.5t18 -90.5t-18 -90.5t-49.5 -73.5t-73.5 -49t-90 -18t-90 18t-73.5 49t-49.5 73.5t-18 90.5z" />
    <glyph glyph-name="uni00AD" unicode="&#xad;" horiz-adv-x="543" 
d="M450 304v-36h-368v36h368z" />
    <glyph glyph-name="registered" unicode="&#xae;" horiz-adv-x="698" 
d="M29 443q0 66 25 124t68.5 101.5t101.5 68.5t124 25t124 -25t101.5 -68.5t68.5 -101.5t25 -124t-25 -124t-68.5 -101.5t-101.5 -68.5t-124 -25t-124 25t-101.5 68.5t-68.5 101.5t-25 124zM73 442q0 -57 21.5 -107.5t59 -88t88 -59t107.5 -21.5t107 21.5t87.5 59t59.5 88
t22 107.5t-22 107t-59.5 87.5t-87.5 59.5t-107 22t-107.5 -22t-88 -59.5t-59 -87.5t-21.5 -107zM217 266v46l24 1v261h-30v43h124q29 0 57 -3t50.5 -12.5t36.5 -29t14 -52.5v-26q0 -41 -22 -61t-57 -28l58 -74q16 -21 28 -29.5t20 -13.5l-20 -29h-4q-3 0 -10 1t-16.5 6
t-21.5 15t-24 27l-3 3v1q-17 22 -33.5 43.5t-33.5 44.5h-58v-133zM296 440h47q17 0 33.5 1.5t30 8t21.5 19.5t8 36q0 22 -6.5 36t-18 21t-27 9.5t-33.5 2.5h-55v-134z" />
    <glyph glyph-name="glyph112" unicode="&#xaf;" horiz-adv-x="513" 
d="M75 710h364v-36h-364v36z" />
    <glyph glyph-name="degree" unicode="&#xb0;" horiz-adv-x="418" 
d="M208 442q-27 0 -49 10t-38 26.5t-25 39t-9 47.5t9 47.5t25 39t38 26.5t49 10q26 0 48 -9.5t37.5 -26.5t24.5 -39.5t9 -47.5t-9 -47.5t-24.5 -39t-37.5 -26.5t-48 -10zM208 469q39 0 63 27t24 69t-24 69t-63 27q-40 0 -64.5 -27t-24.5 -69t24.5 -69t64.5 -27z" />
    <glyph glyph-name="plusminus" unicode="&#xb1;" horiz-adv-x="435" 
d="M369 40v-40h-308v40h308zM195 273h-135v35h135v137h36v-137h135v-35h-135v-137h-36v137z" />
    <glyph glyph-name="twosuperior" unicode="&#xb2;" horiz-adv-x="417" 
d="M50 349l180 166q17 16 31.5 28.5t24.5 23.5t15.5 21.5t5.5 23.5q0 20 -7.5 32.5t-20.5 19.5t-31 9.5t-38 2.5h-6q-17 0 -40 -5t-44 -16v-25t1 -26q-8 -2 -15.5 -3.5t-15.5 -2.5l-9 82q35 14 70 22t58 10q19 0 43.5 -2.5t46 -12t36.5 -28.5t15 -53v-9q0 -18 -9 -33.5
t-25 -30.5t-36.5 -32t-43.5 -38l-133 -124h230q2 13 2 26v28h32v-91h-317v37z" />
    <glyph glyph-name="threesuperior" unicode="&#xb3;" horiz-adv-x="386" 
d="M185 708q18 0 41.5 -2.5t44 -12t35 -28.5t14.5 -52v-5q0 -36 -14.5 -53t-40.5 -27q37 -12 54 -34.5t17 -75.5q0 -31 -13.5 -53t-35 -36t-49.5 -20.5t-57 -6.5q-41 0 -75.5 10t-55.5 18l15 33q22 -8 52 -17t64 -9q19 0 39 4.5t36 14.5t26.5 26.5t10.5 39.5q0 47 -29 65
t-78 18h-22l-3 33h25q18 0 35 3t29.5 10.5t20 21t7.5 35.5q0 21 -7.5 33.5t-20.5 19.5t-31 9t-38 2q-19 0 -38 -3.5t-40 -11.5v-25t1 -25l-31 -7q-2 20 -4.5 41t-4.5 41q33 12 61.5 19t59.5 7z" />
    <glyph glyph-name="acute" unicode="&#xb4;" horiz-adv-x="155" 
d="M120 712l-49 -116h-41l49 116h41z" />
    <glyph glyph-name="mu" unicode="&#xb5;" horiz-adv-x="547" 
d="M87 552v-383q0 -69 33.5 -102t96.5 -33q34 0 67 7.5t61.5 22.5t50 38t32.5 54v396h40v-460q0 -20 3 -31t7 -16.5t9 -7t9 -1.5h9q7 0 12 1l9 -35q-8 -2 -19.5 -3t-19.5 -1q-23 0 -39.5 18.5t-19.5 55.5v16q-15 -22 -38.5 -39.5t-51.5 -29.5t-59 -18.5t-61 -6.5
q-91 0 -130 47v-115q0 -61 -6.5 -91.5t-13.5 -49.5q-9 -22 -19 -31l-23 8q3 8 6 18t5 21q4 19 7 45t3 59v647h40z" />
    <glyph glyph-name="paragraph" unicode="&#xb6;" horiz-adv-x="628" 
d="M451 670h-92v-670h-40v284q-72 0 -123.5 9t-84.5 32t-48.5 62.5t-15.5 99.5t14 102t46 69t84 39.5t127 12.5h265v-40h-92v-670h-40v670z" />
    <glyph glyph-name="periodcentered" unicode="&#xb7;" horiz-adv-x="300" 
d="M155 176q-33 0 -56 23t-23 58q0 34 23 57.5t56 23.5t55.5 -23.5t22.5 -57.5q0 -35 -22.5 -58t-55.5 -23z" />
    <glyph glyph-name="cedilla" unicode="&#xb8;" horiz-adv-x="236" 
d="M166 13l-87 -207h-53l111 207h29z" />
    <glyph glyph-name="onesuperior" unicode="&#xb9;" horiz-adv-x="241" 
d="M50 675v34h93v-364h48v-34h-132v34h44v330h-53z" />
    <glyph glyph-name="ordmasculine" unicode="&#xba;" horiz-adv-x="361" 
d="M326 516q0 -55 -12.5 -89t-32.5 -52.5t-47.5 -25t-57.5 -6.5h-5q-31 0 -58 6.5t-46.5 25.5t-30.5 53t-11 88v27q0 57 12.5 90.5t33.5 51.5t49 23.5t60 5.5q30 0 57 -6.5t46.5 -26t31 -54t11.5 -90.5v-21zM283 540q0 46 -9 73.5t-24 42t-34.5 19t-40.5 4.5t-40 -4.5
t-34 -19t-24 -41.5t-9 -72v-26q0 -47 9.5 -74.5t25 -41.5t34.5 -18t39 -4q18 0 36.5 4t34.5 18t26 41t10 72v27z" />
    <glyph glyph-name="guillemotright" unicode="&#xbb;" horiz-adv-x="470" 
d="M211 526l239 -238l-239 -239v53l189 186l-189 188v50zM14 526l239 -238l-239 -239v53l189 186l-189 188v50z" />
    <glyph glyph-name="onequarter" unicode="&#xbc;" horiz-adv-x="680" 
d="M533 710l-405 -710h-41l401 710h45zM103 675v-330h-44v-34h132v34h-48v364h-93v-34h53zM577 60h60v34h-60q-2 66 -9.5 92.5t-19.5 35.5l-25 -8q2 -7 7 -27t5 -50v-43h-187l201 302h-50l-200 -302v-34h236v-62q11 -2 21 -3t21 -3v68z" />
    <glyph glyph-name="onehalf" unicode="&#xbd;" horiz-adv-x="711" 
d="M533 710l-405 -710h-41l401 710h45zM103 675v-330h-44v-34h132v34h-48v364h-93v-34h53zM366 1h317v91h-32v-28t-2 -26h-230l133 124q23 21 43.5 38t36.5 32t25 30.5t9 33.5v9q0 34 -15 53t-36.5 28.5t-46 12t-43.5 2.5q-23 -2 -58 -10t-70 -22l9 -82q8 1 15.5 2.5
t15.5 3.5q-1 13 -1 26v25q21 11 44 16t40 5h6q20 0 38 -2.5t31 -9.5t20.5 -19.5t7.5 -32.5q0 -13 -5.5 -23.5t-15.5 -21.5t-24.5 -23.5t-31.5 -28.5l-180 -166v-37z" />
    <glyph glyph-name="threequarters" unicode="&#xbe;" horiz-adv-x="711" 
d="M603 710l-405 -710h-41l401 710h45zM627 60h60v34h-60q-2 66 -9.5 92.5t-19.5 35.5l-25 -8q2 -7 7 -27t5 -50v-43h-187l201 302h-50l-200 -302v-34h236v-62q11 -2 21 -3t21 -3v68zM155 709q-31 0 -59.5 -7t-61.5 -19q2 -20 4.5 -41t4.5 -41l31 7q-1 13 -1 25v25
q21 8 40 11.5t38 3.5q20 0 38 -2t31 -9t20.5 -19.5t7.5 -33.5q0 -22 -7.5 -35.5t-20 -21t-29.5 -10.5t-35 -3h-25l3 -33h22q49 0 78 -18t29 -65q0 -23 -10.5 -39.5t-26.5 -26.5t-36 -14.5t-39 -4.5q-34 0 -64 9t-52 17l-15 -33q21 -8 55.5 -18t75.5 -10q29 0 57 6.5
t49.5 20.5t35 36t13.5 53q0 53 -17 75.5t-54 34.5q26 10 40.5 27t14.5 53v5q0 33 -14.5 52t-35 28.5t-44 12t-41.5 2.5z" />
    <glyph glyph-name="questiondown" unicode="&#xbf;" horiz-adv-x="584" 
d="M569.004 -101.959q-74.9961 -29.998 -126.492 -41.4971q-51.4971 -11.5 -92.4951 -11.5q-33.9971 0 -77.4951 4q-43.4971 4 -80.9951 21.499q-37.4971 17.499 -63.4961 51.9961q-25.998 34.498 -25.998 94.4951q0 37.9971 16.999 69.4951t42.4971 57.9971
q25.499 26.498 54.9971 48.4971q29.498 21.998 54.9961 41.9971q25.499 19.999 42.498 37.998q16.999 17.998 16.999 36.9971v83.9951h39.9971v-86.9951q0 -26.998 -16.999 -49.4961q-16.999 -22.499 -42.4971 -42.498q-25.499 -19.999 -54.9971 -39.9971
q-29.498 -19.999 -54.9961 -42.998q-25.499 -22.998 -42.498 -50.4961q-16.999 -27.499 -16.999 -62.4971q0 -45.9971 16.999 -72.4951t45.4971 -39.9971q28.499 -13.5 64.9961 -17q36.498 -3.49902 76.4961 -3.49902q31.998 0 80.4951 9.49902q48.4971 9.5 102.493 32.498
v111.993h39.998v-141.991zM308.02 538.002q0 -16.999 11.499 -28.498q11.5 -11.5 28.499 -11.5q16.998 0 28.498 11.5q11.499 11.499 11.499 28.498t-11.499 28.498q-11.5 11.5 -28.498 11.5q-16.999 0 -28.499 -11.5q-11.499 -11.499 -11.499 -28.498z" />
    <glyph glyph-name="Agrave" unicode="&#xc0;" horiz-adv-x="740" 
d="M228 710h181v-9l223 -661h90v-40h-123l-74 222h-312l-73 -222h-123v40h90l212 630h-91v40zM226 263h286l-134 407h-17zM326 871l49 -116h-41l-49 116h41z" />
    <glyph glyph-name="Aacute" unicode="&#xc1;" horiz-adv-x="740" 
d="M228 710h181v-9l223 -661h90v-40h-123l-74 222h-312l-73 -222h-123v40h90l212 630h-91v40zM226 263h286l-134 407h-17zM398 871l-49 -116h-41l49 116h41z" />
    <glyph glyph-name="Acircumflex" unicode="&#xc2;" horiz-adv-x="740" 
d="M228 710h181v-9l223 -661h90v-40h-123l-74 222h-312l-73 -222h-123v40h90l212 630h-91v40zM226 263h286l-134 407h-17zM497 763h-48l-95 107l-96 -107h-48l126 136h33z" />
    <glyph glyph-name="Atilde" unicode="&#xc3;" horiz-adv-x="740" 
d="M228 710h181v-9l223 -661h90v-40h-123l-74 222h-312l-73 -222h-123v40h90l212 630h-91v40zM226 263h286l-134 407h-17zM347 825q-12 5 -23.5 9t-22.5 4t-31.5 -6t-39.5 -25l-14 23q15 16 26.5 25t21 13.5t19 5.5t21.5 1q13 0 28 -5.5t30 -13.5q11 -5 22 -7.5t22 -2.5
t31.5 6t39.5 25l14 -23q-15 -16 -26.5 -25t-21 -13.5t-19 -5.5t-21.5 -1t-26.5 4.5t-29.5 11.5z" />
    <glyph glyph-name="Adieresis" unicode="&#xc4;" horiz-adv-x="740" 
d="M228 710h181v-9l223 -661h90v-40h-123l-74 222h-312l-73 -222h-123v40h90l212 630h-91v40zM226 263h286l-134 407h-17zM198 847q0 17 11.5 28.5t28.5 11.5t28.5 -11.5t11.5 -28.5t-11.5 -28.5t-28.5 -11.5t-28.5 11.5t-11.5 28.5zM428 847q0 17 11.5 28.5t28.5 11.5
t28.5 -11.5t11.5 -28.5t-11.5 -28.5t-28.5 -11.5t-28.5 11.5t-11.5 28.5z" />
    <glyph glyph-name="Aring" unicode="&#xc5;" horiz-adv-x="740" 
d="M228 710h181v-9l223 -661h90v-40h-123l-74 222h-312l-73 -222h-123v40h90l212 630h-91v40zM226 263h286l-134 407h-17zM354 754q-39 0 -65.5 27t-26.5 66q0 19 7 35.5t19.5 29.5t29 20.5t36.5 7.5q19 0 35.5 -7.5t29 -20.5t19.5 -29.5t7 -35.5q0 -20 -7 -36.5
t-19.5 -29.5t-29 -20t-35.5 -7zM354 784q26 0 42 18t16 45q0 26 -16 44.5t-42 18.5t-42.5 -18.5t-16.5 -44.5q0 -27 16.5 -45t42.5 -18z" />
    <glyph glyph-name="AE" unicode="&#xc6;" horiz-adv-x="1022" 
d="M953 710v-143h-35v103h-400l48 -274h266v-40h-259l57 -316h308v103h35v-143h-463v40h75l-34 196h-271l-115 -236h-116v40h87l333 670h484zM298 276h246l-63 373z" />
    <glyph glyph-name="Ccedilla" unicode="&#xc7;" 
d="M559 683v-139h-40v110q-22 7 -46 12.5t-47.5 9t-44 5t-35.5 1.5q-45 0 -89 -7.5t-79 -35t-56.5 -82t-21.5 -148.5v-108q0 -84 18 -137t49.5 -83t74 -41.5t92.5 -11.5q40 0 75.5 6t65.5 14.5t54.5 17.5t43.5 16l16 -38q-20 -7 -45 -16.5t-56.5 -18t-69.5 -14.5t-84 -6
q-57 0 -107 12.5t-87.5 47t-59 95.5t-21.5 157v95q0 91 17.5 153t53 100.5t89.5 55.5t127 17q33 0 84 -7.5t129 -31.5zM387 13l-87 -207h-53l111 207h29z" />
    <glyph glyph-name="Egrave" unicode="&#xc8;" 
d="M566 710v-143h-40v103h-336v-286h272v-40h-272v-304h356v103h40v-143h-527v40h91v630h-91v40h507zM313 871l49 -116h-41l-49 116h41z" />
    <glyph glyph-name="Eacute" unicode="&#xc9;" 
d="M566 710v-143h-40v103h-336v-286h272v-40h-272v-304h356v103h40v-143h-527v40h91v630h-91v40h507zM362 871l-49 -116h-41l49 116h41z" />
    <glyph glyph-name="Ecircumflex" unicode="&#xca;" 
d="M566 710v-143h-40v103h-336v-286h272v-40h-272v-304h356v103h40v-143h-527v40h91v630h-91v40h507zM461 763h-48l-95 107l-96 -107h-48l126 136h33z" />
    <glyph glyph-name="Edieresis" unicode="&#xcb;" 
d="M566 710v-143h-40v103h-336v-286h272v-40h-272v-304h356v103h40v-143h-527v40h91v630h-91v40h507zM162 847q0 17 11.5 28.5t28.5 11.5t28.5 -11.5t11.5 -28.5t-11.5 -28.5t-28.5 -11.5t-28.5 11.5t-11.5 28.5zM392 847q0 17 11.5 28.5t28.5 11.5t28.5 -11.5t11.5 -28.5
t-11.5 -28.5t-28.5 -11.5t-28.5 11.5t-11.5 28.5z" />
    <glyph glyph-name="Igrave" unicode="&#xcc;" horiz-adv-x="279" 
d="M120 40v630h-92v40h224v-40h-92v-630h92v-40h-224v40h92zM112 871l49 -116h-41l-49 116h41z" />
    <glyph glyph-name="Iacute" unicode="&#xcd;" horiz-adv-x="279" 
d="M120 40v630h-92v40h224v-40h-92v-630h92v-40h-224v40h92zM184 871l-49 -116h-41l49 116h41z" />
    <glyph glyph-name="Icircumflex" unicode="&#xce;" horiz-adv-x="279" 
d="M120 40v630h-92v40h224v-40h-92v-630h92v-40h-224v40h92zM283 763h-48l-95 107l-96 -107h-48l126 136h33z" />
    <glyph glyph-name="Idieresis" unicode="&#xcf;" horiz-adv-x="279" 
d="M120 40v630h-92v40h224v-40h-92v-630h92v-40h-224v40h92zM-15 847q0 17 11.5 28.5t28.5 11.5t28.5 -11.5t11.5 -28.5t-11.5 -28.5t-28.5 -11.5t-28.5 11.5t-11.5 28.5zM215 847q0 17 11.5 28.5t28.5 11.5t28.5 -11.5t11.5 -28.5t-11.5 -28.5t-28.5 -11.5t-28.5 11.5
t-11.5 28.5z" />
    <glyph glyph-name="Eth" unicode="&#xd0;" horiz-adv-x="710" 
d="M58 350h85v323h-82v38h286q72 0 127 -11t93 -44t57.5 -95t19.5 -164v-95q0 -96 -23.5 -155.5t-63.5 -91.5t-94 -43t-114 -11h-289v39h83v272h-85v38zM183 673v-323h107v-38h-107v-272h166q49 0 95 10t81 39t56.5 80.5t21.5 135.5v112q0 63 -11.5 106t-30.5 71.5t-44 44.5
t-53 23.5t-56.5 9t-54.5 1.5h-170z" />
    <glyph glyph-name="Ntilde" unicode="&#xd1;" horiz-adv-x="835" 
d="M565 671v39h224v-39h-92v-631h92v-40h-144l-455 652v-612h92v-40h-234v40h102v631h-92v39h143l456 -653v614h-92zM411 825q-12 5 -23.5 9t-22.5 4t-31.5 -6t-39.5 -25l-14 23q15 16 26.5 25t21 13.5t19 5.5t21.5 1q13 0 28 -5.5t30 -13.5q11 -5 22 -7.5t22 -2.5t31.5 6
t39.5 25l14 -23q-15 -16 -26.5 -25t-21 -13.5t-19 -5.5t-21.5 -1t-26.5 4.5t-29.5 11.5z" />
    <glyph glyph-name="Ograve" unicode="&#xd2;" horiz-adv-x="661" 
d="M601 311q0 -99 -22 -162t-59 -98.5t-86 -48.5t-104 -13t-104 13t-86 48.5t-59 98.5t-22 162v88q0 99 22 162t59 98.5t86 48.5t104 13t104 -13t86 -48.5t59 -98t22 -162.5v-88zM100 297q0 -86 19.5 -139t51.5 -82t73.5 -38.5t85.5 -9.5t85.5 9.5t73.5 38.5t51.5 82
t19.5 139v102q0 92 -19 147.5t-50.5 85.5t-73 40t-87.5 10t-87.5 -10t-73 -40t-50.5 -85.5t-19 -147.5v-102zM294 871l49 -116h-41l-49 116h41z" />
    <glyph glyph-name="Oacute" unicode="&#xd3;" horiz-adv-x="661" 
d="M601 311q0 -99 -22 -162t-59 -98.5t-86 -48.5t-104 -13t-104 13t-86 48.5t-59 98.5t-22 162v88q0 99 22 162t59 98.5t86 48.5t104 13t104 -13t86 -48.5t59 -98t22 -162.5v-88zM100 297q0 -86 19.5 -139t51.5 -82t73.5 -38.5t85.5 -9.5t85.5 9.5t73.5 38.5t51.5 82
t19.5 139v102q0 92 -19 147.5t-50.5 85.5t-73 40t-87.5 10t-87.5 -10t-73 -40t-50.5 -85.5t-19 -147.5v-102zM375 871l-49 -116h-41l49 116h41z" />
    <glyph glyph-name="Ocircumflex" unicode="&#xd4;" horiz-adv-x="661" 
d="M601 311q0 -99 -22 -162t-59 -98.5t-86 -48.5t-104 -13t-104 13t-86 48.5t-59 98.5t-22 162v88q0 99 22 162t59 98.5t86 48.5t104 13t104 -13t86 -48.5t59 -98t22 -162.5v-88zM100 297q0 -86 19.5 -139t51.5 -82t73.5 -38.5t85.5 -9.5t85.5 9.5t73.5 38.5t51.5 82
t19.5 139v102q0 92 -19 147.5t-50.5 85.5t-73 40t-87.5 10t-87.5 -10t-73 -40t-50.5 -85.5t-19 -147.5v-102zM474 763h-48l-95 107l-96 -107h-48l126 136h33z" />
    <glyph glyph-name="Otilde" unicode="&#xd5;" horiz-adv-x="661" 
d="M601 311q0 -99 -22 -162t-59 -98.5t-86 -48.5t-104 -13t-104 13t-86 48.5t-59 98.5t-22 162v88q0 99 22 162t59 98.5t86 48.5t104 13t104 -13t86 -48.5t59 -98t22 -162.5v-88zM100 297q0 -86 19.5 -139t51.5 -82t73.5 -38.5t85.5 -9.5t85.5 9.5t73.5 38.5t51.5 82
t19.5 139v102q0 92 -19 147.5t-50.5 85.5t-73 40t-87.5 10t-87.5 -10t-73 -40t-50.5 -85.5t-19 -147.5v-102zM324 825q-12 5 -23.5 9t-22.5 4t-31.5 -6t-39.5 -25l-14 23q15 16 26.5 25t21 13.5t19 5.5t21.5 1q13 0 28 -5.5t30 -13.5q11 -5 22 -7.5t22 -2.5t31.5 6t39.5 25
l14 -23q-15 -16 -26.5 -25t-21 -13.5t-19 -5.5t-21.5 -1t-26.5 4.5t-29.5 11.5z" />
    <glyph glyph-name="Odieresis" unicode="&#xd6;" horiz-adv-x="661" 
d="M601 311q0 -99 -22 -162t-59 -98.5t-86 -48.5t-104 -13t-104 13t-86 48.5t-59 98.5t-22 162v88q0 99 22 162t59 98.5t86 48.5t104 13t104 -13t86 -48.5t59 -98t22 -162.5v-88zM100 297q0 -86 19.5 -139t51.5 -82t73.5 -38.5t85.5 -9.5t85.5 9.5t73.5 38.5t51.5 82
t19.5 139v102q0 92 -19 147.5t-50.5 85.5t-73 40t-87.5 10t-87.5 -10t-73 -40t-50.5 -85.5t-19 -147.5v-102zM175 847q0 17 11.5 28.5t28.5 11.5t28.5 -11.5t11.5 -28.5t-11.5 -28.5t-28.5 -11.5t-28.5 11.5t-11.5 28.5zM405 847q0 17 11.5 28.5t28.5 11.5t28.5 -11.5
t11.5 -28.5t-11.5 -28.5t-28.5 -11.5t-28.5 11.5t-11.5 28.5z" />
    <glyph glyph-name="multiply" unicode="&#xd7;" horiz-adv-x="411" 
d="M205 265l-96 -95l-25 25l96 95l-97 97l25 25l97 -96l96 95l25 -25l-96 -95l97 -97l-25 -25z" />
    <glyph glyph-name="Oslash" unicode="&#xd8;" horiz-adv-x="661" 
d="M601 311q0 -99 -22 -162t-59 -98.5t-86 -48.5t-104 -13t-104 13t-86 48.5t-59 98.5t-22 162v88q0 99 22 162t59 98.5t86 48.5t104 13t104 -13t86 -48.5t59 -98t22 -162.5v-88zM100 297q0 -86 19.5 -139t51.5 -82t73.5 -38.5t85.5 -9.5t85.5 9.5t73.5 38.5t51.5 82
t19.5 139v102q0 92 -19 147.5t-50.5 85.5t-73 40t-87.5 10t-87.5 -10t-73 -40t-50.5 -85.5t-19 -147.5v-102zM488 771l-275 -900h-40l271 900h44z" />
    <glyph glyph-name="Ugrave" unicode="&#xd9;" horiz-adv-x="778" 
d="M159 297q0 -86 19.5 -139t51.5 -81.5t73 -38t85 -9.5t85.5 9.5t73.5 38t51.5 81.5t19.5 139v373h-89v40h219v-40h-89v-359q0 -99 -22 -162t-59 -98.5t-86 -48.5t-104 -13t-104 13t-86 48.5t-58.5 98.5t-21.5 162v359h-89v40h219v-40h-89v-373zM360 871l49 -116h-41
l-49 116h41z" />
    <glyph glyph-name="Uacute" unicode="&#xda;" horiz-adv-x="778" 
d="M159 297q0 -86 19.5 -139t51.5 -81.5t73 -38t85 -9.5t85.5 9.5t73.5 38t51.5 81.5t19.5 139v373h-89v40h219v-40h-89v-359q0 -99 -22 -162t-59 -98.5t-86 -48.5t-104 -13t-104 13t-86 48.5t-58.5 98.5t-21.5 162v359h-89v40h219v-40h-89v-373zM434 871l-49 -116h-41
l49 116h41z" />
    <glyph glyph-name="Ucircumflex" unicode="&#xdb;" horiz-adv-x="778" 
d="M159 297q0 -86 19.5 -139t51.5 -81.5t73 -38t85 -9.5t85.5 9.5t73.5 38t51.5 81.5t19.5 139v373h-89v40h219v-40h-89v-359q0 -99 -22 -162t-59 -98.5t-86 -48.5t-104 -13t-104 13t-86 48.5t-58.5 98.5t-21.5 162v359h-89v40h219v-40h-89v-373zM532 763h-48l-95 107
l-96 -107h-48l126 136h33z" />
    <glyph glyph-name="Udieresis" unicode="&#xdc;" horiz-adv-x="778" 
d="M159 297q0 -86 19.5 -139t51.5 -81.5t73 -38t85 -9.5t85.5 9.5t73.5 38t51.5 81.5t19.5 139v373h-89v40h219v-40h-89v-359q0 -99 -22 -162t-59 -98.5t-86 -48.5t-104 -13t-104 13t-86 48.5t-58.5 98.5t-21.5 162v359h-89v40h219v-40h-89v-373zM234 847q0 17 11.5 28.5
t28.5 11.5t28.5 -11.5t11.5 -28.5t-11.5 -28.5t-28.5 -11.5t-28.5 11.5t-11.5 28.5zM464 847q0 17 11.5 28.5t28.5 11.5t28.5 -11.5t11.5 -28.5t-11.5 -28.5t-28.5 -11.5t-28.5 11.5t-11.5 28.5z" />
    <glyph glyph-name="Yacute" unicode="&#xdd;" horiz-adv-x="672" 
d="M559 710h93v-40h-70l-237 -340v-290h92v-40h-224v40h92v290l-215 340h-70v40h93l212 -340zM394 871l-49 -116h-41l49 116h41z" />
    <glyph glyph-name="Thorn" unicode="&#xde;" horiz-adv-x="609" 
d="M246 846h-92v-186h120q72 0 126.5 -8.5t92 -30.5t57 -60.5t21.5 -98.5v-28q0 -60 -19.5 -98.5t-57 -60.5t-93 -30.5t-127.5 -8.5h-122v-196h92v-40h-215v40h83v806h-81v40h215v-40zM152 274h128q51 0 95.5 4t77.5 20.5t53.5 48.5t23.5 89v12q0 61 -20.5 95.5t-55.5 51.5
t-80.5 21t-96.5 4h-125v-346z" />
    <glyph glyph-name="germandbls" unicode="&#xdf;" horiz-adv-x="532" 
d="M137 30q6 -1 17 -1.5t23 -0.5h23.5h18.5q36 0 76.5 10t75 31t57.5 52.5t23 75.5q0 52 -19.5 83.5t-51 48.5t-71.5 22.5t-81 5.5h-43l-9 37h46q38 0 72.5 5.5t60.5 21t41 43.5t15 73q0 34 -15 60.5t-39.5 45t-55.5 28t-62 9.5q-29 0 -56 -8.5t-48 -26t-34 -44.5t-13 -64
v-531q0 -57 -6 -89.5t-14 -51.5q-9 -22 -19 -31l-24 8q3 8 6 18t5 21q4 19 7.5 45t3.5 59v555q0 47 16.5 82t43.5 57.5t61.5 33.5t71.5 11q39 0 77 -12t68 -35.5t48.5 -58t18.5 -78.5q0 -71 -28 -108t-72 -51q31 -8 56.5 -22t44 -35.5t28.5 -52.5t10 -73q0 -58 -26 -98
t-66 -64.5t-88 -35.5t-92 -11h-18.5t-23.5 0.5t-23.5 1t-17.5 0.5z" />
    <glyph glyph-name="agrave" unicode="&#xe0;" horiz-adv-x="544" 
d="M90 459v72q20 4 45.5 8t51.5 7.5t50 5.5t42 2q61 0 96 -18.5t52 -49.5t21 -71t4 -82v-242q0 -39 4.5 -49t13.5 -10t17.5 1.5t30.5 9.5l11 -29q-14 -5 -22.5 -8.5t-14 -5t-11 -2t-13.5 -0.5q-20 0 -30.5 4.5t-16 14t-7 23.5t-2.5 32h-5q-2 -4 -5 -7t-5 -6
q-11 -17 -23 -29.5t-30 -20.5t-44 -12.5t-65 -4.5q-54 0 -89.5 12.5t-57 34t-30 50t-8.5 61.5v29q0 31 11 59t37 48t69.5 32t108.5 12h136q0 47 -4.5 82t-18.5 57.5t-39 33.5t-66 11q-42 0 -80.5 -6t-73.5 -11v-38h-40zM90 149q0 -63 36 -90t111 -27q31 0 62.5 3t56.5 19
t40.5 49.5t15.5 93.5v93h-139q-102 0 -142.5 -29.5t-40.5 -83.5v-28zM268 712l49 -116h-41l-49 116h41z" />
    <glyph glyph-name="aacute" unicode="&#xe1;" horiz-adv-x="544" 
d="M90 459v72q20 4 45.5 8t51.5 7.5t50 5.5t42 2q61 0 96 -18.5t52 -49.5t21 -71t4 -82v-242q0 -39 4.5 -49t13.5 -10t17.5 1.5t30.5 9.5l11 -29q-14 -5 -22.5 -8.5t-14 -5t-11 -2t-13.5 -0.5q-20 0 -30.5 4.5t-16 14t-7 23.5t-2.5 32h-5q-2 -4 -5 -7t-5 -6
q-11 -17 -23 -29.5t-30 -20.5t-44 -12.5t-65 -4.5q-54 0 -89.5 12.5t-57 34t-30 50t-8.5 61.5v29q0 31 11 59t37 48t69.5 32t108.5 12h136q0 47 -4.5 82t-18.5 57.5t-39 33.5t-66 11q-42 0 -80.5 -6t-73.5 -11v-38h-40zM90 149q0 -63 36 -90t111 -27q31 0 62.5 3t56.5 19
t40.5 49.5t15.5 93.5v93h-139q-102 0 -142.5 -29.5t-40.5 -83.5v-28zM317 712l-49 -116h-41l49 116h41z" />
    <glyph glyph-name="acircumflex" unicode="&#xe2;" horiz-adv-x="544" 
d="M90 459v72q20 4 45.5 8t51.5 7.5t50 5.5t42 2q61 0 96 -18.5t52 -49.5t21 -71t4 -82v-242q0 -39 4.5 -49t13.5 -10t17.5 1.5t30.5 9.5l11 -29q-14 -5 -22.5 -8.5t-14 -5t-11 -2t-13.5 -0.5q-20 0 -30.5 4.5t-16 14t-7 23.5t-2.5 32h-5q-2 -4 -5 -7t-5 -6
q-11 -17 -23 -29.5t-30 -20.5t-44 -12.5t-65 -4.5q-54 0 -89.5 12.5t-57 34t-30 50t-8.5 61.5v29q0 31 11 59t37 48t69.5 32t108.5 12h136q0 47 -4.5 82t-18.5 57.5t-39 33.5t-66 11q-42 0 -80.5 -6t-73.5 -11v-38h-40zM90 149q0 -63 36 -90t111 -27q31 0 62.5 3t56.5 19
t40.5 49.5t15.5 93.5v93h-139q-102 0 -142.5 -29.5t-40.5 -83.5v-28zM415 604h-48l-95 107l-96 -107h-48l126 136h33z" />
    <glyph glyph-name="atilde" unicode="&#xe3;" horiz-adv-x="544" 
d="M90 459v72q20 4 45.5 8t51.5 7.5t50 5.5t42 2q61 0 96 -18.5t52 -49.5t21 -71t4 -82v-242q0 -39 4.5 -49t13.5 -10t17.5 1.5t30.5 9.5l11 -29q-14 -5 -22.5 -8.5t-14 -5t-11 -2t-13.5 -0.5q-20 0 -30.5 4.5t-16 14t-7 23.5t-2.5 32h-5q-2 -4 -5 -7t-5 -6
q-11 -17 -23 -29.5t-30 -20.5t-44 -12.5t-65 -4.5q-54 0 -89.5 12.5t-57 34t-30 50t-8.5 61.5v29q0 31 11 59t37 48t69.5 32t108.5 12h136q0 47 -4.5 82t-18.5 57.5t-39 33.5t-66 11q-42 0 -80.5 -6t-73.5 -11v-38h-40zM90 149q0 -63 36 -90t111 -27q31 0 62.5 3t56.5 19
t40.5 49.5t15.5 93.5v93h-139q-102 0 -142.5 -29.5t-40.5 -83.5v-28zM265 666q-12 5 -23.5 9t-22.5 4t-31.5 -6t-39.5 -25l-14 23q15 16 26.5 25t21 13.5t19 5.5t21.5 1q13 0 28 -5.5t30 -13.5q11 -5 22 -7.5t22 -2.5t31.5 6t39.5 25l14 -23q-15 -16 -26.5 -25t-21 -13.5
t-19 -5.5t-21.5 -1t-26.5 4.5t-29.5 11.5z" />
    <glyph glyph-name="adieresis" unicode="&#xe4;" horiz-adv-x="544" 
d="M90 459v72q20 4 45.5 8t51.5 7.5t50 5.5t42 2q61 0 96 -18.5t52 -49.5t21 -71t4 -82v-242q0 -39 4.5 -49t13.5 -10t17.5 1.5t30.5 9.5l11 -29q-14 -5 -22.5 -8.5t-14 -5t-11 -2t-13.5 -0.5q-20 0 -30.5 4.5t-16 14t-7 23.5t-2.5 32h-5q-2 -4 -5 -7t-5 -6
q-11 -17 -23 -29.5t-30 -20.5t-44 -12.5t-65 -4.5q-54 0 -89.5 12.5t-57 34t-30 50t-8.5 61.5v29q0 31 11 59t37 48t69.5 32t108.5 12h136q0 47 -4.5 82t-18.5 57.5t-39 33.5t-66 11q-42 0 -80.5 -6t-73.5 -11v-38h-40zM90 149q0 -63 36 -90t111 -27q31 0 62.5 3t56.5 19
t40.5 49.5t15.5 93.5v93h-139q-102 0 -142.5 -29.5t-40.5 -83.5v-28zM117 688q0 17 11.5 28.5t28.5 11.5t28.5 -11.5t11.5 -28.5t-11.5 -28.5t-28.5 -11.5t-28.5 11.5t-11.5 28.5zM347 688q0 17 11.5 28.5t28.5 11.5t28.5 -11.5t11.5 -28.5t-11.5 -28.5t-28.5 -11.5
t-28.5 11.5t-11.5 28.5z" />
    <glyph glyph-name="aring" unicode="&#xe5;" horiz-adv-x="544" 
d="M90 459v72q20 4 45.5 8t51.5 7.5t50 5.5t42 2q61 0 96 -18.5t52 -49.5t21 -71t4 -82v-242q0 -39 4.5 -49t13.5 -10t17.5 1.5t30.5 9.5l11 -29q-14 -5 -22.5 -8.5t-14 -5t-11 -2t-13.5 -0.5q-20 0 -30.5 4.5t-16 14t-7 23.5t-2.5 32h-5q-2 -4 -5 -7t-5 -6
q-11 -17 -23 -29.5t-30 -20.5t-44 -12.5t-65 -4.5q-54 0 -89.5 12.5t-57 34t-30 50t-8.5 61.5v29q0 31 11 59t37 48t69.5 32t108.5 12h136q0 47 -4.5 82t-18.5 57.5t-39 33.5t-66 11q-42 0 -80.5 -6t-73.5 -11v-38h-40zM90 149q0 -63 36 -90t111 -27q31 0 62.5 3t56.5 19
t40.5 49.5t15.5 93.5v93h-139q-102 0 -142.5 -29.5t-40.5 -83.5v-28zM272 595q-39 0 -65.5 27t-26.5 66q0 19 7 35.5t19.5 29.5t29 20.5t36.5 7.5q19 0 35.5 -7.5t29 -20.5t19.5 -29.5t7 -35.5q0 -20 -7 -36.5t-19.5 -29.5t-29 -20t-35.5 -7zM272 625q26 0 42 18t16 45
q0 26 -16 44.5t-42 18.5t-42.5 -18.5t-16.5 -44.5q0 -27 16.5 -45t42.5 -18z" />
    <glyph glyph-name="ae" unicode="&#xe6;" horiz-adv-x="944" 
d="M434 309q-1 52 -7 90.5t-20 64t-38.5 38t-61.5 12.5q-42 0 -80.5 -6t-73.5 -11v-38h-40v72q20 4 45.5 8t51.5 7.5t50 5.5t42 2q70 0 106 -28t52 -72q14 31 35.5 51t47.5 32t57 16.5t64 4.5q46 0 86 -11.5t69 -37.5t45.5 -67.5t16.5 -100.5q0 -18 -1 -40t-3 -32h-403v-42
q0 -65 16.5 -103.5t42.5 -59t59 -27t65 -6.5q63 0 104.5 7.5t71.5 18.5l15 -37q-29 -11 -74.5 -21t-117.5 -10q-33 0 -63 4.5t-56 16.5t-46.5 32.5t-33.5 51.5q-11 -49 -62.5 -75.5t-136.5 -26.5q-54 0 -89.5 12.5t-57 34t-30 50t-8.5 61.5v29q0 31 11 55.5t37 41t69.5 25
t108.5 8.5h135zM113 149q0 -63 36 -90t111 -27q31 0 62 3t56 19t40.5 49.5t15.5 93.5v72h-138q-51 0 -86 -4.5t-56.5 -15t-31 -28t-9.5 -44.5v-28zM475 309h366v43q0 45 -16 76.5t-41.5 51.5t-57 29t-62.5 9q-29 0 -60 -5t-58 -22t-46 -50t-24 -90q0 -11 -0.5 -21t-0.5 -21z
" />
    <glyph glyph-name="ccedilla" unicode="&#xe7;" horiz-adv-x="539" 
d="M304 522q-32 0 -65.5 -7.5t-61.5 -29t-45.5 -60.5t-17.5 -103v-95q0 -65 16.5 -104.5t42.5 -61.5t59 -29t65 -7q63 0 104.5 10.5t71.5 21.5l15 -37q-29 -11 -74.5 -21t-117.5 -10q-47 0 -87.5 10t-70.5 37t-47 74.5t-17 122.5v76q0 77 18 125.5t49.5 76t73 37.5t89.5 10
q15 0 30 -0.5t33 -3t40.5 -7.5t52.5 -14l-1 -3v-110h-35v84q-32 10 -65.5 14t-54.5 4zM339 13l-87 -207h-53l111 207h29z" />
    <glyph glyph-name="egrave" unicode="&#xe8;" horiz-adv-x="572" 
d="M66 309q0 77 18 125.5t49.5 76t73 37.5t89.5 10q46 0 86 -11.5t69 -37.5t45.5 -67.5t16.5 -100.5q0 -18 -1 -38.5t-3 -30.5h-403v-45q0 -65 16.5 -103.5t42.5 -59t59 -27t65 -6.5q63 0 104.5 7.5t71.5 18.5l15 -37q-29 -11 -74.5 -21t-117.5 -10q-47 0 -87.5 10t-70.5 37
t-47 74.5t-17 122.5v76zM106 312h367v40q0 45 -16 76.5t-41.5 51.5t-57 29t-62.5 9q-32 0 -65.5 -5.5t-61.5 -26t-45.5 -61.5t-17.5 -113zM282 712l49 -116h-41l-49 116h41z" />
    <glyph glyph-name="eacute" unicode="&#xe9;" horiz-adv-x="572" 
d="M66 309q0 77 18 125.5t49.5 76t73 37.5t89.5 10q46 0 86 -11.5t69 -37.5t45.5 -67.5t16.5 -100.5q0 -18 -1 -38.5t-3 -30.5h-403v-45q0 -65 16.5 -103.5t42.5 -59t59 -27t65 -6.5q63 0 104.5 7.5t71.5 18.5l15 -37q-29 -11 -74.5 -21t-117.5 -10q-47 0 -87.5 10t-70.5 37
t-47 74.5t-17 122.5v76zM106 312h367v40q0 45 -16 76.5t-41.5 51.5t-57 29t-62.5 9q-32 0 -65.5 -5.5t-61.5 -26t-45.5 -61.5t-17.5 -113zM381 712l-49 -116h-41l49 116h41z" />
    <glyph glyph-name="ecircumflex" unicode="&#xea;" horiz-adv-x="572" 
d="M66 309q0 77 18 125.5t49.5 76t73 37.5t89.5 10q46 0 86 -11.5t69 -37.5t45.5 -67.5t16.5 -100.5q0 -18 -1 -38.5t-3 -30.5h-403v-45q0 -65 16.5 -103.5t42.5 -59t59 -27t65 -6.5q63 0 104.5 7.5t71.5 18.5l15 -37q-29 -11 -74.5 -21t-117.5 -10q-47 0 -87.5 10t-70.5 37
t-47 74.5t-17 122.5v76zM106 312h367v40q0 45 -16 76.5t-41.5 51.5t-57 29t-62.5 9q-32 0 -65.5 -5.5t-61.5 -26t-45.5 -61.5t-17.5 -113zM429 604h-48l-95 107l-96 -107h-48l126 136h33z" />
    <glyph glyph-name="edieresis" unicode="&#xeb;" horiz-adv-x="572" 
d="M66 309q0 77 18 125.5t49.5 76t73 37.5t89.5 10q46 0 86 -11.5t69 -37.5t45.5 -67.5t16.5 -100.5q0 -18 -1 -38.5t-3 -30.5h-403v-45q0 -65 16.5 -103.5t42.5 -59t59 -27t65 -6.5q63 0 104.5 7.5t71.5 18.5l15 -37q-29 -11 -74.5 -21t-117.5 -10q-47 0 -87.5 10t-70.5 37
t-47 74.5t-17 122.5v76zM106 312h367v40q0 45 -16 76.5t-41.5 51.5t-57 29t-62.5 9q-32 0 -65.5 -5.5t-61.5 -26t-45.5 -61.5t-17.5 -113zM131 688q0 17 11.5 28.5t28.5 11.5t28.5 -11.5t11.5 -28.5t-11.5 -28.5t-28.5 -11.5t-28.5 11.5t-11.5 28.5zM361 688q0 17 11.5 28.5
t28.5 11.5t28.5 -11.5t11.5 -28.5t-11.5 -28.5t-28.5 -11.5t-28.5 11.5t-11.5 28.5z" />
    <glyph glyph-name="igrave" unicode="&#xec;" horiz-adv-x="318" 
d="M282 40v-40h-223v40h91v471h-103v40h143v-511h92zM155 712l49 -116h-41l-49 116h41z" />
    <glyph glyph-name="iacute" unicode="&#xed;" horiz-adv-x="318" 
d="M282 40v-40h-223v40h91v471h-103v40h143v-511h92zM204 712l-49 -116h-41l49 116h41z" />
    <glyph glyph-name="icircumflex" unicode="&#xee;" horiz-adv-x="318" 
d="M282 40v-40h-223v40h91v471h-103v40h143v-511h92zM303 604h-48l-95 107l-96 -107h-48l126 136h33z" />
    <glyph glyph-name="idieresis" unicode="&#xef;" horiz-adv-x="318" 
d="M282 40v-40h-223v40h91v471h-103v40h143v-511h92zM4 688q0 17 11.5 28.5t28.5 11.5t28.5 -11.5t11.5 -28.5t-11.5 -28.5t-28.5 -11.5t-28.5 11.5t-11.5 28.5zM234 688q0 17 11.5 28.5t28.5 11.5t28.5 -11.5t11.5 -28.5t-11.5 -28.5t-28.5 -11.5t-28.5 11.5t-11.5 28.5z
" />
    <glyph glyph-name="eth" unicode="&#xf0;" horiz-adv-x="680" 
d="M657 667l-112 -50q17 -28 27 -64.5t10 -85.5v-196q0 -98 -18.5 -155t-53 -86t-83 -37.5t-108.5 -8.5q-57 0 -106.5 9t-86 34.5t-57 70.5t-20.5 117q0 75 20 119t53.5 67.5t77 30t90.5 6.5h58q37 0 65.5 -4t51 -10t40.5 -13.5t36 -15.5v89q0 38 -9 66.5t-24 50.5l-194 -86
l1 45l163 73q-5 4 -9.5 7t-9.5 6q-18 10 -37 21.5t-37.5 21.5t-37 16t-34.5 6l2 36q24 0 48 -7t47.5 -18t45 -25t40.5 -28q5 -5 10.5 -9t10.5 -9l140 62v-46zM91 215q0 -69 21 -108t53.5 -57.5t72.5 -22.5t78 -4q45 0 86 4.5t71.5 27.5t49 70.5t18.5 134.5v103
q-30 11 -77 25t-110 14h-63q-34 0 -69.5 -5t-64.5 -24t-47.5 -56.5t-18.5 -101.5z" />
    <glyph glyph-name="ntilde" unicode="&#xf1;" horiz-adv-x="626" 
d="M584 0l-24.5 -3.5t-20.5 -1.5q-26 0 -47 22.5t-21 64.5v301q0 34 -12 59.5t-32 42.5t-48 25t-59 8q-34 0 -67 -7.5t-61.5 -22.5t-50 -38t-32.5 -54v-396h-40v460q0 19 -3 30.5t-7 17t-9 7t-9 1.5h-9.5t-11.5 -1l-9 35q8 2 19.5 3t19.5 1q23 0 39.5 -18.5t19.5 -55.5v-16
q15 22 38.5 39.5t51.5 29.5t59 18.5t61 6.5q93 0 142.5 -47t49.5 -135v-294q0 -17 4 -26.5t10 -14t12 -5.5t11 -1h12.5t18.5 2zM295 666q-12 5 -23.5 9t-22.5 4t-31.5 -6t-39.5 -25l-14 23q15 16 26.5 25t21 13.5t19 5.5t21.5 1q13 0 28 -5.5t30 -13.5q11 -5 22 -7.5
t22 -2.5t31.5 6t39.5 25l14 -23q-15 -16 -26.5 -25t-21 -13.5t-19 -5.5t-21.5 -1t-26.5 4.5t-29.5 11.5z" />
    <glyph glyph-name="ograve" unicode="&#xf2;" horiz-adv-x="530" 
d="M40 309q0 77 17 125.5t47 76t70.5 37.5t88.5 10q46 0 87 -10t71 -37.5t47.5 -76t17.5 -124.5v-73q0 -77 -17.5 -125.5t-48 -75.5t-71.5 -37t-87 -10q-47 0 -87.5 10t-70.5 37t-47 74.5t-17 122.5v76zM446 321q0 65 -17 104t-43.5 60t-59 28t-63.5 7q-32 0 -64.5 -7
t-59 -28t-43 -60t-16.5 -103v-98q0 -65 16.5 -103.5t42.5 -58.5t59 -26.5t65 -6.5q29 0 61.5 6t59.5 26t44.5 58t17.5 103v99zM261 712l49 -116h-41l-49 116h41z" />
    <glyph glyph-name="oacute" unicode="&#xf3;" horiz-adv-x="530" 
d="M40 309q0 77 17 125.5t47 76t70.5 37.5t88.5 10q46 0 87 -10t71 -37.5t47.5 -76t17.5 -124.5v-73q0 -77 -17.5 -125.5t-48 -75.5t-71.5 -37t-87 -10q-47 0 -87.5 10t-70.5 37t-47 74.5t-17 122.5v76zM446 321q0 65 -17 104t-43.5 60t-59 28t-63.5 7q-32 0 -64.5 -7
t-59 -28t-43 -60t-16.5 -103v-98q0 -65 16.5 -103.5t42.5 -58.5t59 -26.5t65 -6.5q29 0 61.5 6t59.5 26t44.5 58t17.5 103v99zM310 712l-49 -116h-41l49 116h41z" />
    <glyph glyph-name="ocircumflex" unicode="&#xf4;" horiz-adv-x="530" 
d="M40 309q0 77 17 125.5t47 76t70.5 37.5t88.5 10q46 0 87 -10t71 -37.5t47.5 -76t17.5 -124.5v-73q0 -77 -17.5 -125.5t-48 -75.5t-71.5 -37t-87 -10q-47 0 -87.5 10t-70.5 37t-47 74.5t-17 122.5v76zM446 321q0 65 -17 104t-43.5 60t-59 28t-63.5 7q-32 0 -64.5 -7
t-59 -28t-43 -60t-16.5 -103v-98q0 -65 16.5 -103.5t42.5 -58.5t59 -26.5t65 -6.5q29 0 61.5 6t59.5 26t44.5 58t17.5 103v99zM408 604h-48l-95 107l-96 -107h-48l126 136h33z" />
    <glyph glyph-name="otilde" unicode="&#xf5;" horiz-adv-x="530" 
d="M40 309q0 77 17 125.5t47 76t70.5 37.5t88.5 10q46 0 87 -10t71 -37.5t47.5 -76t17.5 -124.5v-73q0 -77 -17.5 -125.5t-48 -75.5t-71.5 -37t-87 -10q-47 0 -87.5 10t-70.5 37t-47 74.5t-17 122.5v76zM446 321q0 65 -17 104t-43.5 60t-59 28t-63.5 7q-32 0 -64.5 -7
t-59 -28t-43 -60t-16.5 -103v-98q0 -65 16.5 -103.5t42.5 -58.5t59 -26.5t65 -6.5q29 0 61.5 6t59.5 26t44.5 58t17.5 103v99zM258 666q-12 5 -23.5 9t-22.5 4t-31.5 -6t-39.5 -25l-14 23q15 16 26.5 25t21 13.5t19 5.5t21.5 1q13 0 28 -5.5t30 -13.5q11 -5 22 -7.5t22 -2.5
t31.5 6t39.5 25l14 -23q-15 -16 -26.5 -25t-21 -13.5t-19 -5.5t-21.5 -1t-26.5 4.5t-29.5 11.5z" />
    <glyph glyph-name="odieresis" unicode="&#xf6;" horiz-adv-x="530" 
d="M40 309q0 77 17 125.5t47 76t70.5 37.5t88.5 10q46 0 87 -10t71 -37.5t47.5 -76t17.5 -124.5v-73q0 -77 -17.5 -125.5t-48 -75.5t-71.5 -37t-87 -10q-47 0 -87.5 10t-70.5 37t-47 74.5t-17 122.5v76zM446 321q0 65 -17 104t-43.5 60t-59 28t-63.5 7q-32 0 -64.5 -7
t-59 -28t-43 -60t-16.5 -103v-98q0 -65 16.5 -103.5t42.5 -58.5t59 -26.5t65 -6.5q29 0 61.5 6t59.5 26t44.5 58t17.5 103v99zM110 688q0 17 11.5 28.5t28.5 11.5t28.5 -11.5t11.5 -28.5t-11.5 -28.5t-28.5 -11.5t-28.5 11.5t-11.5 28.5zM340 688q0 17 11.5 28.5t28.5 11.5
t28.5 -11.5t11.5 -28.5t-11.5 -28.5t-28.5 -11.5t-28.5 11.5t-11.5 28.5z" />
    <glyph glyph-name="divide" unicode="&#xf7;" horiz-adv-x="475" 
d="M415 308v-40h-368v40h368zM190 69q0 17 11.5 28.5t28.5 11.5t28.5 -11.5t11.5 -28.5t-11.5 -28.5t-28.5 -11.5t-28.5 11.5t-11.5 28.5zM190 487q0 17 11.5 28.5t28.5 11.5t28.5 -11.5t11.5 -28.5t-11.5 -28.5t-28.5 -11.5t-28.5 11.5t-11.5 28.5z" />
    <glyph glyph-name="oslash" unicode="&#xf8;" horiz-adv-x="530" 
d="M40 309q0 77 17 125.5t47 76t70.5 37.5t88.5 10q46 0 87 -10t71 -37.5t47.5 -76t17.5 -124.5v-73q0 -77 -17.5 -125.5t-48 -75.5t-71.5 -37t-87 -10q-47 0 -87.5 10t-70.5 37t-47 74.5t-17 122.5v76zM446 321q0 65 -17 104t-43.5 60t-59 28t-63.5 7q-32 0 -64.5 -7
t-59 -28t-43 -60t-16.5 -103v-98q0 -65 16.5 -103.5t42.5 -58.5t59 -26.5t65 -6.5q29 0 61.5 6t59.5 26t44.5 58t17.5 103v99zM421 724l-275 -900h-40l271 900h44z" />
    <glyph glyph-name="ugrave" unicode="&#xf9;" horiz-adv-x="633" 
d="M421 551h122v-460q0 -31 7 -44t24 -13q15 0 45 11l11 -29q-29 -10 -44.5 -14.5t-32.5 -4.5q-44 0 -50 74q-29 -44 -76.5 -61t-105.5 -17q-46 0 -85 10t-67 37t-44 75.5t-16 125.5v272h-84v38h124v-321q0 -65 14.5 -104t38.5 -60t54.5 -27.5t61.5 -6.5q32 0 65 3.5
t59.5 20t43.5 49.5t17 92v314h-82v40zM250 712l49 -116h-41l-49 116h41z" />
    <glyph glyph-name="uacute" unicode="&#xfa;" horiz-adv-x="633" 
d="M421 551h122v-460q0 -31 7 -44t24 -13q15 0 45 11l11 -29q-29 -10 -44.5 -14.5t-32.5 -4.5q-44 0 -50 74q-29 -44 -76.5 -61t-105.5 -17q-46 0 -85 10t-67 37t-44 75.5t-16 125.5v272h-84v38h124v-321q0 -65 14.5 -104t38.5 -60t54.5 -27.5t61.5 -6.5q32 0 65 3.5
t59.5 20t43.5 49.5t17 92v314h-82v40zM361 712l-49 -116h-41l49 116h41z" />
    <glyph glyph-name="ucircumflex" unicode="&#xfb;" horiz-adv-x="633" 
d="M421 551h122v-460q0 -31 7 -44t24 -13q15 0 45 11l11 -29q-29 -10 -44.5 -14.5t-32.5 -4.5q-44 0 -50 74q-29 -44 -76.5 -61t-105.5 -17q-46 0 -85 10t-67 37t-44 75.5t-16 125.5v272h-84v38h124v-321q0 -65 14.5 -104t38.5 -60t54.5 -27.5t61.5 -6.5q32 0 65 3.5
t59.5 20t43.5 49.5t17 92v314h-82v40zM460 604h-48l-95 107l-96 -107h-48l126 136h33z" />
    <glyph glyph-name="udieresis" unicode="&#xfc;" horiz-adv-x="633" 
d="M421 551h122v-460q0 -31 7 -44t24 -13q15 0 45 11l11 -29q-29 -10 -44.5 -14.5t-32.5 -4.5q-44 0 -50 74q-29 -44 -76.5 -61t-105.5 -17q-46 0 -85 10t-67 37t-44 75.5t-16 125.5v272h-84v38h124v-321q0 -65 14.5 -104t38.5 -60t54.5 -27.5t61.5 -6.5q32 0 65 3.5
t59.5 20t43.5 49.5t17 92v314h-82v40zM161 688q0 17 11.5 28.5t28.5 11.5t28.5 -11.5t11.5 -28.5t-11.5 -28.5t-28.5 -11.5t-28.5 11.5t-11.5 28.5zM391 688q0 17 11.5 28.5t28.5 11.5t28.5 -11.5t11.5 -28.5t-11.5 -28.5t-28.5 -11.5t-28.5 11.5t-11.5 28.5z" />
    <glyph glyph-name="yacute" unicode="&#xfd;" horiz-adv-x="536" 
d="M401 551h122v-518q0 -77 -17 -125.5t-46.5 -76t-70 -37.5t-88.5 -10q-30 0 -58.5 4t-53.5 14t-45.5 27t-35.5 43l31 29q13 -26 32 -41t40.5 -23t45 -10.5t45.5 -2.5q31 0 63.5 6t58.5 26t42.5 58t16.5 102v55q-29 -44 -76.5 -61t-105.5 -17q-46 0 -83.5 10t-63.5 37
t-40.5 75.5t-14.5 125.5v270h-84v40h122v-321q0 -65 13.5 -104t36 -60t51.5 -27.5t60 -6.5q32 0 64 3.5t58.5 19.5t43.5 49t19 93v314h-82v40zM328 712l-49 -116h-41l49 116h41z" />
    <glyph glyph-name="thorn" unicode="&#xfe;" horiz-adv-x="563" 
d="M107 743v-228q11 6 24 13t32 13l12 3q16 5 32 8q28 6 70 6q48 0 89 -12q9 -2 17 -5.5t16 -7.5q23 -11 40 -25q31 -27 49 -74.5t18 -122.5v-78q0 -75 -18 -122.5t-49 -74.5q-10 -8 -20 -15t-21 -12q-8 -4 -16 -6.5t-16 -4.5q-41 -12 -89 -12q-42 0 -70 6q-16 3 -32 8
l-12 3q-19 6 -32 13t-24 13v-228l-40 -13v968zM107 482v-408q26 -21 71 -36.5t99 -15.5q32 0 65.5 9t61 32.5t45 64t17.5 104.5v85q0 64 -16.5 103.5t-43.5 61.5t-61 29.5t-68 7.5q-37 0 -63 -3.5t-45 -9t-33.5 -12t-28.5 -12.5z" />
    <glyph glyph-name="ydieresis" unicode="&#xff;" horiz-adv-x="536" 
d="M401 551h122v-518q0 -77 -17 -125.5t-46.5 -76t-70 -37.5t-88.5 -10q-30 0 -58.5 4t-53.5 14t-45.5 27t-35.5 43l31 29q13 -26 32 -41t40.5 -23t45 -10.5t45.5 -2.5q31 0 63.5 6t58.5 26t42.5 58t16.5 102v55q-29 -44 -76.5 -61t-105.5 -17q-46 0 -83.5 10t-63.5 37
t-40.5 75.5t-14.5 125.5v270h-84v40h122v-321q0 -65 13.5 -104t36 -60t51.5 -27.5t60 -6.5q32 0 64 3.5t58.5 19.5t43.5 49t19 93v314h-82v40zM128 688q0 17 11.5 28.5t28.5 11.5t28.5 -11.5t11.5 -28.5t-11.5 -28.5t-28.5 -11.5t-28.5 11.5t-11.5 28.5zM358 688
q0 17 11.5 28.5t28.5 11.5t28.5 -11.5t11.5 -28.5t-11.5 -28.5t-28.5 -11.5t-28.5 11.5t-11.5 28.5z" />
    <glyph glyph-name="Amacron" unicode="&#x100;" horiz-adv-x="740" 
d="M228 710h181v-9l223 -661h90v-40h-123l-74 222h-312l-73 -222h-123v40h90l212 630h-91v40zM226 263h286l-134 407h-17zM171 869h364v-36h-364v36z" />
    <glyph glyph-name="amacron" unicode="&#x101;" horiz-adv-x="544" 
d="M90 459v72q20 4 45.5 8t51.5 7.5t50 5.5t42 2q61 0 96 -18.5t52 -49.5t21 -71t4 -82v-242q0 -39 4.5 -49t13.5 -10t17.5 1.5t30.5 9.5l11 -29q-14 -5 -22.5 -8.5t-14 -5t-11 -2t-13.5 -0.5q-20 0 -30.5 4.5t-16 14t-7 23.5t-2.5 32h-5q-2 -4 -5 -7t-5 -6
q-11 -17 -23 -29.5t-30 -20.5t-44 -12.5t-65 -4.5q-54 0 -89.5 12.5t-57 34t-30 50t-8.5 61.5v29q0 31 11 59t37 48t69.5 32t108.5 12h136q0 47 -4.5 82t-18.5 57.5t-39 33.5t-66 11q-42 0 -80.5 -6t-73.5 -11v-38h-40zM90 149q0 -63 36 -90t111 -27q31 0 62.5 3t56.5 19
t40.5 49.5t15.5 93.5v93h-139q-102 0 -142.5 -29.5t-40.5 -83.5v-28zM90 710h364v-36h-364v36z" />
    <glyph glyph-name="Abreve" unicode="&#x102;" horiz-adv-x="740" 
d="M228 710h181v-9l223 -661h90v-40h-123l-74 222h-312l-73 -222h-123v40h90l212 630h-91v40zM226 263h286l-134 407h-17zM353 761q-24 0 -46 8.5t-40 23.5t-32 34.5t-23 42.5l35 12q15 -37 42 -60t64 -23q38 0 66 24t43 59l33 -10q-8 -23 -22 -43t-33 -35t-41 -24t-46 -9z
" />
    <glyph glyph-name="abreve" unicode="&#x103;" horiz-adv-x="544" 
d="M90 459v72q20 4 45.5 8t51.5 7.5t50 5.5t42 2q61 0 96 -18.5t52 -49.5t21 -71t4 -82v-242q0 -39 4.5 -49t13.5 -10t17.5 1.5t30.5 9.5l11 -29q-14 -5 -22.5 -8.5t-14 -5t-11 -2t-13.5 -0.5q-20 0 -30.5 4.5t-16 14t-7 23.5t-2.5 32h-5q-2 -4 -5 -7t-5 -6
q-11 -17 -23 -29.5t-30 -20.5t-44 -12.5t-65 -4.5q-54 0 -89.5 12.5t-57 34t-30 50t-8.5 61.5v29q0 31 11 59t37 48t69.5 32t108.5 12h136q0 47 -4.5 82t-18.5 57.5t-39 33.5t-66 11q-42 0 -80.5 -6t-73.5 -11v-38h-40zM90 149q0 -63 36 -90t111 -27q31 0 62.5 3t56.5 19
t40.5 49.5t15.5 93.5v93h-139q-102 0 -142.5 -29.5t-40.5 -83.5v-28zM271 602q-24 0 -46 8.5t-40 23.5t-32 34.5t-23 42.5l35 12q15 -37 42 -60t64 -23q38 0 66 24t43 59l33 -10q-8 -23 -22 -43t-33 -35t-41 -24t-46 -9z" />
    <glyph glyph-name="Aogonek" unicode="&#x104;" horiz-adv-x="740" 
d="M228 710h181v-9l223 -661h90v-40h-123l-74 222h-312l-73 -222h-123v40h90l212 630h-91v40zM226 263h286l-134 407h-17zM603 -213q-48 0 -72 23.5t-24 61.5q0 22 6 46t19 45.5t32 39t45 26.5l39 -9q-29 -9 -49 -25.5t-32.5 -36t-18 -40.5t-5.5 -40q0 -26 16 -42.5
t47 -16.5q23 0 46.5 6.5t38.5 14.5l-2 -29q-10 -8 -35 -16t-51 -8z" />
    <glyph glyph-name="aogonek" unicode="&#x105;" horiz-adv-x="544" 
d="M90 459v72q20 4 45.5 8t51.5 7.5t50 5.5t42 2q61 0 96 -18.5t52 -49.5t21 -71t4 -82v-242q0 -39 4.5 -49t13.5 -10t17.5 1.5t30.5 9.5l11 -29q-14 -5 -22.5 -8.5t-14 -5t-11 -2t-13.5 -0.5q-20 0 -30.5 4.5t-16 14t-7 23.5t-2.5 32h-5q-2 -4 -5 -7t-5 -6
q-11 -17 -23 -29.5t-30 -20.5t-44 -12.5t-65 -4.5q-54 0 -89.5 12.5t-57 34t-30 50t-8.5 61.5v29q0 31 11 59t37 48t69.5 32t108.5 12h136q0 47 -4.5 82t-18.5 57.5t-39 33.5t-66 11q-42 0 -80.5 -6t-73.5 -11v-38h-40zM90 149q0 -63 36 -90t111 -27q31 0 62.5 3t56.5 19
t40.5 49.5t15.5 93.5v93h-139q-102 0 -142.5 -29.5t-40.5 -83.5v-28zM441 -213q-48 0 -72 23.5t-24 61.5q0 22 6 46t19 45.5t32 39t45 26.5l39 -9q-29 -9 -49 -25.5t-32.5 -36t-18 -40.5t-5.5 -40q0 -26 16 -42.5t47 -16.5q23 0 46.5 6.5t38.5 14.5l-2 -29q-10 -8 -35 -16
t-51 -8z" />
    <glyph glyph-name="Cacute" unicode="&#x106;" 
d="M559 683v-139h-40v110q-22 7 -46 12.5t-47.5 9t-44 5t-35.5 1.5q-45 0 -89 -7.5t-79 -35t-56.5 -82t-21.5 -148.5v-108q0 -84 18 -137t49.5 -83t74 -41.5t92.5 -11.5q40 0 75.5 6t65.5 14.5t54.5 17.5t43.5 16l16 -38q-20 -7 -45 -16.5t-56.5 -18t-69.5 -14.5t-84 -6
q-57 0 -107 12.5t-87.5 47t-59 95.5t-21.5 157v95q0 91 17.5 153t53 100.5t89.5 55.5t127 17q33 0 84 -7.5t129 -31.5zM405 871l-49 -116h-41l49 116h41z" />
    <glyph glyph-name="cacute" unicode="&#x107;" horiz-adv-x="539" 
d="M304 522q-32 0 -65.5 -7.5t-61.5 -29t-45.5 -60.5t-17.5 -103v-95q0 -65 16.5 -104.5t42.5 -61.5t59 -29t65 -7q63 0 104.5 10.5t71.5 21.5l15 -37q-29 -11 -74.5 -21t-117.5 -10q-47 0 -87.5 10t-70.5 37t-47 74.5t-17 122.5v76q0 77 18 125.5t49.5 76t73 37.5t89.5 10
q15 0 30 -0.5t33 -3t40.5 -7.5t52.5 -14l-1 -3v-110h-35v84q-32 10 -65.5 14t-54.5 4zM372 712l-49 -116h-41l49 116h41z" />
    <glyph glyph-name="Ccircumflex" unicode="&#x108;" 
d="M559 683v-139h-40v110q-22 7 -46 12.5t-47.5 9t-44 5t-35.5 1.5q-45 0 -89 -7.5t-79 -35t-56.5 -82t-21.5 -148.5v-108q0 -84 18 -137t49.5 -83t74 -41.5t92.5 -11.5q40 0 75.5 6t65.5 14.5t54.5 17.5t43.5 16l16 -38q-20 -7 -45 -16.5t-56.5 -18t-69.5 -14.5t-84 -6
q-57 0 -107 12.5t-87.5 47t-59 95.5t-21.5 157v95q0 91 17.5 153t53 100.5t89.5 55.5t127 17q33 0 84 -7.5t129 -31.5zM489 763h-48l-95 107l-96 -107h-48l126 136h33z" />
    <glyph glyph-name="ccircumflex" unicode="&#x109;" horiz-adv-x="539" 
d="M304 522q-32 0 -65.5 -7.5t-61.5 -29t-45.5 -60.5t-17.5 -103v-95q0 -65 16.5 -104.5t42.5 -61.5t59 -29t65 -7q63 0 104.5 10.5t71.5 21.5l15 -37q-29 -11 -74.5 -21t-117.5 -10q-47 0 -87.5 10t-70.5 37t-47 74.5t-17 122.5v76q0 77 18 125.5t49.5 76t73 37.5t89.5 10
q15 0 30 -0.5t33 -3t40.5 -7.5t52.5 -14l-1 -3v-110h-35v84q-32 10 -65.5 14t-54.5 4zM433 604h-48l-95 107l-96 -107h-48l126 136h33z" />
    <glyph glyph-name="Cdotaccent" unicode="&#x10a;" 
d="M559 683v-139h-40v110q-22 7 -46 12.5t-47.5 9t-44 5t-35.5 1.5q-45 0 -89 -7.5t-79 -35t-56.5 -82t-21.5 -148.5v-108q0 -84 18 -137t49.5 -83t74 -41.5t92.5 -11.5q40 0 75.5 6t65.5 14.5t54.5 17.5t43.5 16l16 -38q-20 -7 -45 -16.5t-56.5 -18t-69.5 -14.5t-84 -6
q-57 0 -107 12.5t-87.5 47t-59 95.5t-21.5 157v95q0 91 17.5 153t53 100.5t89.5 55.5t127 17q33 0 84 -7.5t129 -31.5zM297 840q0 17 11.5 28.5t28.5 11.5t28.5 -11.5t11.5 -28.5t-11.5 -28.5t-28.5 -11.5t-28.5 11.5t-11.5 28.5z" />
    <glyph glyph-name="cdotaccent" unicode="&#x10b;" horiz-adv-x="539" 
d="M304 522q-32 0 -65.5 -7.5t-61.5 -29t-45.5 -60.5t-17.5 -103v-95q0 -65 16.5 -104.5t42.5 -61.5t59 -29t65 -7q63 0 104.5 10.5t71.5 21.5l15 -37q-29 -11 -74.5 -21t-117.5 -10q-47 0 -87.5 10t-70.5 37t-47 74.5t-17 122.5v76q0 77 18 125.5t49.5 76t73 37.5t89.5 10
q15 0 30 -0.5t33 -3t40.5 -7.5t52.5 -14l-1 -3v-110h-35v84q-32 10 -65.5 14t-54.5 4zM259 681q0 17 11.5 28.5t28.5 11.5t28.5 -11.5t11.5 -28.5t-11.5 -28.5t-28.5 -11.5t-28.5 11.5t-11.5 28.5z" />
    <glyph glyph-name="Ccaron" unicode="&#x10c;" 
d="M559 683v-139h-40v110q-22 7 -46 12.5t-47.5 9t-44 5t-35.5 1.5q-45 0 -89 -7.5t-79 -35t-56.5 -82t-21.5 -148.5v-108q0 -84 18 -137t49.5 -83t74 -41.5t92.5 -11.5q40 0 75.5 6t65.5 14.5t54.5 17.5t43.5 16l16 -38q-20 -7 -45 -16.5t-56.5 -18t-69.5 -14.5t-84 -6
q-57 0 -107 12.5t-87.5 47t-59 95.5t-21.5 157v95q0 91 17.5 153t53 100.5t89.5 55.5t127 17q33 0 84 -7.5t129 -31.5zM353 763h-33l-126 136h48l96 -107l95 107h48z" />
    <glyph glyph-name="ccaron" unicode="&#x10d;" horiz-adv-x="539" 
d="M304 522q-32 0 -65.5 -7.5t-61.5 -29t-45.5 -60.5t-17.5 -103v-95q0 -65 16.5 -104.5t42.5 -61.5t59 -29t65 -7q63 0 104.5 10.5t71.5 21.5l15 -37q-29 -11 -74.5 -21t-117.5 -10q-47 0 -87.5 10t-70.5 37t-47 74.5t-17 122.5v76q0 77 18 125.5t49.5 76t73 37.5t89.5 10
q15 0 30 -0.5t33 -3t40.5 -7.5t52.5 -14l-1 -3v-110h-35v84q-32 10 -65.5 14t-54.5 4zM327 604h-33l-126 136h48l96 -107l95 107h48z" />
    <glyph glyph-name="Dcaron" unicode="&#x10e;" horiz-adv-x="710" 
d="M59 670v40h296q72 0 127 -11t92.5 -44t57 -95t19.5 -164v-95q0 -96 -23.5 -155.5t-63.5 -91.5t-93.5 -43t-113.5 -11h-299v40h92v630h-91zM190 670v-630h167q49 0 95 10t81 38.5t56.5 80t21.5 135.5v112q0 94 -24.5 145.5t-61.5 75.5t-81 28.5t-83 4.5h-171zM370 763h-33
l-126 136h48l96 -107l95 107h48z" />
    <glyph glyph-name="dcaron" unicode="&#x10f;" horiz-adv-x="676" 
d="M369 771h143v-693q0 -17 3 -26.5t7 -14t9 -5.5t9 -1q9 0 23 1.5t36 9.5l12 -30q-29 -10 -46 -14.5t-34 -4.5q-37 0 -52 39q-12 -6 -25 -13.5t-32.5 -14t-48 -11t-71.5 -4.5q-47 0 -88.5 10t-72.5 37t-49 74.5t-18 122.5v66q0 77 18 127t49 79.5t72.5 41t89.5 11.5
q40 0 67.5 -5t46.5 -13.5t31.5 -18t23.5 -18.5v231h-103v37zM472 61v409q-26 22 -71.5 37t-97.5 15q-32 0 -65.5 -9t-61 -32.5t-45 -64t-17.5 -104.5v-85q0 -64 16.5 -103.5t43.5 -61.5t60.5 -29.5t68.5 -7.5q36 0 62 3.5t45.5 9t34 11.5t27.5 12zM574 741q0 17 11.5 28.5
t28.5 11.5q19 0 31 -15q10 -11 10 -32q0 -20 -3 -39.5t-11.5 -38t-24.5 -35.5t-42 -31l-13 17q18 15 28.5 27.5t15.5 23.5t6.5 21.5t1.5 21.5q-17 1 -28 12t-11 28z" />
    <glyph glyph-name="Dcroat" unicode="&#x110;" horiz-adv-x="710" 
d="M59 670v40h296q72 0 127 -11t92.5 -44t57 -95t19.5 -164v-95q0 -96 -23.5 -155.5t-63.5 -91.5t-93.5 -43t-113.5 -11h-299v40h92v630h-91zM190 670v-630h167q49 0 95 10t81 38.5t56.5 80t21.5 135.5v112q0 94 -24.5 145.5t-61.5 75.5t-81 28.5t-83 4.5h-171zM173 869h364
v-36h-364v36z" />
    <glyph glyph-name="dcroat" unicode="&#x111;" horiz-adv-x="630" 
d="M369 771h143v-693q0 -17 3 -26.5t7 -14t9 -5.5t9 -1q9 0 23 1.5t36 9.5l12 -30q-29 -10 -46 -14.5t-34 -4.5q-37 0 -52 39q-12 -6 -25 -13.5t-32.5 -14t-48 -11t-71.5 -4.5q-47 0 -88.5 10t-72.5 37t-49 74.5t-18 122.5v66q0 77 18 127t49 79.5t72.5 41t89.5 11.5
q40 0 67.5 -5t46.5 -13.5t31.5 -18t23.5 -18.5v231h-103v37zM472 61v409q-26 22 -71.5 37t-97.5 15q-32 0 -65.5 -9t-61 -32.5t-45 -64t-17.5 -104.5v-85q0 -64 16.5 -103.5t43.5 -61.5t60.5 -29.5t68.5 -7.5q36 0 62 3.5t45.5 9t34 11.5t27.5 12zM296 288v-40h-288v40h288z
" />
    <glyph glyph-name="Emacron" unicode="&#x112;" 
d="M566 710v-143h-40v103h-336v-286h272v-40h-272v-304h356v103h40v-143h-527v40h91v630h-91v40h507zM135 869h364v-36h-364v36z" />
    <glyph glyph-name="emacron" unicode="&#x113;" horiz-adv-x="572" 
d="M66 309q0 77 18 125.5t49.5 76t73 37.5t89.5 10q46 0 86 -11.5t69 -37.5t45.5 -67.5t16.5 -100.5q0 -18 -1 -38.5t-3 -30.5h-403v-45q0 -65 16.5 -103.5t42.5 -59t59 -27t65 -6.5q63 0 104.5 7.5t71.5 18.5l15 -37q-29 -11 -74.5 -21t-117.5 -10q-47 0 -87.5 10t-70.5 37
t-47 74.5t-17 122.5v76zM106 312h367v40q0 45 -16 76.5t-41.5 51.5t-57 29t-62.5 9q-32 0 -65.5 -5.5t-61.5 -26t-45.5 -61.5t-17.5 -113zM104 710h364v-36h-364v36z" />
    <glyph glyph-name="Ebreve" unicode="&#x114;" 
d="M566 710v-143h-40v103h-336v-286h272v-40h-272v-304h356v103h40v-143h-527v40h91v630h-91v40h507zM317 761q-24 0 -46 8.5t-40 23.5t-32 34.5t-23 42.5l35 12q15 -37 42 -60t64 -23q38 0 66 24t43 59l33 -10q-8 -23 -22 -43t-33 -35t-41 -24t-46 -9z" />
    <glyph glyph-name="ebreve" unicode="&#x115;" horiz-adv-x="572" 
d="M66 309q0 77 18 125.5t49.5 76t73 37.5t89.5 10q46 0 86 -11.5t69 -37.5t45.5 -67.5t16.5 -100.5q0 -18 -1 -38.5t-3 -30.5h-403v-45q0 -65 16.5 -103.5t42.5 -59t59 -27t65 -6.5q63 0 104.5 7.5t71.5 18.5l15 -37q-29 -11 -74.5 -21t-117.5 -10q-47 0 -87.5 10t-70.5 37
t-47 74.5t-17 122.5v76zM106 312h367v40q0 45 -16 76.5t-41.5 51.5t-57 29t-62.5 9q-32 0 -65.5 -5.5t-61.5 -26t-45.5 -61.5t-17.5 -113zM285 602q-24 0 -46 8.5t-40 23.5t-32 34.5t-23 42.5l35 12q15 -37 42 -60t64 -23q38 0 66 24t43 59l33 -10q-8 -23 -22 -43t-33 -35
t-41 -24t-46 -9z" />
    <glyph glyph-name="Edotaccent" unicode="&#x116;" 
d="M566 710v-143h-40v103h-336v-286h272v-40h-272v-304h356v103h40v-143h-527v40h91v630h-91v40h507zM277 840q0 17 11.5 28.5t28.5 11.5t28.5 -11.5t11.5 -28.5t-11.5 -28.5t-28.5 -11.5t-28.5 11.5t-11.5 28.5z" />
    <glyph glyph-name="edotaccent" unicode="&#x117;" horiz-adv-x="572" 
d="M66 309q0 77 18 125.5t49.5 76t73 37.5t89.5 10q46 0 86 -11.5t69 -37.5t45.5 -67.5t16.5 -100.5q0 -18 -1 -38.5t-3 -30.5h-403v-45q0 -65 16.5 -103.5t42.5 -59t59 -27t65 -6.5q63 0 104.5 7.5t71.5 18.5l15 -37q-29 -11 -74.5 -21t-117.5 -10q-47 0 -87.5 10t-70.5 37
t-47 74.5t-17 122.5v76zM106 312h367v40q0 45 -16 76.5t-41.5 51.5t-57 29t-62.5 9q-32 0 -65.5 -5.5t-61.5 -26t-45.5 -61.5t-17.5 -113zM246 681q0 17 11.5 28.5t28.5 11.5t28.5 -11.5t11.5 -28.5t-11.5 -28.5t-28.5 -11.5t-28.5 11.5t-11.5 28.5z" />
    <glyph glyph-name="Eogonek" unicode="&#x118;" 
d="M566 710v-143h-40v103h-336v-286h272v-40h-272v-304h356v103h40v-143h-527v40h91v630h-91v40h507zM347 -213q-48 0 -72 23.5t-24 61.5q0 22 6 46t19 45.5t32 39t45 26.5l39 -9q-29 -9 -49 -25.5t-32.5 -36t-18 -40.5t-5.5 -40q0 -26 16 -42.5t47 -16.5q23 0 46.5 6.5
t38.5 14.5l-2 -29q-10 -8 -35 -16t-51 -8z" />
    <glyph glyph-name="eogonek" unicode="&#x119;" horiz-adv-x="572" 
d="M66 309q0 77 18 125.5t49.5 76t73 37.5t89.5 10q46 0 86 -11.5t69 -37.5t45.5 -67.5t16.5 -100.5q0 -18 -1 -38.5t-3 -30.5h-403v-45q0 -65 16.5 -103.5t42.5 -59t59 -27t65 -6.5q63 0 104.5 7.5t71.5 18.5l15 -37q-29 -11 -74.5 -21t-117.5 -10q-47 0 -87.5 10t-70.5 37
t-47 74.5t-17 122.5v76zM106 312h367v40q0 45 -16 76.5t-41.5 51.5t-57 29t-62.5 9q-32 0 -65.5 -5.5t-61.5 -26t-45.5 -61.5t-17.5 -113zM297 -213q-48 0 -72 23.5t-24 61.5q0 22 6 46t19 45.5t32 39t45 26.5l39 -9q-29 -9 -49 -25.5t-32.5 -36t-18 -40.5t-5.5 -40
q0 -26 16 -42.5t47 -16.5q23 0 46.5 6.5t38.5 14.5l-2 -29q-10 -8 -35 -16t-51 -8z" />
    <glyph glyph-name="Ecaron" unicode="&#x11a;" 
d="M566 710v-143h-40v103h-336v-286h272v-40h-272v-304h356v103h40v-143h-527v40h91v630h-91v40h507zM333 763h-33l-126 136h48l96 -107l95 107h48z" />
    <glyph glyph-name="ecaron" unicode="&#x11b;" horiz-adv-x="572" 
d="M66 309q0 77 18 125.5t49.5 76t73 37.5t89.5 10q46 0 86 -11.5t69 -37.5t45.5 -67.5t16.5 -100.5q0 -18 -1 -38.5t-3 -30.5h-403v-45q0 -65 16.5 -103.5t42.5 -59t59 -27t65 -6.5q63 0 104.5 7.5t71.5 18.5l15 -37q-29 -11 -74.5 -21t-117.5 -10q-47 0 -87.5 10t-70.5 37
t-47 74.5t-17 122.5v76zM106 312h367v40q0 45 -16 76.5t-41.5 51.5t-57 29t-62.5 9q-32 0 -65.5 -5.5t-61.5 -26t-45.5 -61.5t-17.5 -113zM301 604h-33l-126 136h48l96 -107l95 107h48z" />
    <glyph glyph-name="Gcircumflex" unicode="&#x11c;" horiz-adv-x="629" 
d="M557 683v-139h-38v110q-22 7 -46 12.5t-47 9.5t-43.5 6t-35.5 2q-45 0 -89 -7.5t-79 -35.5t-57 -83t-22 -149v-108q0 -84 18 -137t49.5 -83t74 -41.5t92.5 -11.5q67 0 119 14.5t90 28.5q-6 34 -6 88v90h-103v35h143v-146q0 -65 11 -104q2 -11 4.5 -21t6.5 -18l-23 -8
q-3 2 -8 9q-4 5 -8.5 13.5t-8.5 22.5q-37 -14 -89.5 -28t-127.5 -15q-57 0 -107.5 12.5t-87.5 47t-58.5 95.5t-21.5 157v95q0 91 17.5 153t53 100.5t89.5 55.5t127 17q33 0 83 -7.5t128 -31.5zM458 763h-48l-95 107l-96 -107h-48l126 136h33z" />
    <glyph glyph-name="gcircumflex" unicode="&#x11d;" horiz-adv-x="601" 
d="M103 -100q13 -26 31.5 -41t39.5 -23t44 -10t45 -2q31 0 63.5 6t58.5 26t42.5 58t16.5 102v10q-11 -6 -24 -12.5t-32 -12t-45.5 -9t-64.5 -3.5q-47 0 -88.5 10t-72.5 37t-49 74.5t-18 122.5v66q0 77 18 127t49 79.5t72.5 41t89.5 11.5q40 0 67.5 -5t46.5 -13t31.5 -18
t22.5 -19q6 26 21 38.5t35 12.5q17 0 34 -4.5t46 -14.5l-13 -30q-22 8 -35.5 10t-22.5 2q-8 0 -18 -11t-10 -46v-427q0 -77 -17 -125.5t-46.5 -76t-70 -37.5t-88.5 -10q-30 0 -58 4t-52.5 14t-44.5 27.5t-35 43.5zM444 469q-27 22 -70.5 35.5t-94.5 13.5q-32 0 -65.5 -8.5
t-61 -31t-45 -62.5t-17.5 -104v-85q0 -64 17 -102.5t44.5 -59.5t61 -27.5t66.5 -6.5q34 0 59.5 2.5t44.5 6t33.5 9t27.5 11.5v409zM432 604h-48l-95 107l-96 -107h-48l126 136h33z" />
    <glyph glyph-name="Gbreve" unicode="&#x11e;" horiz-adv-x="629" 
d="M557 683v-139h-38v110q-22 7 -46 12.5t-47 9.5t-43.5 6t-35.5 2q-45 0 -89 -7.5t-79 -35.5t-57 -83t-22 -149v-108q0 -84 18 -137t49.5 -83t74 -41.5t92.5 -11.5q67 0 119 14.5t90 28.5q-6 34 -6 88v90h-103v35h143v-146q0 -65 11 -104q2 -11 4.5 -21t6.5 -18l-23 -8
q-3 2 -8 9q-4 5 -8.5 13.5t-8.5 22.5q-37 -14 -89.5 -28t-127.5 -15q-57 0 -107.5 12.5t-87.5 47t-58.5 95.5t-21.5 157v95q0 91 17.5 153t53 100.5t89.5 55.5t127 17q33 0 83 -7.5t128 -31.5zM314 761q-24 0 -46 8.5t-40 23.5t-32 34.5t-23 42.5l35 12q15 -37 42 -60
t64 -23q38 0 66 24t43 59l33 -10q-8 -23 -22 -43t-33 -35t-41 -24t-46 -9z" />
    <glyph glyph-name="gbreve" unicode="&#x11f;" horiz-adv-x="601" 
d="M103 -100q13 -26 31.5 -41t39.5 -23t44 -10t45 -2q31 0 63.5 6t58.5 26t42.5 58t16.5 102v10q-11 -6 -24 -12.5t-32 -12t-45.5 -9t-64.5 -3.5q-47 0 -88.5 10t-72.5 37t-49 74.5t-18 122.5v66q0 77 18 127t49 79.5t72.5 41t89.5 11.5q40 0 67.5 -5t46.5 -13t31.5 -18
t22.5 -19q6 26 21 38.5t35 12.5q17 0 34 -4.5t46 -14.5l-13 -30q-22 8 -35.5 10t-22.5 2q-8 0 -18 -11t-10 -46v-427q0 -77 -17 -125.5t-46.5 -76t-70 -37.5t-88.5 -10q-30 0 -58 4t-52.5 14t-44.5 27.5t-35 43.5zM444 469q-27 22 -70.5 35.5t-94.5 13.5q-32 0 -65.5 -8.5
t-61 -31t-45 -62.5t-17.5 -104v-85q0 -64 17 -102.5t44.5 -59.5t61 -27.5t66.5 -6.5q34 0 59.5 2.5t44.5 6t33.5 9t27.5 11.5v409zM288 602q-24 0 -46 8.5t-40 23.5t-32 34.5t-23 42.5l35 12q15 -37 42 -60t64 -23q38 0 66 24t43 59l33 -10q-8 -23 -22 -43t-33 -35t-41 -24
t-46 -9z" />
    <glyph glyph-name="Gdotaccent" unicode="&#x120;" horiz-adv-x="629" 
d="M557 683v-139h-38v110q-22 7 -46 12.5t-47 9.5t-43.5 6t-35.5 2q-45 0 -89 -7.5t-79 -35.5t-57 -83t-22 -149v-108q0 -84 18 -137t49.5 -83t74 -41.5t92.5 -11.5q67 0 119 14.5t90 28.5q-6 34 -6 88v90h-103v35h143v-146q0 -65 11 -104q2 -11 4.5 -21t6.5 -18l-23 -8
q-3 2 -8 9q-4 5 -8.5 13.5t-8.5 22.5q-37 -14 -89.5 -28t-127.5 -15q-57 0 -107.5 12.5t-87.5 47t-58.5 95.5t-21.5 157v95q0 91 17.5 153t53 100.5t89.5 55.5t127 17q33 0 83 -7.5t128 -31.5zM274 840q0 17 11.5 28.5t28.5 11.5t28.5 -11.5t11.5 -28.5t-11.5 -28.5
t-28.5 -11.5t-28.5 11.5t-11.5 28.5z" />
    <glyph glyph-name="gdotaccent" unicode="&#x121;" horiz-adv-x="601" 
d="M103 -100q13 -26 31.5 -41t39.5 -23t44 -10t45 -2q31 0 63.5 6t58.5 26t42.5 58t16.5 102v10q-11 -6 -24 -12.5t-32 -12t-45.5 -9t-64.5 -3.5q-47 0 -88.5 10t-72.5 37t-49 74.5t-18 122.5v66q0 77 18 127t49 79.5t72.5 41t89.5 11.5q40 0 67.5 -5t46.5 -13t31.5 -18
t22.5 -19q6 26 21 38.5t35 12.5q17 0 34 -4.5t46 -14.5l-13 -30q-22 8 -35.5 10t-22.5 2q-8 0 -18 -11t-10 -46v-427q0 -77 -17 -125.5t-46.5 -76t-70 -37.5t-88.5 -10q-30 0 -58 4t-52.5 14t-44.5 27.5t-35 43.5zM444 469q-27 22 -70.5 35.5t-94.5 13.5q-32 0 -65.5 -8.5
t-61 -31t-45 -62.5t-17.5 -104v-85q0 -64 17 -102.5t44.5 -59.5t61 -27.5t66.5 -6.5q34 0 59.5 2.5t44.5 6t33.5 9t27.5 11.5v409zM248 681q0 17 11.5 28.5t28.5 11.5t28.5 -11.5t11.5 -28.5t-11.5 -28.5t-28.5 -11.5t-28.5 11.5t-11.5 28.5z" />
    <glyph glyph-name="Gcommaaccent" unicode="&#x122;" horiz-adv-x="629" 
d="M557 683v-139h-38v110q-22 7 -46 12.5t-47 9.5t-43.5 6t-35.5 2q-45 0 -89 -7.5t-79 -35.5t-57 -83t-22 -149v-108q0 -84 18 -137t49.5 -83t74 -41.5t92.5 -11.5q67 0 119 14.5t90 28.5q-6 34 -6 88v90h-103v35h143v-146q0 -65 11 -104q2 -11 4.5 -21t6.5 -18l-23 -8
q-3 2 -8 9q-4 5 -8.5 13.5t-8.5 22.5q-37 -14 -89.5 -28t-127.5 -15q-57 0 -107.5 12.5t-87.5 47t-58.5 95.5t-21.5 157v95q0 91 17.5 153t53 100.5t89.5 55.5t127 17q33 0 83 -7.5t128 -31.5zM280 -129q0 17 11.5 28.5t28.5 11.5q19 0 31 -15q10 -11 10 -32q0 -20 -3 -39.5
t-11.5 -38t-24.5 -35.5t-42 -31l-13 17q18 15 28.5 27.5t15.5 23.5t6.5 21.5t1.5 21.5q-17 1 -28 12t-11 28z" />
    <glyph glyph-name="gcommaaccent" unicode="&#x123;" horiz-adv-x="601" 
d="M103 -100q13 -26 31.5 -41t39.5 -23t44 -10t45 -2q31 0 63.5 6t58.5 26t42.5 58t16.5 102v10q-11 -6 -24 -12.5t-32 -12t-45.5 -9t-64.5 -3.5q-47 0 -88.5 10t-72.5 37t-49 74.5t-18 122.5v66q0 77 18 127t49 79.5t72.5 41t89.5 11.5q40 0 67.5 -5t46.5 -13t31.5 -18
t22.5 -19q6 26 21 38.5t35 12.5q17 0 34 -4.5t46 -14.5l-13 -30q-22 8 -35.5 10t-22.5 2q-8 0 -18 -11t-10 -46v-427q0 -77 -17 -125.5t-46.5 -76t-70 -37.5t-88.5 -10q-30 0 -58 4t-52.5 14t-44.5 27.5t-35 43.5zM444 469q-27 22 -70.5 35.5t-94.5 13.5q-32 0 -65.5 -8.5
t-61 -31t-45 -62.5t-17.5 -104v-85q0 -64 17 -102.5t44.5 -59.5t61 -27.5t66.5 -6.5q34 0 59.5 2.5t44.5 6t33.5 9t27.5 11.5v409zM322 719q0 -17 -11.5 -28.5t-28.5 -11.5q-19 0 -31 15q-10 11 -10 32q0 19 3 39t11.5 38.5t24.5 35.5t42 31l13 -17q-18 -15 -28.5 -27.5
t-15.5 -23.5t-6.5 -21.5t-1.5 -21.5q17 -1 28 -12t11 -28z" />
    <glyph glyph-name="Hcircumflex" unicode="&#x124;" horiz-adv-x="799" 
d="M514 670v40h224v-40h-92v-630h92v-40h-224v40h92v306h-416v-306h92v-40h-224v40h92v630h-92v40h224v-40h-92v-285h416v285h-92zM543 763h-48l-95 107l-96 -107h-48l126 136h33z" />
    <glyph glyph-name="hcircumflex" unicode="&#x125;" horiz-adv-x="655" 
d="M613 0l-24.5 -3.5t-20.5 -1.5q-26 0 -47 22.5t-21 64.5v239q0 65 -13 104t-35 60t-51 27.5t-60 6.5t-63.5 -2t-59.5 -16t-45 -45.5t-19 -91.5v-364h-40v730h-103v40h143v-290q29 44 76.5 61t105.5 17q46 0 83.5 -10t64.5 -37t41.5 -75.5t14.5 -125.5v-228q0 -17 4 -26.5
t10 -14t12 -5.5t11 -1h12.5t18.5 2zM467 604h-48l-95 107l-96 -107h-48l126 136h33z" />
    <glyph glyph-name="Hbar" unicode="&#x126;" horiz-adv-x="799" 
d="M514 670v40h224v-40h-92v-630h92v-40h-224v40h92v306h-416v-306h92v-40h-224v40h92v630h-92v40h224v-40h-92v-285h416v285h-92zM217 869h364v-36h-364v36z" />
    <glyph glyph-name="hbar" unicode="&#x127;" horiz-adv-x="655" 
d="M613 0l-24.5 -3.5t-20.5 -1.5q-26 0 -47 22.5t-21 64.5v239q0 65 -13 104t-35 60t-51 27.5t-60 6.5t-63.5 -2t-59.5 -16t-45 -45.5t-19 -91.5v-364h-40v730h-103v40h143v-290q29 44 76.5 61t105.5 17q46 0 83.5 -10t64.5 -37t41.5 -75.5t14.5 -125.5v-228q0 -17 4 -26.5
t10 -14t12 -5.5t11 -1h12.5t18.5 2zM39 664h364v-36h-364v36z" />
    <glyph glyph-name="Itilde" unicode="&#x128;" horiz-adv-x="279" 
d="M120 40v630h-92v40h224v-40h-92v-630h92v-40h-224v40h92zM133 825q-12 5 -23.5 9t-22.5 4t-31.5 -6t-39.5 -25l-14 23q15 16 26.5 25t21 13.5t19 5.5t21.5 1q13 0 28 -5.5t30 -13.5q11 -5 22 -7.5t22 -2.5t31.5 6t39.5 25l14 -23q-15 -16 -26.5 -25t-21 -13.5t-19 -5.5
t-21.5 -1t-26.5 4.5t-29.5 11.5z" />
    <glyph glyph-name="itilde" unicode="&#x129;" horiz-adv-x="318" 
d="M282 40v-40h-223v40h91v471h-103v40h143v-511h92zM153 666q-12 5 -23.5 9t-22.5 4t-31.5 -6t-39.5 -25l-14 23q15 16 26.5 25t21 13.5t19 5.5t21.5 1q13 0 28 -5.5t30 -13.5q11 -5 22 -7.5t22 -2.5t31.5 6t39.5 25l14 -23q-15 -16 -26.5 -25t-21 -13.5t-19 -5.5t-21.5 -1
t-26.5 4.5t-29.5 11.5z" />
    <glyph glyph-name="Imacron" unicode="&#x12a;" horiz-adv-x="279" 
d="M120 40v630h-92v40h224v-40h-92v-630h92v-40h-224v40h92zM-42 869h364v-36h-364v36z" />
    <glyph glyph-name="imacron" unicode="&#x12b;" horiz-adv-x="318" 
d="M282 40v-40h-223v40h91v471h-103v40h143v-511h92zM-23 710h364v-36h-364v36z" />
    <glyph glyph-name="Ibreve" unicode="&#x12c;" horiz-adv-x="279" 
d="M120 40v630h-92v40h224v-40h-92v-630h92v-40h-224v40h92zM139 761q-24 0 -46 8.5t-40 23.5t-32 34.5t-23 42.5l35 12q15 -37 42 -60t64 -23q38 0 66 24t43 59l33 -10q-8 -23 -22 -43t-33 -35t-41 -24t-46 -9z" />
    <glyph glyph-name="ibreve" unicode="&#x12d;" horiz-adv-x="318" 
d="M282 40v-40h-223v40h91v471h-103v40h143v-511h92zM159 602q-24 0 -46 8.5t-40 23.5t-32 34.5t-23 42.5l35 12q15 -37 42 -60t64 -23q38 0 66 24t43 59l33 -10q-8 -23 -22 -43t-33 -35t-41 -24t-46 -9z" />
    <glyph glyph-name="Iogonek" unicode="&#x12e;" horiz-adv-x="279" 
d="M120 40v630h-92v40h224v-40h-92v-630h92v-40h-224v40h92zM164 -213q-48 0 -72 23.5t-24 61.5q0 22 6 46t19 45.5t32 39t45 26.5l39 -9q-29 -9 -49 -25.5t-32.5 -36t-18 -40.5t-5.5 -40q0 -26 16 -42.5t47 -16.5q23 0 46.5 6.5t38.5 14.5l-2 -29q-10 -8 -35 -16t-51 -8z
" />
    <glyph glyph-name="iogonek" unicode="&#x12f;" horiz-adv-x="318" 
d="M117 695q0 17 11.5 28.5t28.5 11.5t28.5 -11.5t11.5 -28.5t-11.5 -28.5t-28.5 -11.5t-28.5 11.5t-11.5 28.5zM282 40v-40h-223v40h91v471h-103v40h143v-511h92zM163 -213q-48 0 -72 23.5t-24 61.5q0 22 6 46t19 45.5t32 39t45 26.5l39 -9q-29 -9 -49 -25.5t-32.5 -36
t-18 -40.5t-5.5 -40q0 -26 16 -42.5t47 -16.5q23 0 46.5 6.5t38.5 14.5l-2 -29q-10 -8 -35 -16t-51 -8z" />
    <glyph glyph-name="Idotaccent" unicode="&#x130;" horiz-adv-x="279" 
d="M120 40v630h-92v40h224v-40h-92v-630h92v-40h-224v40h92zM99 840q0 17 11.5 28.5t28.5 11.5t28.5 -11.5t11.5 -28.5t-11.5 -28.5t-28.5 -11.5t-28.5 11.5t-11.5 28.5z" />
    <glyph glyph-name="dotlessi" unicode="&#x131;" horiz-adv-x="318" 
d="M282 40v-40h-223v40h91v471h-103v40h143v-511h92z" />
    <glyph glyph-name="IJ" unicode="&#x132;" horiz-adv-x="546" 
d="M151 -78q23 -14 49.5 -21t50.5 -7q31 0 63.5 7t58.5 28t42.5 59.5t16.5 102.5v579h-103v40h143v-602q0 -77 -17 -125.5t-46.5 -76t-70 -37.5t-88.5 -10q-31 0 -60.5 9t-54.5 23zM120 40v630h-92v40h224v-40h-92v-630h92v-40h-224v40h92z" />
    <glyph glyph-name="ij" unicode="&#x133;" horiz-adv-x="591" 
d="M117 695q0 17 11.5 28.5t28.5 11.5t28.5 -11.5t11.5 -28.5t-11.5 -28.5t-28.5 -11.5t-28.5 11.5t-11.5 28.5zM282 40v-40h-223v40h91v471h-103v40h143v-511h92zM483 551v-625q0 -57 -6 -89.5t-14 -51.5q-9 -22 -19 -31l-23 8q3 8 6 18t5 21q4 19 7.5 45t3.5 59v606h-103
v40h143zM420 695q0 17 11.5 28.5t28.5 11.5t28.5 -11.5t11.5 -28.5t-11.5 -28.5t-28.5 -11.5t-28.5 11.5t-11.5 28.5z" />
    <glyph glyph-name="Jcircumflex" unicode="&#x134;" horiz-adv-x="454" 
d="M48 52q23 -14 49.5 -21t50.5 -7q31 0 63.5 7t58.5 28t42.5 59.5t16.5 102.5v449h-103v40h143v-472q0 -77 -17 -125.5t-46.5 -76t-70 -37.5t-88.5 -10q-31 0 -60.5 9t-54.5 23zM446 763h-48l-95 107l-96 -107h-48l126 136h33z" />
    <glyph glyph-name="jcircumflex" unicode="&#x135;" horiz-adv-x="273" 
d="M165 551v-625q0 -57 -6 -89.5t-14 -51.5q-9 -22 -19 -31l-23 8q3 8 6 18t5 21q4 19 7.5 45t3.5 59v606h-103v40h143zM280 604h-48l-95 107l-96 -107h-48l126 136h33z" />
    <glyph glyph-name="Kcommaaccent" unicode="&#x136;" horiz-adv-x="754" 
d="M701 710v-40h-92l-278 -350l235 -227q23 -23 44.5 -38.5t38.5 -25.5q10 -5 19 -10t17 -9l-11 -23q-14 -1 -36 8q-18 8 -46.5 27t-67.5 57l-332 321v-255q0 -57 -6 -89.5t-14 -51.5q-9 -22 -19 -31l-23 8q3 8 6 18t5 21q4 19 7.5 45t3.5 59v546h-103v40h143v-254l112 -109
l289 363h108zM343 -129q0 17 11.5 28.5t28.5 11.5q19 0 31 -15q10 -11 10 -32q0 -20 -3 -39.5t-11.5 -38t-24.5 -35.5t-42 -31l-13 17q18 15 28.5 27.5t15.5 23.5t6.5 21.5t1.5 21.5q-17 1 -28 12t-11 28z" />
    <glyph glyph-name="kcommaaccent" unicode="&#x137;" horiz-adv-x="645" 
d="M558 551v-40h-92l-186 -234l191 -184q23 -23 44.5 -38t38.5 -25q10 -5 19 -10.5t17 -9.5l-13 -23q-14 -1 -36 8q-18 8 -46.5 27t-67.5 57l-272 262v-196q0 -57 -6 -89.5t-14 -51.5q-9 -22 -19 -31l-23 8q3 8 6 18t5 21q4 19 7.5 45t3.5 59v606h-103v40h143v-373l97 -94
l198 248h108zM288 -129q0 17 11.5 28.5t28.5 11.5q19 0 31 -15q10 -11 10 -32q0 -20 -3 -39.5t-11.5 -38t-24.5 -35.5t-42 -31l-13 17q18 15 28.5 27.5t15.5 23.5t6.5 21.5t1.5 21.5q-17 1 -28 12t-11 28z" />
    <glyph glyph-name="kgreenlandic" unicode="&#x138;" horiz-adv-x="644" 
d="M558 551v-40h-92l-185 -236l193 -182q23 -23 43 -37.5t37 -24.5q10 -5 18.5 -11t16.5 -10l-12 -23q-14 -1 -36 8q-18 8 -46.5 27t-67.5 57l-272 262v-196q0 -57 -6 -89.5t-14 -51.5q-9 -22 -19 -31l-23 8q3 8 6 18t5 21q4 19 7.5 45t3.5 59v387h-103v40h143v-154l97 -94
l198 248h108z" />
    <glyph glyph-name="Lacute" unicode="&#x139;" horiz-adv-x="606" 
d="M576 143v-143h-518v40h92v630h-92v40h224v-40h-92v-630h346v103h40zM249 871l-49 -116h-41l49 116h41z" />
    <glyph glyph-name="lacute" unicode="&#x13a;" horiz-adv-x="261" 
d="M150 124q0 -65 11 -104q2 -11 4.5 -21t6.5 -18l-23 -8q-12 10 -20 31q-8 19 -13.5 51.5t-5.5 89.5v585h-103v40h143v-646zM191 939l-49 -116h-41l49 116h41z" />
    <glyph glyph-name="Lcommaaccent" unicode="&#x13b;" horiz-adv-x="606" 
d="M576 143v-143h-518v40h92v630h-92v40h224v-40h-92v-630h346v103h40zM269 -129q0 17 11.5 28.5t28.5 11.5q19 0 31 -15q10 -11 10 -32q0 -20 -3 -39.5t-11.5 -38t-24.5 -35.5t-42 -31l-13 17q18 15 28.5 27.5t15.5 23.5t6.5 21.5t1.5 21.5q-17 1 -28 12t-11 28z" />
    <glyph glyph-name="lcommaaccent" unicode="&#x13c;" horiz-adv-x="261" 
d="M150 124q0 -65 11 -104q2 -11 4.5 -21t6.5 -18l-23 -8q-12 10 -20 31q-8 19 -13.5 51.5t-5.5 89.5v585h-103v40h143v-646zM96 -129q0 17 11.5 28.5t28.5 11.5q19 0 31 -15q10 -11 10 -32q0 -20 -3 -39.5t-11.5 -38t-24.5 -35.5t-42 -31l-13 17q18 15 28.5 27.5t15.5 23.5
t6.5 21.5t1.5 21.5q-17 1 -28 12t-11 28z" />
    <glyph glyph-name="Lcaron" unicode="&#x13d;" horiz-adv-x="606" 
d="M576 143v-143h-518v40h92v630h-92v40h224v-40h-92v-630h346v103h40zM333 672q0 17 11.5 28.5t28.5 11.5q19 0 31 -15q10 -11 10 -32q0 -20 -3 -39.5t-11.5 -38t-24.5 -35.5t-42 -31l-13 17q18 15 28.5 27.5t15.5 23.5t6.5 21.5t1.5 21.5q-17 1 -28 12t-11 28z" />
    <glyph glyph-name="lcaron" unicode="&#x13e;" horiz-adv-x="341" 
d="M150 124q0 -65 11 -104q2 -11 4.5 -21t6.5 -18l-23 -8q-12 10 -20 31q-8 19 -13.5 51.5t-5.5 89.5v585h-103v40h143v-646zM220 729q0 17 11.5 28.5t28.5 11.5q19 0 31 -15q10 -11 10 -32q0 -20 -3 -39.5t-11.5 -38t-24.5 -35.5t-42 -31l-13 17q18 15 28.5 27.5t15.5 23.5
t6.5 21.5t1.5 21.5q-17 1 -28 12t-11 28z" />
    <glyph glyph-name="Ldot" unicode="&#x13f;" horiz-adv-x="606" 
d="M576 143v-143h-518v40h92v630h-92v40h224v-40h-92v-630h346v103h40zM467 198q-33 0 -56 23t-23 58q0 34 23 57.5t56 23.5t55.5 -23.5t22.5 -57.5q0 -35 -22.5 -58t-55.5 -23z" />
    <glyph glyph-name="ldot" unicode="&#x140;" horiz-adv-x="408" 
d="M150 124q0 -65 11 -104q2 -11 4.5 -21t6.5 -18l-23 -8q-12 10 -20 31q-8 19 -13.5 51.5t-5.5 89.5v585h-103v40h143v-646zM316 194q-33 0 -56 23t-23 58q0 34 23 57.5t56 23.5t55.5 -23.5t22.5 -57.5q0 -35 -22.5 -58t-55.5 -23z" />
    <glyph glyph-name="Lslash" unicode="&#x141;" horiz-adv-x="606" 
d="M355 442l16 -36l-337 -147l-16 36zM576 143v-143h-518v40h92v630h-92v40h224v-40h-92v-630h346v103h40z" />
    <glyph glyph-name="lslash" unicode="&#x142;" horiz-adv-x="261" 
d="M288 442l16 -36l-337 -147l-16 36zM150 124q0 -65 11 -104q2 -11 4.5 -21t6.5 -18l-23 -8q-12 10 -20 31q-8 19 -13.5 51.5t-5.5 89.5v585h-103v40h143v-646z" />
    <glyph glyph-name="Nacute" unicode="&#x143;" horiz-adv-x="835" 
d="M565 671v39h224v-39h-92v-631h92v-40h-144l-455 652v-612h92v-40h-234v40h102v631h-92v39h143l456 -653v614h-92zM462 871l-49 -116h-41l49 116h41z" />
    <glyph glyph-name="nacute" unicode="&#x144;" horiz-adv-x="626" 
d="M584 0l-24.5 -3.5t-20.5 -1.5q-26 0 -47 22.5t-21 64.5v301q0 34 -12 59.5t-32 42.5t-48 25t-59 8q-34 0 -67 -7.5t-61.5 -22.5t-50 -38t-32.5 -54v-396h-40v460q0 19 -3 30.5t-7 17t-9 7t-9 1.5h-9.5t-11.5 -1l-9 35q8 2 19.5 3t19.5 1q23 0 39.5 -18.5t19.5 -55.5v-16
q15 22 38.5 39.5t51.5 29.5t59 18.5t61 6.5q93 0 142.5 -47t49.5 -135v-294q0 -17 4 -26.5t10 -14t12 -5.5t11 -1h12.5t18.5 2zM346 712l-49 -116h-41l49 116h41z" />
    <glyph glyph-name="Ncommaaccent" unicode="&#x145;" horiz-adv-x="835" 
d="M565 671v39h224v-39h-92v-631h92v-40h-144l-455 652v-612h92v-40h-234v40h102v631h-92v39h143l456 -653v614h-92zM383 -129q0 17 11.5 28.5t28.5 11.5q19 0 31 -15q10 -11 10 -32q0 -20 -3 -39.5t-11.5 -38t-24.5 -35.5t-42 -31l-13 17q18 15 28.5 27.5t15.5 23.5
t6.5 21.5t1.5 21.5q-17 1 -28 12t-11 28z" />
    <glyph glyph-name="ncommaaccent" unicode="&#x146;" horiz-adv-x="626" 
d="M584 0l-24.5 -3.5t-20.5 -1.5q-26 0 -47 22.5t-21 64.5v301q0 34 -12 59.5t-32 42.5t-48 25t-59 8q-34 0 -67 -7.5t-61.5 -22.5t-50 -38t-32.5 -54v-396h-40v460q0 19 -3 30.5t-7 17t-9 7t-9 1.5h-9.5t-11.5 -1l-9 35q8 2 19.5 3t19.5 1q23 0 39.5 -18.5t19.5 -55.5v-16
q15 22 38.5 39.5t51.5 29.5t59 18.5t61 6.5q93 0 142.5 -47t49.5 -135v-294q0 -17 4 -26.5t10 -14t12 -5.5t11 -1h12.5t18.5 2zM267 -129q0 17 11.5 28.5t28.5 11.5q19 0 31 -15q10 -11 10 -32q0 -20 -3 -39.5t-11.5 -38t-24.5 -35.5t-42 -31l-13 17q18 15 28.5 27.5
t15.5 23.5t6.5 21.5t1.5 21.5q-17 1 -28 12t-11 28z" />
    <glyph glyph-name="Ncaron" unicode="&#x147;" horiz-adv-x="835" 
d="M565 671v39h224v-39h-92v-631h92v-40h-144l-455 652v-612h92v-40h-234v40h102v631h-92v39h143l456 -653v614h-92zM433 763h-33l-126 136h48l96 -107l95 107h48z" />
    <glyph glyph-name="ncaron" unicode="&#x148;" horiz-adv-x="626" 
d="M584 0l-24.5 -3.5t-20.5 -1.5q-26 0 -47 22.5t-21 64.5v301q0 34 -12 59.5t-32 42.5t-48 25t-59 8q-34 0 -67 -7.5t-61.5 -22.5t-50 -38t-32.5 -54v-396h-40v460q0 19 -3 30.5t-7 17t-9 7t-9 1.5h-9.5t-11.5 -1l-9 35q8 2 19.5 3t19.5 1q23 0 39.5 -18.5t19.5 -55.5v-16
q15 22 38.5 39.5t51.5 29.5t59 18.5t61 6.5q93 0 142.5 -47t49.5 -135v-294q0 -17 4 -26.5t10 -14t12 -5.5t11 -1h12.5t18.5 2zM317 604h-33l-126 136h48l96 -107l95 107h48z" />
    <glyph glyph-name="napostrophe" unicode="&#x149;" horiz-adv-x="721" 
d="M679 0l-24.5 -3.5t-20.5 -1.5q-26 0 -47 22.5t-21 64.5v301q0 34 -12 59.5t-32 42.5t-48 25t-59 8q-34 0 -67 -7.5t-61.5 -22.5t-50 -38t-32.5 -54v-396h-40v460q0 19 -3 30.5t-7 17t-9 7t-9 1.5h-9.5t-11.5 -1l-9 35q8 2 19.5 3t19.5 1q23 0 39.5 -18.5t19.5 -55.5v-16
q15 22 38.5 39.5t51.5 29.5t59 18.5t61 6.5q93 0 142.5 -47t49.5 -135v-294q0 -17 4 -26.5t10 -14t12 -5.5t11 -1h12.5t18.5 2zM7 659q0 17 11.5 28.5t28.5 11.5q19 0 31 -15q10 -11 10 -32q0 -20 -3 -39.5t-11.5 -38t-24.5 -35.5t-42 -31l-13 17q18 15 28.5 27.5t15.5 23.5
t6.5 21.5t1.5 21.5q-17 1 -28 12t-11 28z" />
    <glyph glyph-name="Eng" unicode="&#x14a;" horiz-adv-x="835" 
d="M656 -15l-466 667v-612h92v-40h-234v40h102v631h-92v39h143l455 -652v380h1v233h-92v39h224v-39h-92v-747q0 -57 -6 -89.5t-14 -51.5q-9 -22 -19 -31l-24 8q3 8 6 18t5 21q4 19 7.5 45t3.5 59v82z" />
    <glyph glyph-name="eng" unicode="&#x14b;" horiz-adv-x="579" 
d="M69 0v460q0 19 -3 30.5t-7 17t-9 7t-9 1.5h-9.5t-11.5 -1l-9 35q8 2 19.5 3t19.5 1q23 0 39.5 -18.5t19.5 -55.5v-16q15 22 38.5 39.5t51.5 29.5t59 18.5t61 6.5q93 0 143 -47t50 -135v-446q0 -57 -6 -89.5t-14 -51.5q-9 -22 -19 -31l-24 8q3 8 6 18t5 21q4 19 7.5 45
t3.5 59v474q0 34 -12 59.5t-32 42.5t-48 25t-59 8q-34 0 -67 -7.5t-61.5 -22.5t-50 -38t-32.5 -54v-396h-40z" />
    <glyph glyph-name="Omacron" unicode="&#x14c;" horiz-adv-x="661" 
d="M601 311q0 -99 -22 -162t-59 -98.5t-86 -48.5t-104 -13t-104 13t-86 48.5t-59 98.5t-22 162v88q0 99 22 162t59 98.5t86 48.5t104 13t104 -13t86 -48.5t59 -98t22 -162.5v-88zM100 297q0 -86 19.5 -139t51.5 -82t73.5 -38.5t85.5 -9.5t85.5 9.5t73.5 38.5t51.5 82
t19.5 139v102q0 92 -19 147.5t-50.5 85.5t-73 40t-87.5 10t-87.5 -10t-73 -40t-50.5 -85.5t-19 -147.5v-102zM148 869h364v-36h-364v36z" />
    <glyph glyph-name="omacron" unicode="&#x14d;" horiz-adv-x="530" 
d="M40 309q0 77 17 125.5t47 76t70.5 37.5t88.5 10q46 0 87 -10t71 -37.5t47.5 -76t17.5 -124.5v-73q0 -77 -17.5 -125.5t-48 -75.5t-71.5 -37t-87 -10q-47 0 -87.5 10t-70.5 37t-47 74.5t-17 122.5v76zM446 321q0 65 -17 104t-43.5 60t-59 28t-63.5 7q-32 0 -64.5 -7
t-59 -28t-43 -60t-16.5 -103v-98q0 -65 16.5 -103.5t42.5 -58.5t59 -26.5t65 -6.5q29 0 61.5 6t59.5 26t44.5 58t17.5 103v99zM83 710h364v-36h-364v36z" />
    <glyph glyph-name="Obreve" unicode="&#x14e;" horiz-adv-x="661" 
d="M601 311q0 -99 -22 -162t-59 -98.5t-86 -48.5t-104 -13t-104 13t-86 48.5t-59 98.5t-22 162v88q0 99 22 162t59 98.5t86 48.5t104 13t104 -13t86 -48.5t59 -98t22 -162.5v-88zM100 297q0 -86 19.5 -139t51.5 -82t73.5 -38.5t85.5 -9.5t85.5 9.5t73.5 38.5t51.5 82
t19.5 139v102q0 92 -19 147.5t-50.5 85.5t-73 40t-87.5 10t-87.5 -10t-73 -40t-50.5 -85.5t-19 -147.5v-102zM330 761q-24 0 -46 8.5t-40 23.5t-32 34.5t-23 42.5l35 12q15 -37 42 -60t64 -23q38 0 66 24t43 59l33 -10q-8 -23 -22 -43t-33 -35t-41 -24t-46 -9z" />
    <glyph glyph-name="obreve" unicode="&#x14f;" horiz-adv-x="530" 
d="M40 309q0 77 17 125.5t47 76t70.5 37.5t88.5 10q46 0 87 -10t71 -37.5t47.5 -76t17.5 -124.5v-73q0 -77 -17.5 -125.5t-48 -75.5t-71.5 -37t-87 -10q-47 0 -87.5 10t-70.5 37t-47 74.5t-17 122.5v76zM446 321q0 65 -17 104t-43.5 60t-59 28t-63.5 7q-32 0 -64.5 -7
t-59 -28t-43 -60t-16.5 -103v-98q0 -65 16.5 -103.5t42.5 -58.5t59 -26.5t65 -6.5q29 0 61.5 6t59.5 26t44.5 58t17.5 103v99zM264 602q-24 0 -46 8.5t-40 23.5t-32 34.5t-23 42.5l35 12q15 -37 42 -60t64 -23q38 0 66 24t43 59l33 -10q-8 -23 -22 -43t-33 -35t-41 -24
t-46 -9z" />
    <glyph glyph-name="Ohungarumlaut" unicode="&#x150;" horiz-adv-x="661" 
d="M601 311q0 -99 -22 -162t-59 -98.5t-86 -48.5t-104 -13t-104 13t-86 48.5t-59 98.5t-22 162v88q0 99 22 162t59 98.5t86 48.5t104 13t104 -13t86 -48.5t59 -98t22 -162.5v-88zM100 297q0 -86 19.5 -139t51.5 -82t73.5 -38.5t85.5 -9.5t85.5 9.5t73.5 38.5t51.5 82
t19.5 139v102q0 92 -19 147.5t-50.5 85.5t-73 40t-87.5 10t-87.5 -10t-73 -40t-50.5 -85.5t-19 -147.5v-102zM332 871l-49 -116h-41l49 116h41zM472 871l-49 -116h-41l49 116h41z" />
    <glyph glyph-name="ohungarumlaut" unicode="&#x151;" horiz-adv-x="530" 
d="M40 309q0 77 17 125.5t47 76t70.5 37.5t88.5 10q46 0 87 -10t71 -37.5t47.5 -76t17.5 -124.5v-73q0 -77 -17.5 -125.5t-48 -75.5t-71.5 -37t-87 -10q-47 0 -87.5 10t-70.5 37t-47 74.5t-17 122.5v76zM446 321q0 65 -17 104t-43.5 60t-59 28t-63.5 7q-32 0 -64.5 -7
t-59 -28t-43 -60t-16.5 -103v-98q0 -65 16.5 -103.5t42.5 -58.5t59 -26.5t65 -6.5q29 0 61.5 6t59.5 26t44.5 58t17.5 103v99zM240 712l-49 -116h-41l49 116h41zM380 712l-49 -116h-41l49 116h41z" />
    <glyph glyph-name="OE" unicode="&#x152;" horiz-adv-x="999" 
d="M910 40v103h40v-143h-524q-23 -6 -47 -8.5t-49 -2.5q-55 0 -104 13t-86 48.5t-59 98.5t-22 162v88q0 99 22 162t59 98.5t86 48.5t104 13q25 0 49 -2.5t47 -8.5h504v-143h-40v103h-382q43 -35 68 -99t25 -172v-12h225v-40h-225v-36q0 -108 -25.5 -172.5t-67.5 -98.5h402z
M100 297q0 -86 19.5 -139t51.5 -82t73.5 -38.5t85.5 -9.5t85.5 9.5t73.5 38.5t51.5 82t19.5 139v102q0 92 -19 147.5t-50.5 85.5t-73 40t-87.5 10t-87.5 -10t-73 -40t-50.5 -85.5t-19 -147.5v-102z" />
    <glyph glyph-name="oe" unicode="&#x153;" horiz-adv-x="953" 
d="M44 309q0 77 17 125.5t47 76t70.5 37.5t88.5 10q34 0 65.5 -5t57.5 -18.5t47 -36.5t34 -59q13 36 34.5 59t48.5 36.5t59.5 18.5t67.5 5q46 0 86 -11.5t69 -37.5t45.5 -67.5t16.5 -100.5q0 -18 -1 -38.5t-3 -30.5h-403v-45q0 -65 16.5 -103.5t42.5 -59t59 -27t65 -6.5
q63 0 104.5 7.5t71.5 18.5l15 -37q-29 -11 -74.5 -21t-117.5 -10q-35 0 -66 5t-57.5 18.5t-46.5 35.5t-33 57q-14 -35 -34.5 -57.5t-47 -35.5t-57.5 -18t-65 -5q-47 0 -87.5 10t-70.5 37t-47 74.5t-17 122.5v76zM450 321q0 65 -17 104t-43.5 60t-59 28t-63.5 7
q-32 0 -64.5 -7t-59 -28t-43 -60t-16.5 -103v-98q0 -65 16.5 -103.5t42.5 -58.5t59 -26.5t65 -6.5q29 0 61.5 6t59.5 26t44.5 58t17.5 103v99zM490 312h367v40q0 45 -16 76.5t-41.5 51.5t-57 29t-62.5 9t-64 -5t-60.5 -24.5t-46 -58t-19.5 -105.5v-13z" />
    <glyph glyph-name="Racute" unicode="&#x154;" horiz-adv-x="676" 
d="M282 0h-224v40h92v630h-92v40h254q72 0 127.5 -9t93.5 -33.5t57.5 -67.5t19.5 -110q0 -93 -46 -139t-134 -58l149 -194q20 -26 38.5 -44.5t33.5 -30.5l33 -24l-16 -22q-16 2 -34 13q-17 11 -42.5 33t-58.5 67l-152 197q-11 -2 -20.5 -2h-20.5h-150v-246h92v-40zM190 326
h128q51 0 95.5 4.5t78.5 21t54.5 49t23.5 89.5q0 62 -20.5 98t-55 54t-80 23t-96.5 5h-128v-344zM383 871l-49 -116h-41l49 116h41z" />
    <glyph glyph-name="racute" unicode="&#x155;" horiz-adv-x="502" 
d="M488 533v-93h-40v64q-35 10 -68.5 12t-55.5 2q-25 0 -47 -4.5t-40 -16t-31.5 -32t-21.5 -52.5v-413h-40v511h-103v40h143v-64q20 39 53 55t87 16q15 0 31.5 -0.5t36 -3t43 -7.5t53.5 -14zM296 712l-49 -116h-41l49 116h41z" />
    <glyph glyph-name="Rcommaaccent" unicode="&#x156;" horiz-adv-x="676" 
d="M282 0h-224v40h92v630h-92v40h254q72 0 127.5 -9t93.5 -33.5t57.5 -67.5t19.5 -110q0 -93 -46 -139t-134 -58l149 -194q20 -26 38.5 -44.5t33.5 -30.5l33 -24l-16 -22q-16 2 -34 13q-17 11 -42.5 33t-58.5 67l-152 197q-11 -2 -20.5 -2h-20.5h-150v-246h92v-40zM190 326
h128q51 0 95.5 4.5t78.5 21t54.5 49t23.5 89.5q0 62 -20.5 98t-55 54t-80 23t-96.5 5h-128v-344zM304 -129q0 17 11.5 28.5t28.5 11.5q19 0 31 -15q10 -11 10 -32q0 -20 -3 -39.5t-11.5 -38t-24.5 -35.5t-42 -31l-13 17q18 15 28.5 27.5t15.5 23.5t6.5 21.5t1.5 21.5
q-17 1 -28 12t-11 28z" />
    <glyph glyph-name="rcommaaccent" unicode="&#x157;" horiz-adv-x="502" 
d="M488 533v-93h-40v64q-35 10 -68.5 12t-55.5 2q-25 0 -47 -4.5t-40 -16t-31.5 -32t-21.5 -52.5v-413h-40v511h-103v40h143v-64q20 39 53 55t87 16q15 0 31.5 -0.5t36 -3t43 -7.5t53.5 -14zM217 -129q0 17 11.5 28.5t28.5 11.5q19 0 31 -15q10 -11 10 -32q0 -20 -3 -39.5
t-11.5 -38t-24.5 -35.5t-42 -31l-13 17q18 15 28.5 27.5t15.5 23.5t6.5 21.5t1.5 21.5q-17 1 -28 12t-11 28z" />
    <glyph glyph-name="Rcaron" unicode="&#x158;" horiz-adv-x="676" 
d="M282 0h-224v40h92v630h-92v40h254q72 0 127.5 -9t93.5 -33.5t57.5 -67.5t19.5 -110q0 -93 -46 -139t-134 -58l149 -194q20 -26 38.5 -44.5t33.5 -30.5l33 -24l-16 -22q-16 2 -34 13q-17 11 -42.5 33t-58.5 67l-152 197q-11 -2 -20.5 -2h-20.5h-150v-246h92v-40zM190 326
h128q51 0 95.5 4.5t78.5 21t54.5 49t23.5 89.5q0 62 -20.5 98t-55 54t-80 23t-96.5 5h-128v-344zM353 763h-33l-126 136h48l96 -107l95 107h48z" />
    <glyph glyph-name="rcaron" unicode="&#x159;" horiz-adv-x="502" 
d="M488 533v-93h-40v64q-35 10 -68.5 12t-55.5 2q-25 0 -47 -4.5t-40 -16t-31.5 -32t-21.5 -52.5v-413h-40v511h-103v40h143v-64q20 39 53 55t87 16q15 0 31.5 -0.5t36 -3t43 -7.5t53.5 -14zM266 604h-33l-126 136h48l96 -107l95 107h48z" />
    <glyph glyph-name="Sacute" unicode="&#x15a;" horiz-adv-x="624" 
d="M72 22v133h39v-100q24 -6 52.5 -11t56 -8t51 -5t37.5 -2q39 0 79.5 9.5t73.5 28t54 46.5t21 65q0 45 -17 75t-46.5 49.5t-68.5 31.5t-84 20q-128 23 -187 73t-59 133q0 44 19 75t53.5 50.5t83.5 28.5t108 9q19 0 38 -1.5t42 -5t51.5 -11t66.5 -19.5v-124h-40v95
q-42 12 -86 19t-72 7q-40 0 -79.5 -4.5t-71 -18t-51.5 -37.5t-20 -63q0 -36 14 -62.5t40 -45.5t63.5 -32.5t85.5 -23.5q21 -5 48.5 -9.5t56.5 -13.5t56.5 -23t49 -36.5t34.5 -55.5t13 -80q0 -43 -20 -77.5t-55.5 -59t-85 -37.5t-108.5 -13q-38 0 -99.5 4t-136.5 27zM357 871
l-49 -116h-41l49 116h41z" />
    <glyph glyph-name="sacute" unicode="&#x15b;" horiz-adv-x="549" 
d="M78 15v113h37v-85q19 -5 40.5 -8.5t42.5 -5.5t39 -3t30 -1q32 0 63 9.5t56 26.5t40 40.5t15 52.5v19q0 34 -18 53.5t-45 30t-59 14.5t-59 7q-53 5 -87.5 17t-55.5 31.5t-29.5 45.5t-8.5 58q0 35 15.5 60t43 41.5t66.5 24t87 7.5q15 0 30.5 -0.5t34 -3t41.5 -7.5t53 -14
v-114h-38v85q-33 11 -66 14.5t-55 3.5q-32 0 -62.5 -3.5t-54.5 -14t-38.5 -29.5t-14.5 -50q0 -57 35 -81t113 -32q25 -3 62 -6.5t70.5 -17t57.5 -42.5t24 -84q0 -44 -16 -77t-44.5 -55.5t-68 -34t-87.5 -11.5q-31 0 -79.5 3.5t-109.5 22.5zM319 712l-49 -116h-41l49 116h41z
" />
    <glyph glyph-name="Scircumflex" unicode="&#x15c;" horiz-adv-x="624" 
d="M72 22v133h39v-100q24 -6 52.5 -11t56 -8t51 -5t37.5 -2q39 0 79.5 9.5t73.5 28t54 46.5t21 65q0 45 -17 75t-46.5 49.5t-68.5 31.5t-84 20q-128 23 -187 73t-59 133q0 44 19 75t53.5 50.5t83.5 28.5t108 9q19 0 38 -1.5t42 -5t51.5 -11t66.5 -19.5v-124h-40v95
q-42 12 -86 19t-72 7q-40 0 -79.5 -4.5t-71 -18t-51.5 -37.5t-20 -63q0 -36 14 -62.5t40 -45.5t63.5 -32.5t85.5 -23.5q21 -5 48.5 -9.5t56.5 -13.5t56.5 -23t49 -36.5t34.5 -55.5t13 -80q0 -43 -20 -77.5t-55.5 -59t-85 -37.5t-108.5 -13q-38 0 -99.5 4t-136.5 27zM471 763
h-48l-95 107l-96 -107h-48l126 136h33z" />
    <glyph glyph-name="scircumflex" unicode="&#x15d;" horiz-adv-x="549" 
d="M78 15v113h37v-85q19 -5 40.5 -8.5t42.5 -5.5t39 -3t30 -1q32 0 63 9.5t56 26.5t40 40.5t15 52.5v19q0 34 -18 53.5t-45 30t-59 14.5t-59 7q-53 5 -87.5 17t-55.5 31.5t-29.5 45.5t-8.5 58q0 35 15.5 60t43 41.5t66.5 24t87 7.5q15 0 30.5 -0.5t34 -3t41.5 -7.5t53 -14
v-114h-38v85q-33 11 -66 14.5t-55 3.5q-32 0 -62.5 -3.5t-54.5 -14t-38.5 -29.5t-14.5 -50q0 -57 35 -81t113 -32q25 -3 62 -6.5t70.5 -17t57.5 -42.5t24 -84q0 -44 -16 -77t-44.5 -55.5t-68 -34t-87.5 -11.5q-31 0 -79.5 3.5t-109.5 22.5zM418 604h-48l-95 107l-96 -107
h-48l126 136h33z" />
    <glyph glyph-name="Scedilla" unicode="&#x15e;" horiz-adv-x="624" 
d="M72 22v133h39v-100q24 -6 52.5 -11t56 -8t51 -5t37.5 -2q39 0 79.5 9.5t73.5 28t54 46.5t21 65q0 45 -17 75t-46.5 49.5t-68.5 31.5t-84 20q-128 23 -187 73t-59 133q0 44 19 75t53.5 50.5t83.5 28.5t108 9q19 0 38 -1.5t42 -5t51.5 -11t66.5 -19.5v-124h-40v95
q-42 12 -86 19t-72 7q-40 0 -79.5 -4.5t-71 -18t-51.5 -37.5t-20 -63q0 -36 14 -62.5t40 -45.5t63.5 -32.5t85.5 -23.5q21 -5 48.5 -9.5t56.5 -13.5t56.5 -23t49 -36.5t34.5 -55.5t13 -80q0 -43 -20 -77.5t-55.5 -59t-85 -37.5t-108.5 -13q-38 0 -99.5 4t-136.5 27zM336 13
l-87 -207h-53l111 207h29z" />
    <glyph glyph-name="scedilla" unicode="&#x15f;" horiz-adv-x="549" 
d="M78 15v113h37v-85q19 -5 40.5 -8.5t42.5 -5.5t39 -3t30 -1q32 0 63 9.5t56 26.5t40 40.5t15 52.5v19q0 34 -18 53.5t-45 30t-59 14.5t-59 7q-53 5 -87.5 17t-55.5 31.5t-29.5 45.5t-8.5 58q0 35 15.5 60t43 41.5t66.5 24t87 7.5q15 0 30.5 -0.5t34 -3t41.5 -7.5t53 -14
v-114h-38v85q-33 11 -66 14.5t-55 3.5q-32 0 -62.5 -3.5t-54.5 -14t-38.5 -29.5t-14.5 -50q0 -57 35 -81t113 -32q25 -3 62 -6.5t70.5 -17t57.5 -42.5t24 -84q0 -44 -16 -77t-44.5 -55.5t-68 -34t-87.5 -11.5q-31 0 -79.5 3.5t-109.5 22.5zM284 11l-87 -207h-53l111 207h29z
" />
    <glyph glyph-name="Scaron" unicode="&#x160;" horiz-adv-x="624" 
d="M72 22v133h39v-100q24 -6 52.5 -11t56 -8t51 -5t37.5 -2q39 0 79.5 9.5t73.5 28t54 46.5t21 65q0 45 -17 75t-46.5 49.5t-68.5 31.5t-84 20q-128 23 -187 73t-59 133q0 44 19 75t53.5 50.5t83.5 28.5t108 9q19 0 38 -1.5t42 -5t51.5 -11t66.5 -19.5v-124h-40v95
q-42 12 -86 19t-72 7q-40 0 -79.5 -4.5t-71 -18t-51.5 -37.5t-20 -63q0 -36 14 -62.5t40 -45.5t63.5 -32.5t85.5 -23.5q21 -5 48.5 -9.5t56.5 -13.5t56.5 -23t49 -36.5t34.5 -55.5t13 -80q0 -43 -20 -77.5t-55.5 -59t-85 -37.5t-108.5 -13q-38 0 -99.5 4t-136.5 27zM327 763
h-33l-126 136h48l96 -107l95 107h48z" />
    <glyph glyph-name="scaron" unicode="&#x161;" horiz-adv-x="549" 
d="M78 15v113h37v-85q19 -5 40.5 -8.5t42.5 -5.5t39 -3t30 -1q32 0 63 9.5t56 26.5t40 40.5t15 52.5v19q0 34 -18 53.5t-45 30t-59 14.5t-59 7q-53 5 -87.5 17t-55.5 31.5t-29.5 45.5t-8.5 58q0 35 15.5 60t43 41.5t66.5 24t87 7.5q15 0 30.5 -0.5t34 -3t41.5 -7.5t53 -14
v-114h-38v85q-33 11 -66 14.5t-55 3.5q-32 0 -62.5 -3.5t-54.5 -14t-38.5 -29.5t-14.5 -50q0 -57 35 -81t113 -32q25 -3 62 -6.5t70.5 -17t57.5 -42.5t24 -84q0 -44 -16 -77t-44.5 -55.5t-68 -34t-87.5 -11.5q-31 0 -79.5 3.5t-109.5 22.5zM290 604h-33l-126 136h48l96 -107
l95 107h48z" />
    <glyph glyph-name="Tcommaaccent" unicode="&#x162;" horiz-adv-x="698" 
d="M75 534h-35v176h619v-176h-35v136h-257v-631h102v-39h-244v39h102v631h-252v-136zM315 -129q0 17 11.5 28.5t28.5 11.5q19 0 31 -15q10 -11 10 -32q0 -20 -3 -39.5t-11.5 -38t-24.5 -35.5t-42 -31l-13 17q18 15 28.5 27.5t15.5 23.5t6.5 21.5t1.5 21.5q-17 1 -28 12
t-11 28z" />
    <glyph glyph-name="tcommaaccent" unicode="&#x163;" horiz-adv-x="330" 
d="M165 725v-170h128v-40h-128v-433q0 -17 4 -26.5t10 -14t12 -5.5t11 -1q9 0 28.5 1.5t48.5 7.5l8 -36q-33 -5 -55 -9t-39 -4q-26 0 -47 22.5t-21 64.5v433h-103l10 40h93v159zM131 -129q0 17 11.5 28.5t28.5 11.5q19 0 31 -15q10 -11 10 -32q0 -20 -3 -39.5t-11.5 -38
t-24.5 -35.5t-42 -31l-13 17q18 15 28.5 27.5t15.5 23.5t6.5 21.5t1.5 21.5q-17 1 -28 12t-11 28z" />
    <glyph glyph-name="Tcaron" unicode="&#x164;" horiz-adv-x="698" 
d="M75 534h-35v176h619v-176h-35v136h-257v-631h102v-39h-244v39h102v631h-252v-136zM364 763h-33l-126 136h48l96 -107l95 107h48z" />
    <glyph glyph-name="tcaron" unicode="&#x165;" horiz-adv-x="456" 
d="M165 725v-170h128v-40h-128v-433q0 -17 4 -26.5t10 -14t12 -5.5t11 -1q9 0 28.5 1.5t48.5 7.5l8 -36q-33 -5 -55 -9t-39 -4q-26 0 -47 22.5t-21 64.5v433h-103l10 40h93v159zM335 667q0 17 11.5 28.5t28.5 11.5q19 0 31 -15q10 -11 10 -32q0 -20 -3 -39.5t-11.5 -38
t-24.5 -35.5t-42 -31l-13 17q18 15 28.5 27.5t15.5 23.5t6.5 21.5t1.5 21.5q-17 1 -28 12t-11 28z" />
    <glyph glyph-name="Tbar" unicode="&#x166;" horiz-adv-x="698" 
d="M75 534h-35v176h619v-176h-35v136h-257v-631h102v-39h-244v39h102v631h-252v-136zM167 399h364v-36h-364v36z" />
    <glyph glyph-name="tbar" unicode="&#x167;" horiz-adv-x="330" 
d="M165 725v-170h128v-40h-128v-433q0 -17 4 -26.5t10 -14t12 -5.5t11 -1q9 0 28.5 1.5t48.5 7.5l8 -36q-33 -5 -55 -9t-39 -4q-26 0 -47 22.5t-21 64.5v433h-103l10 40h93v159zM23.0137 380.718h267.002v-37h-267.002v37z" />
    <glyph glyph-name="Utilde" unicode="&#x168;" horiz-adv-x="778" 
d="M159 297q0 -86 19.5 -139t51.5 -81.5t73 -38t85 -9.5t85.5 9.5t73.5 38t51.5 81.5t19.5 139v373h-89v40h219v-40h-89v-359q0 -99 -22 -162t-59 -98.5t-86 -48.5t-104 -13t-104 13t-86 48.5t-58.5 98.5t-21.5 162v359h-89v40h219v-40h-89v-373zM382 825q-12 5 -23.5 9
t-22.5 4t-31.5 -6t-39.5 -25l-14 23q15 16 26.5 25t21 13.5t19 5.5t21.5 1q13 0 28 -5.5t30 -13.5q11 -5 22 -7.5t22 -2.5t31.5 6t39.5 25l14 -23q-15 -16 -26.5 -25t-21 -13.5t-19 -5.5t-21.5 -1t-26.5 4.5t-29.5 11.5z" />
    <glyph glyph-name="utilde" unicode="&#x169;" horiz-adv-x="633" 
d="M421 551h122v-460q0 -31 7 -44t24 -13q15 0 45 11l11 -29q-29 -10 -44.5 -14.5t-32.5 -4.5q-44 0 -50 74q-29 -44 -76.5 -61t-105.5 -17q-46 0 -85 10t-67 37t-44 75.5t-16 125.5v272h-84v38h124v-321q0 -65 14.5 -104t38.5 -60t54.5 -27.5t61.5 -6.5q32 0 65 3.5
t59.5 20t43.5 49.5t17 92v314h-82v40zM310 666q-12 5 -23.5 9t-22.5 4t-31.5 -6t-39.5 -25l-14 23q15 16 26.5 25t21 13.5t19 5.5t21.5 1q13 0 28 -5.5t30 -13.5q11 -5 22 -7.5t22 -2.5t31.5 6t39.5 25l14 -23q-15 -16 -26.5 -25t-21 -13.5t-19 -5.5t-21.5 -1t-26.5 4.5
t-29.5 11.5z" />
    <glyph glyph-name="Umacron" unicode="&#x16a;" horiz-adv-x="778" 
d="M159 297q0 -86 19.5 -139t51.5 -81.5t73 -38t85 -9.5t85.5 9.5t73.5 38t51.5 81.5t19.5 139v373h-89v40h219v-40h-89v-359q0 -99 -22 -162t-59 -98.5t-86 -48.5t-104 -13t-104 13t-86 48.5t-58.5 98.5t-21.5 162v359h-89v40h219v-40h-89v-373zM207 869h364v-36h-364v36z
" />
    <glyph glyph-name="umacron" unicode="&#x16b;" horiz-adv-x="633" 
d="M421 551h122v-460q0 -31 7 -44t24 -13q15 0 45 11l11 -29q-29 -10 -44.5 -14.5t-32.5 -4.5q-44 0 -50 74q-29 -44 -76.5 -61t-105.5 -17q-46 0 -85 10t-67 37t-44 75.5t-16 125.5v272h-84v38h124v-321q0 -65 14.5 -104t38.5 -60t54.5 -27.5t61.5 -6.5q32 0 65 3.5
t59.5 20t43.5 49.5t17 92v314h-82v40zM134 710h364v-36h-364v36z" />
    <glyph glyph-name="Ubreve" unicode="&#x16c;" horiz-adv-x="778" 
d="M159 297q0 -86 19.5 -139t51.5 -81.5t73 -38t85 -9.5t85.5 9.5t73.5 38t51.5 81.5t19.5 139v373h-89v40h219v-40h-89v-359q0 -99 -22 -162t-59 -98.5t-86 -48.5t-104 -13t-104 13t-86 48.5t-58.5 98.5t-21.5 162v359h-89v40h219v-40h-89v-373zM388 761q-24 0 -46 8.5
t-40 23.5t-32 34.5t-23 42.5l35 12q15 -37 42 -60t64 -23q38 0 66 24t43 59l33 -10q-8 -23 -22 -43t-33 -35t-41 -24t-46 -9z" />
    <glyph glyph-name="ubreve" unicode="&#x16d;" horiz-adv-x="633" 
d="M421 551h122v-460q0 -31 7 -44t24 -13q15 0 45 11l11 -29q-29 -10 -44.5 -14.5t-32.5 -4.5q-44 0 -50 74q-29 -44 -76.5 -61t-105.5 -17q-46 0 -85 10t-67 37t-44 75.5t-16 125.5v272h-84v38h124v-321q0 -65 14.5 -104t38.5 -60t54.5 -27.5t61.5 -6.5q32 0 65 3.5
t59.5 20t43.5 49.5t17 92v314h-82v40zM316 602q-24 0 -46 8.5t-40 23.5t-32 34.5t-23 42.5l35 12q15 -37 42 -60t64 -23q38 0 66 24t43 59l33 -10q-8 -23 -22 -43t-33 -35t-41 -24t-46 -9z" />
    <glyph glyph-name="Uring" unicode="&#x16e;" horiz-adv-x="778" 
d="M159 297q0 -86 19.5 -139t51.5 -81.5t73 -38t85 -9.5t85.5 9.5t73.5 38t51.5 81.5t19.5 139v373h-89v40h219v-40h-89v-359q0 -99 -22 -162t-59 -98.5t-86 -48.5t-104 -13t-104 13t-86 48.5t-58.5 98.5t-21.5 162v359h-89v40h219v-40h-89v-373zM389 754q-39 0 -65.5 27
t-26.5 66q0 19 7 35.5t19.5 29.5t29 20.5t36.5 7.5q19 0 35.5 -7.5t29 -20.5t19.5 -29.5t7 -35.5q0 -20 -7 -36.5t-19.5 -29.5t-29 -20t-35.5 -7zM389 784q26 0 42 18t16 45q0 26 -16 44.5t-42 18.5t-42.5 -18.5t-16.5 -44.5q0 -27 16.5 -45t42.5 -18z" />
    <glyph glyph-name="uring" unicode="&#x16f;" horiz-adv-x="633" 
d="M421 551h122v-460q0 -31 7 -44t24 -13q15 0 45 11l11 -29q-29 -10 -44.5 -14.5t-32.5 -4.5q-44 0 -50 74q-29 -44 -76.5 -61t-105.5 -17q-46 0 -85 10t-67 37t-44 75.5t-16 125.5v272h-84v38h124v-321q0 -65 14.5 -104t38.5 -60t54.5 -27.5t61.5 -6.5q32 0 65 3.5
t59.5 20t43.5 49.5t17 92v314h-82v40zM317 595q-39 0 -65.5 27t-26.5 66q0 19 7 35.5t19.5 29.5t29 20.5t36.5 7.5q19 0 35.5 -7.5t29 -20.5t19.5 -29.5t7 -35.5q0 -20 -7 -36.5t-19.5 -29.5t-29 -20t-35.5 -7zM317 625q26 0 42 18t16 45q0 26 -16 44.5t-42 18.5
t-42.5 -18.5t-16.5 -44.5q0 -27 16.5 -45t42.5 -18z" />
    <glyph glyph-name="Uhungarumlaut" unicode="&#x170;" horiz-adv-x="778" 
d="M159 297q0 -86 19.5 -139t51.5 -81.5t73 -38t85 -9.5t85.5 9.5t73.5 38t51.5 81.5t19.5 139v373h-89v40h219v-40h-89v-359q0 -99 -22 -162t-59 -98.5t-86 -48.5t-104 -13t-104 13t-86 48.5t-58.5 98.5t-21.5 162v359h-89v40h219v-40h-89v-373zM382 871l-49 -116h-41
l49 116h41zM522 871l-49 -116h-41l49 116h41z" />
    <glyph glyph-name="uhungarumlaut" unicode="&#x171;" horiz-adv-x="633" 
d="M421 551h122v-460q0 -31 7 -44t24 -13q15 0 45 11l11 -29q-29 -10 -44.5 -14.5t-32.5 -4.5q-44 0 -50 74q-29 -44 -76.5 -61t-105.5 -17q-46 0 -85 10t-67 37t-44 75.5t-16 125.5v272h-84v38h124v-321q0 -65 14.5 -104t38.5 -60t54.5 -27.5t61.5 -6.5q32 0 65 3.5
t59.5 20t43.5 49.5t17 92v314h-82v40zM291 712l-49 -116h-41l49 116h41zM431 712l-49 -116h-41l49 116h41z" />
    <glyph glyph-name="Uogonek" unicode="&#x172;" horiz-adv-x="778" 
d="M159 297q0 -86 19.5 -139t51.5 -81.5t73 -38t85 -9.5t85.5 9.5t73.5 38t51.5 81.5t19.5 139v373h-89v40h219v-40h-89v-359q0 -99 -22 -162t-59 -98.5t-86 -48.5t-104 -13t-104 13t-86 48.5t-58.5 98.5t-21.5 162v359h-89v40h219v-40h-89v-373zM395 -223q-48 0 -72 23.5
t-24 61.5q0 22 6 46t19 45.5t32 39t45 26.5l39 -9q-29 -9 -49 -25.5t-32.5 -36t-18 -40.5t-5.5 -40q0 -26 16 -42.5t47 -16.5q23 0 46.5 6.5t38.5 14.5l-2 -29q-10 -8 -35 -16t-51 -8z" />
    <glyph glyph-name="uogonek" unicode="&#x173;" horiz-adv-x="633" 
d="M421 551h122v-460q0 -31 7 -44t24 -13q15 0 45 11l11 -29q-29 -10 -44.5 -14.5t-32.5 -4.5q-44 0 -50 74q-29 -44 -76.5 -61t-105.5 -17q-46 0 -85 10t-67 37t-44 75.5t-16 125.5v272h-84v38h124v-321q0 -65 14.5 -104t38.5 -60t54.5 -27.5t61.5 -6.5q32 0 65 3.5
t59.5 20t43.5 49.5t17 92v314h-82v40zM311 -217q-48 0 -72 23.5t-24 61.5q0 22 6 46t19 45.5t32 39t45 26.5l39 -9q-29 -9 -49 -25.5t-32.5 -36t-18 -40.5t-5.5 -40q0 -26 16 -42.5t47 -16.5q23 0 46.5 6.5t38.5 14.5l-2 -29q-10 -8 -35 -16t-51 -8z" />
    <glyph glyph-name="Wcircumflex" unicode="&#x174;" horiz-adv-x="1056" 
d="M922 710h123v-40h-90l-238 -670h-40l-151 474l-167 -474h-40l-214 670h-90v40h123l202 -649l165 479l-42 130h-90v40h123l202 -649zM671 763h-48l-95 107l-96 -107h-48l126 136h33z" />
    <glyph glyph-name="wcircumflex" unicode="&#x175;" horiz-adv-x="885" 
d="M433 550l152 -488l170 489h123v-40h-90l-184 -511h-40l-120 374l-133 -374h-40l-164 511h-90v40h123l152 -489l131 378l-21 71h-82v40zM586 604h-48l-95 107l-96 -107h-48l126 136h33z" />
    <glyph glyph-name="Ycircumflex" unicode="&#x176;" horiz-adv-x="672" 
d="M559 710h93v-40h-70l-237 -340v-290h92v-40h-224v40h92v290l-215 340h-70v40h93l212 -340zM479 763h-48l-95 107l-96 -107h-48l126 136h33z" />
    <glyph glyph-name="ycircumflex" unicode="&#x177;" horiz-adv-x="536" 
d="M401 551h122v-518q0 -77 -17 -125.5t-46.5 -76t-70 -37.5t-88.5 -10q-30 0 -58.5 4t-53.5 14t-45.5 27t-35.5 43l31 29q13 -26 32 -41t40.5 -23t45 -10.5t45.5 -2.5q31 0 63.5 6t58.5 26t42.5 58t16.5 102v55q-29 -44 -76.5 -61t-105.5 -17q-46 0 -83.5 10t-63.5 37
t-40.5 75.5t-14.5 125.5v270h-84v40h122v-321q0 -65 13.5 -104t36 -60t51.5 -27.5t60 -6.5q32 0 64 3.5t58.5 19.5t43.5 49t19 93v314h-82v40zM427 604h-48l-95 107l-96 -107h-48l126 136h33z" />
    <glyph glyph-name="Ydieresis" unicode="&#x178;" horiz-adv-x="672" 
d="M559 710h93v-40h-70l-237 -340v-290h92v-40h-224v40h92v290l-215 340h-70v40h93l212 -340zM181 847q0 17 11.5 28.5t28.5 11.5t28.5 -11.5t11.5 -28.5t-11.5 -28.5t-28.5 -11.5t-28.5 11.5t-11.5 28.5zM411 847q0 17 11.5 28.5t28.5 11.5t28.5 -11.5t11.5 -28.5
t-11.5 -28.5t-28.5 -11.5t-28.5 11.5t-11.5 28.5z" />
    <glyph glyph-name="Zacute" unicode="&#x179;" horiz-adv-x="634" 
d="M569 156h35v-156h-575v40l515 631h-470v-117h-35v156h556v-38l-516 -632h490v116zM362 871l-49 -116h-41l49 116h41z" />
    <glyph glyph-name="zacute" unicode="&#x17a;" horiz-adv-x="619" 
d="M514 146h35v-146h-478v40l415 473h-380v-108h-35v146h465v-38l-415 -473h393v106zM358 712l-49 -116h-41l49 116h41z" />
    <glyph glyph-name="Zdotaccent" unicode="&#x17b;" horiz-adv-x="634" 
d="M569 156h35v-156h-575v40l515 631h-470v-117h-35v156h556v-38l-516 -632h490v116zM277 840q0 17 11.5 28.5t28.5 11.5t28.5 -11.5t11.5 -28.5t-11.5 -28.5t-28.5 -11.5t-28.5 11.5t-11.5 28.5z" />
    <glyph glyph-name="zdotaccent" unicode="&#x17c;" horiz-adv-x="619" 
d="M514 146h35v-146h-478v40l415 473h-380v-108h-35v146h465v-38l-415 -473h393v106zM273 681q0 17 11.5 28.5t28.5 11.5t28.5 -11.5t11.5 -28.5t-11.5 -28.5t-28.5 -11.5t-28.5 11.5t-11.5 28.5z" />
    <glyph glyph-name="Zcaron" unicode="&#x17d;" horiz-adv-x="634" 
d="M569 156h35v-156h-575v40l515 631h-470v-117h-35v156h556v-38l-516 -632h490v116zM332 763h-33l-126 136h48l96 -107l95 107h48z" />
    <glyph glyph-name="zcaron" unicode="&#x17e;" horiz-adv-x="619" 
d="M514 146h35v-146h-478v40l415 473h-380v-108h-35v146h465v-38l-415 -473h393v106zM329 604h-33l-126 136h48l96 -107l95 107h48z" />
    <glyph glyph-name="florin" unicode="&#x192;" horiz-adv-x="410" 
d="M213 486h131v-38h-131v-431q0 -68 -15 -109t-41.5 -64t-61.5 -30.5t-74 -7.5v27q28 1 55.5 6t49 22t34.5 50t13 89v448h-53v38h53q1 74 18.5 119.5t47 70t69.5 33t87 8.5v-30q-36 0 -68.5 -6.5t-58 -27.5t-40.5 -61t-15 -106z" />
    <glyph glyph-name="AEacute" unicode="&#x1fc;" horiz-adv-x="1022" 
d="M953 710v-143h-35v103h-400l48 -274h266v-40h-259l57 -316h308v103h35v-143h-463v40h75l-34 196h-271l-115 -236h-116v40h87l333 670h484zM298 276h246l-63 373zM556 871l-49 -116h-41l49 116h41z" />
    <glyph glyph-name="aeacute" unicode="&#x1fd;" horiz-adv-x="907" 
d="M405 309q-1 52 -7 90.5t-20 64t-38.5 38t-61.5 12.5q-42 0 -80.5 -6t-73.5 -11v-38h-40v72q20 4 45.5 8t51.5 7.5t50 5.5t42 2q70 0 106 -28t52 -72q14 31 35.5 51t47.5 32t57 16.5t64 4.5q46 0 86 -11.5t69 -37.5t45.5 -67.5t16.5 -100.5q0 -18 -1 -40t-3 -32h-403v-42
q0 -65 16.5 -103.5t42.5 -59t59 -27t65 -6.5q63 0 104.5 7.5t71.5 18.5l15 -37q-29 -11 -74.5 -21t-117.5 -10q-33 0 -63 4.5t-56 16.5t-46.5 32.5t-33.5 51.5q-11 -49 -62.5 -75.5t-136.5 -26.5q-54 0 -89.5 12.5t-57 34t-30 50t-8.5 61.5v29q0 31 11 55.5t37 41t69.5 25
t108.5 8.5h135zM84 149q0 -63 36 -90t111 -27q31 0 62 3t56 19t40.5 49.5t15.5 93.5v72h-138q-51 0 -86 -4.5t-56.5 -15t-31 -28t-9.5 -44.5v-28zM446 309h366v43q0 45 -16 76.5t-41.5 51.5t-57 29t-62.5 9q-29 0 -60 -5t-58 -22t-46 -50t-24 -90q0 -11 -0.5 -21t-0.5 -21z
M488 712l-49 -116h-41l49 116h41z" />
    <glyph glyph-name="Oslashacute" unicode="&#x1fe;" horiz-adv-x="661" 
d="M601 311q0 -99 -22 -162t-59 -98.5t-86 -48.5t-104 -13t-104 13t-86 48.5t-59 98.5t-22 162v88q0 99 22 162t59 98.5t86 48.5t104 13t104 -13t86 -48.5t59 -98t22 -162.5v-88zM100 297q0 -86 19.5 -139t51.5 -82t73.5 -38.5t85.5 -9.5t85.5 9.5t73.5 38.5t51.5 82
t19.5 139v102q0 92 -19 147.5t-50.5 85.5t-73 40t-87.5 10t-87.5 -10t-73 -40t-50.5 -85.5t-19 -147.5v-102zM488 771l-275 -900h-40l271 900h44zM400 871l-49 -116h-41l49 116h41z" />
    <glyph glyph-name="oslashacute" unicode="&#x1ff;" horiz-adv-x="530" 
d="M40 309q0 77 17 125.5t47 76t70.5 37.5t88.5 10q46 0 87 -10t71 -37.5t47.5 -76t17.5 -124.5v-73q0 -77 -17.5 -125.5t-48 -75.5t-71.5 -37t-87 -10q-47 0 -87.5 10t-70.5 37t-47 74.5t-17 122.5v76zM446 321q0 65 -17 104t-43.5 60t-59 28t-63.5 7q-32 0 -64.5 -7
t-59 -28t-43 -60t-16.5 -103v-98q0 -65 16.5 -103.5t42.5 -58.5t59 -26.5t65 -6.5q29 0 61.5 6t59.5 26t44.5 58t17.5 103v99zM310 712l-49 -116h-41l49 116h41zM421 724l-275 -900h-40l271 900h44z" />
    <glyph glyph-name="Scommaaccent" unicode="&#x218;" horiz-adv-x="624" 
d="M72 22v133h39v-100q24 -6 52.5 -11t56 -8t51 -5t37.5 -2q39 0 79.5 9.5t73.5 28t54 46.5t21 65q0 45 -17 75t-46.5 49.5t-68.5 31.5t-84 20q-128 23 -187 73t-59 133q0 44 19 75t53.5 50.5t83.5 28.5t108 9q19 0 38 -1.5t42 -5t51.5 -11t66.5 -19.5v-124h-40v95
q-42 12 -86 19t-72 7q-40 0 -79.5 -4.5t-71 -18t-51.5 -37.5t-20 -63q0 -36 14 -62.5t40 -45.5t63.5 -32.5t85.5 -23.5q21 -5 48.5 -9.5t56.5 -13.5t56.5 -23t49 -36.5t34.5 -55.5t13 -80q0 -43 -20 -77.5t-55.5 -59t-85 -37.5t-108.5 -13q-38 0 -99.5 4t-136.5 27z
M315 -129q0 17 11.5 28.5t28.5 11.5q19 0 31 -15q10 -11 10 -32q0 -20 -3 -39.5t-11.5 -38t-24.5 -35.5t-42 -31l-13 17q18 15 28.5 27.5t15.5 23.5t6.5 21.5t1.5 21.5q-17 1 -28 12t-11 28z" />
    <glyph glyph-name="scommaaccent" unicode="&#x219;" horiz-adv-x="549" 
d="M78 15v113h37v-85q19 -5 40.5 -8.5t42.5 -5.5t39 -3t30 -1q32 0 63 9.5t56 26.5t40 40.5t15 52.5v19q0 34 -18 53.5t-45 30t-59 14.5t-59 7q-53 5 -87.5 17t-55.5 31.5t-29.5 45.5t-8.5 58q0 35 15.5 60t43 41.5t66.5 24t87 7.5q15 0 30.5 -0.5t34 -3t41.5 -7.5t53 -14
v-114h-38v85q-33 11 -66 14.5t-55 3.5q-32 0 -62.5 -3.5t-54.5 -14t-38.5 -29.5t-14.5 -50q0 -57 35 -81t113 -32q25 -3 62 -6.5t70.5 -17t57.5 -42.5t24 -84q0 -44 -16 -77t-44.5 -55.5t-68 -34t-87.5 -11.5q-31 0 -79.5 3.5t-109.5 22.5zM240 -129q0 17 11.5 28.5
t28.5 11.5q19 0 31 -15q10 -11 10 -32q0 -20 -3 -39.5t-11.5 -38t-24.5 -35.5t-42 -31l-13 17q18 15 28.5 27.5t15.5 23.5t6.5 21.5t1.5 21.5q-17 1 -28 12t-11 28z" />
    <glyph glyph-name="uni021A" unicode="&#x21a;" horiz-adv-x="698" 
d="M75 534h-35v176h619v-176h-35v136h-257v-631h102v-39h-244v39h102v631h-252v-136zM313 -129q0 17 11.5 28.5t28.5 11.5q19 0 31 -15q10 -11 10 -32q0 -20 -3 -39.5t-11.5 -38t-24.5 -35.5t-42 -31l-13 17q18 15 28.5 27.5t15.5 23.5t6.5 21.5t1.5 21.5q-17 1 -28 12
t-11 28z" />
    <glyph glyph-name="uni021B" unicode="&#x21b;" horiz-adv-x="356" 
d="M165 725v-170h128v-40h-128v-433q0 -17 4 -26.5t10 -14t12 -5.5t11 -1q9 0 28.5 1.5t48.5 7.5l8 -36q-33 -5 -55 -9t-39 -4q-26 0 -47 22.5t-21 64.5v433h-103l10 40h93v159zM144 -129q0 17 11.5 28.5t28.5 11.5q19 0 31 -15q10 -11 10 -32q0 -20 -3 -39.5t-11.5 -38
t-24.5 -35.5t-42 -31l-13 17q18 15 28.5 27.5t15.5 23.5t6.5 21.5t1.5 21.5q-17 1 -28 12t-11 28z" />
    <glyph glyph-name="circumflex" unicode="&#x2c6;" horiz-adv-x="439" 
d="M356 604h-48l-95 107l-96 -107h-48l126 136h33z" />
    <glyph glyph-name="caron" unicode="&#x2c7;" horiz-adv-x="432" 
d="M228 604h-33l-126 136h48l96 -107l95 107h48z" />
    <glyph glyph-name="uni02C9" unicode="&#x2c9;" horiz-adv-x="451" 
d="M46 710h366v-40h-366v40z" />
    <glyph glyph-name="breve" unicode="&#x2d8;" horiz-adv-x="468" 
d="M232 602q-24 0 -46 8.5t-40 23.5t-32 34.5t-23 42.5l35 12q15 -37 42 -60t64 -23q38 0 66 24t43 59l33 -10q-8 -23 -22 -43t-33 -35t-41 -24t-46 -9z" />
    <glyph glyph-name="dotaccent" unicode="&#x2d9;" horiz-adv-x="241" 
d="M79 681q0 17 11.5 28.5t28.5 11.5t28.5 -11.5t11.5 -28.5t-11.5 -28.5t-28.5 -11.5t-28.5 11.5t-11.5 28.5z" />
    <glyph glyph-name="ring" unicode="&#x2da;" horiz-adv-x="424" 
d="M214 595q-39 0 -65.5 27t-26.5 66q0 19 7 35.5t19.5 29.5t29 20.5t36.5 7.5q19 0 35.5 -7.5t29 -20.5t19.5 -29.5t7 -35.5q0 -20 -7 -36.5t-19.5 -29.5t-29 -20t-35.5 -7zM214 625q26 0 42 18t16 45q0 26 -16 44.5t-42 18.5t-42.5 -18.5t-16.5 -44.5q0 -27 16.5 -45
t42.5 -18z" />
    <glyph glyph-name="ogonek" unicode="&#x2db;" horiz-adv-x="369" 
d="M157 -213q-48 0 -72 23.5t-24 61.5q0 22 6 46t19 45.5t32 39t45 26.5l39 -9q-29 -9 -49 -25.5t-32.5 -36t-18 -40.5t-5.5 -40q0 -26 16 -42.5t47 -16.5q23 0 46.5 6.5t38.5 14.5l-2 -29q-10 -8 -35 -16t-51 -8z" />
    <glyph glyph-name="tilde" unicode="&#x2dc;" horiz-adv-x="449" 
d="M216 666q-12 5 -23.5 9t-22.5 4t-31.5 -6t-39.5 -25l-14 23q15 16 26.5 25t21 13.5t19 5.5t21.5 1q13 0 28 -5.5t30 -13.5q11 -5 22 -7.5t22 -2.5t31.5 6t39.5 25l14 -23q-15 -16 -26.5 -25t-21 -13.5t-19 -5.5t-21.5 -1t-26.5 4.5t-29.5 11.5z" />
    <glyph glyph-name="hungarumlaut" unicode="&#x2dd;" horiz-adv-x="432" 
d="M194 712l-49 -116h-41l49 116h41zM334 712l-49 -116h-41l49 116h41z" />
    <glyph glyph-name="uni037E" unicode="&#x37e;" horiz-adv-x="170" 
d="M49 32q0 17 11.5 28.5t28.5 11.5q19 0 31 -15q10 -11 10 -32q0 -20 -3 -39.5t-11.5 -38t-24.5 -35.5t-42 -31l-13 17q18 15 28.5 27.5t15.5 23.5t6.5 21.5t1.5 21.5q-17 1 -28 12t-11 28zM50 450q0 17 11.5 28.5t28.5 11.5t28.5 -11.5t11.5 -28.5t-11.5 -28.5
t-28.5 -11.5t-28.5 11.5t-11.5 28.5z" />
    <glyph glyph-name="tonos" unicode="&#x384;" horiz-adv-x="155" 
d="M102 712v-126h-31l-27 126h58z" />
    <glyph glyph-name="dieresistonos" unicode="&#x385;" horiz-adv-x="481" 
d="M261 796v-126h-31l-27 126h58zM80 688q0 17 11.5 28.5t28.5 11.5t28.5 -11.5t11.5 -28.5t-11.5 -28.5t-28.5 -11.5t-28.5 11.5t-11.5 28.5zM310 688q0 17 11.5 28.5t28.5 11.5t28.5 -11.5t11.5 -28.5t-11.5 -28.5t-28.5 -11.5t-28.5 11.5t-11.5 28.5z" />
    <glyph glyph-name="Alphatonos" unicode="&#x386;" horiz-adv-x="707" 
d="M490 236h-270l-78 -236h-123v40h90l226 670h40l226 -670h90v-40h-123zM355 649l-124 -378h248zM150 712v-126h-31l-27 126h58z" />
    <glyph glyph-name="anoteleia" unicode="&#x387;" horiz-adv-x="207" 
d="M105 176q-33 0 -56 23t-23 58q0 34 23 57.5t56 23.5t55.5 -23.5t22.5 -57.5q0 -35 -22.5 -58t-55.5 -23z" />
    <glyph glyph-name="Epsilontonos" unicode="&#x388;" horiz-adv-x="647" 
d="M578 710v-143h-40v103h-336v-286h272v-40h-272v-304h356v103h40v-143h-527v40h91v630h-91v40h507zM41 712v-126h-31l-27 126h58z" />
    <glyph glyph-name="Etatonos" unicode="&#x389;" horiz-adv-x="813" 
d="M513 670v40h224v-40h-92v-630h92v-40h-224v40h92v306h-406v-306h92v-40h-224v40h92v630h-92v40h224v-40h-92v-285h406v285h-92zM39 712v-126h-31l-27 126h58z" />
    <glyph glyph-name="Iotatonos" unicode="&#x38a;" horiz-adv-x="302" 
d="M143 40v630h-92v40h224v-40h-92v-630h92v-40h-224v40h92zM24 712v-126h-31l-27 126h58z" />
    <glyph glyph-name="Omicrontonos" unicode="&#x38c;" horiz-adv-x="661" 
d="M601 311q0 -99 -22 -162t-59 -98.5t-86 -48.5t-104 -13t-104 13t-86 48.5t-59 98.5t-22 162v88q0 99 22 162t59 98.5t86 48.5t104 13t104 -13t86 -48.5t59 -98t22 -162.5v-88zM100 297q0 -86 19.5 -139t51.5 -82t73.5 -38.5t85.5 -9.5t85.5 9.5t73.5 38.5t51.5 82
t19.5 139v102q0 92 -19 147.5t-50.5 85.5t-73 40t-87.5 10t-87.5 -10t-73 -40t-50.5 -85.5t-19 -147.5v-102zM40 712v-126h-31l-27 126h58z" />
    <glyph glyph-name="Upsilontonos" unicode="&#x38e;" horiz-adv-x="693" 
d="M589 710h93v-40h-70l-237 -340v-291h92v-39h-224v39h92v291l-215 340h-70v40h93l212 -340zM30 712v-126h-31l-27 126h58z" />
    <glyph glyph-name="Omegatonos" unicode="&#x38f;" horiz-adv-x="640" 
d="M49 712v-126h-31l-27 126h58zM272 0h-173v40h133v59q-38 9 -69.5 28t-54.5 54.5t-36 89t-13 130.5q0 99 22 161t59 97.5t86 48.5t104 13t104 -13t86 -48t59 -97.5t22 -161.5q0 -78 -12.5 -132t-35.5 -89.5t-55 -54.5t-71 -27v-58h133v-40h-173v130q35 6 66.5 21t55 45.5
t37.5 79t14 121.5q0 93 -19 149t-50.5 86t-73 40t-87.5 10t-87.5 -10t-73 -40t-50.5 -86t-19 -149q0 -71 14 -119.5t37 -79t54 -46t65 -21.5z" />
    <glyph glyph-name="iotadieresistonos" unicode="&#x390;" horiz-adv-x="318" 
d="M4 688q0 17 11.5 28.5t28.5 11.5t28.5 -11.5t11.5 -28.5t-11.5 -28.5t-28.5 -11.5t-28.5 11.5t-11.5 28.5zM234 688q0 17 11.5 28.5t28.5 11.5t28.5 -11.5t11.5 -28.5t-11.5 -28.5t-28.5 -11.5t-28.5 11.5t-11.5 28.5zM282 40v-40h-223v40h91v471h-103v40h143v-511h92z
M180 797v-126h-31l-27 126h58z" />
    <glyph glyph-name="Alpha" unicode="&#x391;" horiz-adv-x="707" 
d="M490 236h-270l-78 -236h-123v40h90l226 670h40l226 -670h90v-40h-123zM355 649l-124 -378h248z" />
    <glyph glyph-name="Beta" unicode="&#x392;" horiz-adv-x="686" 
d="M66 40h83v630h-82v40h281q33 0 74 -4t77 -21t60 -51.5t24 -94.5v-8q-2 -66 -30 -100.5t-76 -48.5q38 -8 67.5 -22t49.5 -36t30 -53.5t10 -74.5q0 -58 -18 -95.5t-48 -60t-69 -31.5t-81 -9h-352v40zM413 40q37 0 70 8t57.5 26t39 47.5t14.5 73.5q0 52 -18 83.5t-47.5 49
t-68 23t-79.5 5.5h-192v-316h224zM189 394h150q41 0 78 4.5t65.5 19.5t45 43.5t16.5 75.5t-17.5 73.5t-46 40t-66.5 16.5t-78 3h-147v-276z" />
    <glyph glyph-name="Gamma" unicode="&#x393;" horiz-adv-x="576" 
d="M59 670v40h498v-143h-40v103h-326v-630h92v-40h-224v40h92v630h-92z" />
    <glyph glyph-name="Delta" unicode="&#x394;" horiz-adv-x="716" 
d="M39 0v41l284 669h40l308 -669v-41h-632zM87 40h536l-279 621z" />
    <glyph glyph-name="Epsilon" unicode="&#x395;" 
d="M566 710v-143h-40v103h-336v-286h272v-40h-272v-304h356v103h40v-143h-527v40h91v630h-91v40h507z" />
    <glyph glyph-name="Zeta" unicode="&#x396;" horiz-adv-x="634" 
d="M569 156h35v-156h-575v40l515 631h-470v-117h-35v156h556v-38l-516 -632h490v116z" />
    <glyph glyph-name="Eta" unicode="&#x397;" horiz-adv-x="804" 
d="M504 670v40h224v-40h-92v-630h92v-40h-224v40h92v306h-406v-306h92v-40h-224v40h92v630h-92v40h224v-40h-92v-285h406v285h-92z" />
    <glyph glyph-name="Theta" unicode="&#x398;" horiz-adv-x="661" 
d="M601 311q0 -99 -22 -162t-59 -98.5t-86 -48.5t-104 -13t-104 13t-86 48.5t-59 98.5t-22 162v88q0 99 22 162t59 98.5t86 48.5t104 13t104 -13t86 -48.5t59 -98t22 -162.5v-88zM100 297q0 -86 19.5 -139t51.5 -82t73.5 -38.5t85.5 -9.5t85.5 9.5t73.5 38.5t51.5 82
t19.5 139v102q0 92 -19 147.5t-50.5 85.5t-73 40t-87.5 10t-87.5 -10t-73 -40t-50.5 -85.5t-19 -147.5v-102zM148 372h366v-40h-366v40z" />
    <glyph glyph-name="Iota" unicode="&#x399;" horiz-adv-x="279" 
d="M120 40v630h-92v40h224v-40h-92v-630h92v-40h-224v40h92z" />
    <glyph glyph-name="Kappa" unicode="&#x39a;" horiz-adv-x="760" 
d="M699 710v-40h-92l-278 -350l235 -227q23 -23 44.5 -38.5t38.5 -25.5q10 -5 19 -10t17 -9l-11 -23q-14 -1 -36 8q-18 8 -46.5 27t-67.5 57l-332 321v-255q0 -57 -6 -89.5t-14 -51.5q-9 -22 -19 -31l-23 8q3 8 6 18t5 21q4 19 7.5 45t3.5 59v546h-103v40h143v-254l112 -109
l289 363h108z" />
    <glyph glyph-name="Lambda" unicode="&#x39b;" horiz-adv-x="721" 
d="M149 0h-123v40h90l226 670h40l226 -670h90v-40h-123l-213 647z" />
    <glyph glyph-name="Mu" unicode="&#x39c;" horiz-adv-x="1023" 
d="M943 40v-40h-226v40h93l-19 600l-278 -541h-22l-279 543l-20 -602h92v-40h-225v40h92l21 630h-92v40h137l285 -549l285 549h136v-40h-92l20 -630h92z" />
    <glyph glyph-name="Nu" unicode="&#x39d;" horiz-adv-x="835" 
d="M565 671v39h224v-39h-92v-631h92v-40h-144l-455 652v-612h92v-40h-234v40h102v631h-92v39h143l456 -653v614h-92z" />
    <glyph glyph-name="Xi" unicode="&#x39e;" horiz-adv-x="634" 
d="M151 387h364v-36h-364v36zM75 40h495v136h35v-176h-565v176h35v-136zM75 534h-35v176h565v-176h-35v136h-495v-136z" />
    <glyph glyph-name="Omicron" unicode="&#x39f;" horiz-adv-x="661" 
d="M601 311q0 -99 -22 -162t-59 -98.5t-86 -48.5t-104 -13t-104 13t-86 48.5t-59 98.5t-22 162v88q0 99 22 162t59 98.5t86 48.5t104 13t104 -13t86 -48.5t59 -98t22 -162.5v-88zM100 297q0 -86 19.5 -139t51.5 -82t73.5 -38.5t85.5 -9.5t85.5 9.5t73.5 38.5t51.5 82
t19.5 139v102q0 92 -19 147.5t-50.5 85.5t-73 40t-87.5 10t-87.5 -10t-73 -40t-50.5 -85.5t-19 -147.5v-102z" />
    <glyph glyph-name="Pi" unicode="&#x3a0;" horiz-adv-x="720" 
d="M592 710v-670h92v-40h-224v40h92v631h-406v-631h92v-40h-224v40h92v670h486z" />
    <glyph glyph-name="Rho" unicode="&#x3a1;" horiz-adv-x="640" 
d="M282 0h-225v40h93v630h-92v40h265q75 0 127 -11t84 -36t46 -65.5t14 -100.5t-15.5 -101t-48 -66t-84 -35.5t-123.5 -10.5h-133v-244h92v-40zM190 324h133q51 0 93.5 6t72.5 24t47 52t17 90q0 61 -17 96t-47.5 52.5t-72.5 21.5t-93 4h-133v-346z" />
    <glyph glyph-name="Sigma" unicode="&#x3a3;" horiz-adv-x="634" 
d="M79 40h490v116h35v-156h-575v40l257 315l-257 315v40h575v-156h-35v116h-490l257 -315z" />
    <glyph glyph-name="Tau" unicode="&#x3a4;" horiz-adv-x="698" 
d="M75 534h-35v176h619v-176h-35v136h-257v-631h102v-39h-244v39h102v631h-252v-136z" />
    <glyph glyph-name="Upsilon" unicode="&#x3a5;" horiz-adv-x="672" 
d="M568 710h93v-40h-70l-237 -340v-291h92v-39h-224v39h92v291l-215 340h-70v40h93l212 -340z" />
    <glyph glyph-name="Phi" unicode="&#x3a6;" horiz-adv-x="674" 
d="M373 576q75 0 123 -17t75 -47t37.5 -70.5t10.5 -87.5q0 -46 -10 -87t-37 -71.5t-75.5 -48t-125.5 -17.5h-16v-90h92v-40h-224v40h92v90h-17q-77 0 -125 17.5t-75.5 47.5t-37.5 70.5t-10 87.5q0 48 10 88.5t37 70.5t75 47t125 17h18v94h-92v40h224v-40h-92v-94h18zM89 353
q0 -31 6.5 -63.5t27 -59t59.5 -43.5t104 -17h29v366h-29q-64 0 -102.5 -16t-59.5 -42t-28 -58.5t-7 -66.5zM385 170q64 0 102.5 16t59 42t26.5 59t6 66q0 34 -6.5 67t-26.5 59t-59 41.5t-103 15.5h-29v-366h30z" />
    <glyph glyph-name="Chi" unicode="&#x3a7;" horiz-adv-x="730" 
d="M682 39v-39h-81l-247 325l-246 -325h-77v39h56l243 317l-242 315h-57v39h79l244 -323l245 323h83v-39h-63l-242 -315l243 -317h62z" />
    <glyph glyph-name="Psi" unicode="&#x3a8;" horiz-adv-x="780" 
d="M398 580v-288q30 1 62.5 10t59 25.5t43.5 41.5t17 58v283h131v-40h-91v-236q0 -42 -18 -75.5t-49 -56.5t-71 -36t-84 -14v-212h92v-40h-224v40h92v212q-44 1 -84.5 14t-71 36t-48.5 56.5t-18 75.5v236h-94v40h134v-283q0 -33 17 -58t43.5 -41.5t59 -25.5t62.5 -10v288h40
z" />
    <glyph glyph-name="Omega" unicode="&#x3a9;" horiz-adv-x="654" 
d="M272 0h-173v40h133v59q-38 9 -69.5 28t-54.5 54.5t-36 89t-13 130.5q0 99 22 161t59 97.5t86 48.5t104 13t104 -13t86 -48t59 -97.5t22 -161.5q0 -78 -12.5 -132t-35.5 -89.5t-55 -54.5t-71 -27v-58h133v-40h-173v130q35 6 66.5 21t55 45.5t37.5 79t14 121.5
q0 93 -19 149t-50.5 86t-73 40t-87.5 10t-87.5 -10t-73 -40t-50.5 -86t-19 -149q0 -71 14 -119.5t37 -79t54 -46t65 -21.5z" />
    <glyph glyph-name="Omega" unicode="&#x2126;" horiz-adv-x="654" 
d="M272 0h-173v40h133v59q-38 9 -69.5 28t-54.5 54.5t-36 89t-13 130.5q0 99 22 161t59 97.5t86 48.5t104 13t104 -13t86 -48t59 -97.5t22 -161.5q0 -78 -12.5 -132t-35.5 -89.5t-55 -54.5t-71 -27v-58h133v-40h-173v130q35 6 66.5 21t55 45.5t37.5 79t14 121.5
q0 93 -19 149t-50.5 86t-73 40t-87.5 10t-87.5 -10t-73 -40t-50.5 -86t-19 -149q0 -71 14 -119.5t37 -79t54 -46t65 -21.5z" />
    <glyph glyph-name="Iotadieresis" unicode="&#x3aa;" horiz-adv-x="279" 
d="M120 40v630h-92v40h224v-40h-92v-630h92v-40h-224v40h92zM-15 847q0 17 11.5 28.5t28.5 11.5t28.5 -11.5t11.5 -28.5t-11.5 -28.5t-28.5 -11.5t-28.5 11.5t-11.5 28.5zM215 847q0 17 11.5 28.5t28.5 11.5t28.5 -11.5t11.5 -28.5t-11.5 -28.5t-28.5 -11.5t-28.5 11.5
t-11.5 28.5z" />
    <glyph glyph-name="Upsilondieresis" unicode="&#x3ab;" horiz-adv-x="672" 
d="M568 710h93v-40h-70l-237 -340v-291h92v-39h-224v39h92v291l-215 340h-70v40h93l212 -340zM181 847q0 17 11.5 28.5t28.5 11.5t28.5 -11.5t11.5 -28.5t-11.5 -28.5t-28.5 -11.5t-28.5 11.5t-11.5 28.5zM411 847q0 17 11.5 28.5t28.5 11.5t28.5 -11.5t11.5 -28.5
t-11.5 -28.5t-28.5 -11.5t-28.5 11.5t-11.5 28.5z" />
    <glyph glyph-name="alphatonos" unicode="&#x3ac;" 
d="M512 466v-388q0 -17 3 -26.5t7 -14t9 -5.5t9 -1q9 0 23 1.5t36 9.5l12 -30q-29 -10 -46 -14.5t-34 -4.5q-37 0 -52 39q-12 -6 -25 -13.5t-32.5 -14t-48 -11t-71.5 -4.5q-47 0 -88.5 10t-72.5 37t-49 74.5t-18 122.5v66q0 77 18 127t49 79.5t72.5 41t89.5 11.5
q40 0 68 -5.5t47.5 -14.5t32.5 -19t24 -19q5 26 20.5 40t35.5 14q17 0 34 -4.5t46 -14.5l-13 -30q-22 8 -35.5 10t-22.5 2q-8 0 -18 -10.5t-10 -40.5zM472 470q-26 22 -71.5 37t-97.5 15q-32 0 -65.5 -9t-61 -32.5t-45 -64t-17.5 -104.5v-85q0 -64 16.5 -103.5t43.5 -61
t60.5 -29t68.5 -7.5h33q54 3 83.5 14t52.5 21v409zM354 712l-49 -116h-41l49 116h41z" />
    <glyph glyph-name="epsilontonos" unicode="&#x3ad;" horiz-adv-x="616" 
d="M447 262h-331v-35q0 -65 16.5 -103.5t42.5 -59t59 -27t65 -6.5q63 0 104.5 9t71.5 20l15 -37q-29 -11 -74.5 -22.5t-117.5 -11.5q-47 0 -87.5 10t-70.5 37t-47 74.5t-17 122.5v76q0 77 18 125.5t49.5 76t73 37.5t89.5 10q66 0 117 -23.5t77 -77.5l-33 -28
q-12 24 -29.5 40.5t-39 27.5t-45.5 16t-47 5q-32 0 -65.5 -5t-61.5 -26t-45.5 -64.5t-17.5 -120.5h331v-40zM344 712l-49 -116h-41l49 116h41z" />
    <glyph glyph-name="etatonos" unicode="&#x3ae;" horiz-adv-x="619" 
d="M69 0v460q0 19 -3 30.5t-7 17t-9 7t-9 1.5h-9.5t-11.5 -1l-9 35q8 2 19.5 3t19.5 1q23 0 39.5 -18.5t19.5 -55.5v-16q15 22 38.5 39.5t51.5 29.5t59 18.5t61 6.5q93 0 142.5 -47t49.5 -135v-548h44v-40h-84v595q0 34 -12 59.5t-32 42.5t-48 25t-59 8q-34 0 -67 -7.5
t-61.5 -22.5t-50 -38t-32.5 -54v-396h-40zM346 712l-49 -116h-41l49 116h41z" />
    <glyph glyph-name="iotatonos" unicode="&#x3af;" horiz-adv-x="318" 
d="M282 40v-40h-223v40h91v471h-103v40h143v-511h92zM180 772v-126h-31l-27 126h58z" />
    <glyph glyph-name="upsilondieresistonos" unicode="&#x3b0;" horiz-adv-x="633" 
d="M431 551h102v-460q0 -31 7 -44t24 -13q15 0 45 11l11 -29q-29 -10 -44.5 -14.5t-32.5 -4.5q-44 0 -50 74q-29 -44 -76.5 -61t-105.5 -17q-46 0 -85 10t-67 37t-44 75.5t-16 125.5v272h-64v38h104v-321q0 -65 14.5 -104t38.5 -60t54.5 -27.5t61.5 -6.5q32 0 65 3.5
t59.5 20t43.5 49.5t17 92v314h-62v40zM161 688q0 17 11.5 28.5t28.5 11.5t28.5 -11.5t11.5 -28.5t-11.5 -28.5t-28.5 -11.5t-28.5 11.5t-11.5 28.5zM391 688q0 17 11.5 28.5t28.5 11.5t28.5 -11.5t11.5 -28.5t-11.5 -28.5t-28.5 -11.5t-28.5 11.5t-11.5 28.5zM332 794v-126
h-31l-27 126h58z" />
    <glyph glyph-name="alpha" unicode="&#x3b1;" 
d="M512 466v-388q0 -17 3 -26.5t7 -14t9 -5.5t9 -1q9 0 23 1.5t36 9.5l12 -30q-29 -10 -46 -14.5t-34 -4.5q-37 0 -52 39q-12 -6 -25 -13.5t-32.5 -14t-48 -11t-71.5 -4.5q-47 0 -88.5 10t-72.5 37t-49 74.5t-18 122.5v66q0 77 18 127t49 79.5t72.5 41t89.5 11.5
q40 0 68 -5.5t47.5 -14.5t32.5 -19t24 -19q5 26 20.5 40t35.5 14q17 0 34 -4.5t46 -14.5l-13 -30q-22 8 -35.5 10t-22.5 2q-8 0 -18 -10.5t-10 -40.5zM472 470q-26 22 -71.5 37t-97.5 15q-32 0 -65.5 -9t-61 -32.5t-45 -64t-17.5 -104.5v-85q0 -64 16.5 -103.5t43.5 -61
t60.5 -29t68.5 -7.5h33q54 3 83.5 14t52.5 21v409z" />
    <glyph glyph-name="beta" unicode="&#x3b2;" horiz-adv-x="521" 
d="M137 30q6 -1 17 -1.5t23 -0.5h23.5h18.5q36 0 76.5 10t75 31t57.5 52.5t23 75.5q0 52 -19.5 83.5t-51 48.5t-71.5 22.5t-81 5.5h-43l-9 37h46q38 0 72.5 5.5t60.5 21t41 43.5t15 73q0 46 -14.5 73t-40 40.5t-59.5 17.5t-74 4q-68 0 -101.5 -41t-33.5 -134v-491
q0 -57 -6 -89.5t-14 -51.5q-9 -22 -19 -31l-24 8q3 8 6 18t5 21q4 19 7.5 45t3.5 59v515q0 64 15 105.5t39.5 65.5t55.5 33.5t63 9.5q34 0 75 -4.5t75.5 -22t58 -52.5t23.5 -95q0 -71 -28 -108t-72 -51q31 -8 56.5 -22t44 -35.5t28.5 -52.5t10 -73q0 -58 -26 -98t-66 -64.5
t-88 -35.5t-92 -11h-18.5t-23.5 0.5t-23.5 1t-17.5 0.5z" />
    <glyph glyph-name="gamma" unicode="&#x3b3;" horiz-adv-x="632" 
d="M418 -172v-40h-223v40h91v172l-165 511h-90v40h123l152 -489l170 489h123v-40h-90l-183 -508v-175h92z" />
    <glyph glyph-name="delta" unicode="&#x3b4;" horiz-adv-x="587" 
d="M122 710h365v-143h-40v103h-257l241 -197q38 -26 59.5 -76.5t21.5 -136.5v-23q0 -77 -17.5 -125.5t-48 -75.5t-71.5 -37t-87 -10q-47 0 -87.5 10t-70.5 37t-47 74.5t-17 122.5v26q0 77 17 125.5t47 76t70.5 37.5t88.5 10q10 0 20.5 -1.5t19.5 -2.5l-207 166v40zM472 271
q0 65 -17 104t-43.5 60t-59 28t-63.5 7q-32 0 -64.5 -7t-59 -28t-43 -60t-16.5 -103v-48q0 -65 16.5 -103.5t42.5 -58.5t59 -26.5t65 -6.5q29 0 61.5 6t59.5 26t44.5 58t17.5 103v49z" />
    <glyph glyph-name="epsilon" unicode="&#x3b5;" horiz-adv-x="616" 
d="M447 262h-331v-35q0 -65 16.5 -103.5t42.5 -59t59 -27t65 -6.5q63 0 104.5 9t71.5 20l15 -37q-29 -11 -74.5 -22.5t-117.5 -11.5q-47 0 -87.5 10t-70.5 37t-47 74.5t-17 122.5v76q0 77 18 125.5t49.5 76t73 37.5t89.5 10q66 0 117 -23.5t77 -77.5l-33 -28
q-12 24 -29.5 40.5t-39 27.5t-45.5 16t-47 5q-32 0 -65.5 -5t-61.5 -26t-45.5 -64.5t-17.5 -120.5h331v-40z" />
    <glyph glyph-name="zeta" unicode="&#x3b6;" horiz-adv-x="623" 
d="M385 -172q51 1 71.5 25.5t24.5 60.5q0 18 -7 33.5t-18.5 27t-27 18.5t-33.5 7h-72q-23 0 -50.5 2t-55 8.5t-53 18.5t-45.5 31.5t-32 48.5t-12 69q0 34 12 61t36 55t59.5 60t82.5 76l268 251h-456v-116h-35v156h545v-40l-328 -308q-37 -35 -64 -59.5t-45 -45.5
t-26.5 -41.5t-8.5 -46.5q0 -45 17 -72.5t44.5 -42.5t63.5 -20t75 -5h80q27 0 50 -10t40 -27t26.5 -40t9.5 -49q0 -53 -36 -83t-89 -30z" />
    <glyph glyph-name="eta" unicode="&#x3b7;" horiz-adv-x="619" 
d="M69 0v460q0 19 -3 30.5t-7 17t-9 7t-9 1.5h-9.5t-11.5 -1l-9 35q8 2 19.5 3t19.5 1q23 0 39.5 -18.5t19.5 -55.5v-16q15 22 38.5 39.5t51.5 29.5t59 18.5t61 6.5q93 0 142.5 -47t49.5 -135v-548h44v-40h-84v595q0 34 -12 59.5t-32 42.5t-48 25t-59 8q-34 0 -67 -7.5
t-61.5 -22.5t-50 -38t-32.5 -54v-396h-40z" />
    <glyph glyph-name="theta" unicode="&#x3b8;" horiz-adv-x="475" 
d="M434 356q0 -106 -16 -176.5t-44 -113t-64.5 -60t-76.5 -17.5q-41 0 -77 17.5t-64 60t-44 113t-16 176.5q0 100 16 170t44 113t64 62.5t77 19.5q40 0 76.5 -19.5t64.5 -62.5t44 -113t16 -170zM233 28q33 0 62.5 14.5t52 49.5t35.5 95t13 151h-324q0 -91 12.5 -151t34 -95
t51 -49.5t63.5 -14.5zM233 682q-32 0 -60.5 -16.5t-50.5 -53t-35.5 -94.5t-14.5 -140h324q-1 82 -14.5 140t-36 94.5t-51.5 53t-61 16.5z" />
    <glyph glyph-name="iota" unicode="&#x3b9;" horiz-adv-x="318" 
d="M117 695q0 17 11.5 28.5t28.5 11.5t28.5 -11.5t11.5 -28.5t-11.5 -28.5t-28.5 -11.5t-28.5 11.5t-11.5 28.5zM282 36v-36h-223v36h91v480h-103v35h143v-515h92z" />
    <glyph glyph-name="kappa" unicode="&#x3ba;" horiz-adv-x="645" 
d="M558 551v-35h-92l-189 -238l192 -185q23 -23 44.5 -38.5t38.5 -25.5q10 -5 19 -10t17 -9l-11 -23q-14 -1 -36 8q-18 8 -46.5 27t-67.5 57l-272 262v-196q0 -57 -6 -89.5t-14 -51.5q-9 -22 -19 -31l-23 8q3 8 6 18t5 21q4 19 7.5 45t3.5 59v611h-103v35h143v-373l97 -94
l198 248h108z" />
    <glyph glyph-name="lambda" unicode="&#x3bb;" horiz-adv-x="686" 
d="M345 430l-223 -430h-93v40h70l225 427l-109 203h-85v40h108l353 -670h70v-40h-93z" />
    <glyph glyph-name="uni03BC" unicode="&#x3bc;" horiz-adv-x="597" 
d="M97 552v-383q0 -69 33.5 -102t96.5 -33q34 0 67 7.5t61.5 22.5t50 38t32.5 54v396h40v-460q0 -20 3 -30.5t7 -16t9 -6.5t9 -1h9q7 0 12 1l9 -37q-8 -2 -19.5 -3t-19.5 -1q-23 0 -39.5 18.5t-19.5 55.5v16q-15 -22 -38.5 -39.5t-51.5 -29.5t-59 -18.5t-61 -6.5
q-91 0 -130 47v-115q0 -59 -6.5 -90.5t-13.5 -50.5q-9 -22 -19 -31l-23 8q3 8 6 18t5 21q4 19 7 45t3 59v647h40z" />
    <glyph glyph-name="nu" unicode="&#x3bd;" horiz-adv-x="602" 
d="M460 551h123v-40h-90l-184 -511h-40l-164 511h-90v40h123l152 -489z" />
    <glyph glyph-name="xi" unicode="&#x3be;" horiz-adv-x="592" 
d="M41 670v40h521v-176h-35v136h-183q-33 -2 -64.5 -8.5t-56.5 -21.5t-40.5 -40t-15.5 -64q0 -45 16 -73t42.5 -43.5t60.5 -21t70 -5.5h46l-9 -37h-43q-41 0 -79.5 -5.5t-68 -22.5t-47.5 -48.5t-18 -83.5q0 -47 11 -79.5t35 -52.5t61 -29.5t89 -9.5h52q27 0 50 -10t40 -27
t26.5 -40t9.5 -49q0 -53 -36 -83t-89 -30l-11 27q51 1 71.5 25.5t24.5 60.5q0 18 -7 33.5t-18.5 27t-27 18.5t-33.5 7h-54q-120 0 -177 48t-57 164q0 84 33.5 125.5t95.5 57.5q-44 14 -70 48t-28 102v8q0 53 25 84t63 48h-175z" />
    <glyph glyph-name="omicron" unicode="&#x3bf;" horiz-adv-x="553" 
d="M46 309q0 77 17 125.5t47 76t70.5 37.5t88.5 10q46 0 86.5 -10t70.5 -37.5t47 -76t17 -124.5v-73q0 -77 -17.5 -125.5t-47.5 -75.5t-70.5 -37t-86.5 -10q-47 0 -87.5 10t-70.5 37t-47 74.5t-17 122.5v76zM452 321q0 65 -17 104.5t-43.5 61.5t-59 29t-63.5 7
q-32 0 -64.5 -7.5t-59 -29.5t-43 -61t-16.5 -103v-98q0 -65 16.5 -104t42.5 -60t59 -28t65 -7q29 0 61.5 6.5t59.5 27.5t44.5 59.5t17.5 103.5v99z" />
    <glyph glyph-name="pi" unicode="&#x3c0;" horiz-adv-x="745" 
d="M190 511v-471h92v-40h-224v40h92v471h-92v40h630v-40h-92v-471h92v-40h-224v40h92v471h-366z" />
    <glyph glyph-name="rho" unicode="&#x3c1;" horiz-adv-x="625" 
d="M116 -212v521q0 77 17 125.5t47 76t70.5 37.5t88.5 10q46 0 87 -10t71 -37.5t47.5 -76t17.5 -124.5v-77q0 -75 -18 -122.5t-49 -74.5t-72.5 -37t-88.5 -10q-40 0 -68 3t-48 8t-34.5 12.5t-27.5 16.5v-228zM156 62q14 -6 29.5 -12.5t36 -11.5t47.5 -8.5t64 -3.5
q34 0 68 7.5t61 29t43.5 61t16.5 103.5v94q0 65 -17 104t-43.5 60t-59 28t-63.5 7q-32 0 -64.5 -7t-59 -28t-43 -60t-16.5 -103v-260z" />
    <glyph glyph-name="uni03C2" unicode="&#x3c2;" horiz-adv-x="467" 
d="M312 -187q51 1 71.5 25.5t24.5 60.5q0 18 -7 33.5t-18.5 27t-27 18.5t-33.5 7h-52q-47 0 -87.5 10.5t-70.5 38.5t-47.5 76t-17.5 123v76q0 77 18 125.5t49.5 76t73 37.5t89.5 10q15 0 30 -0.5t33 -3t40.5 -7.5t52.5 -14l-1 -3v-110h-35v84q-32 10 -65.5 14t-54.5 4
q-32 0 -65.5 -7.5t-61.5 -29t-45.5 -60.5t-17.5 -103v-95q0 -65 16.5 -104.5t42.5 -61.5t59 -29t65 -7h52q27 0 50 -10t40 -27t26.5 -40t9.5 -49q0 -53 -36 -83t-89 -30h-1z" />
    <glyph glyph-name="sigma" unicode="&#x3c3;" horiz-adv-x="587" 
d="M66 309q0 77 17 125.5t47 76t70.5 37.5t88.5 10h264v-36h-130q36 -26 62.5 -76.5t26.5 -135.5v-73q0 -77 -17.5 -125.5t-48 -75.5t-71.5 -37t-87 -10q-47 0 -87.5 10t-70.5 37t-47 74.5t-17 122.5v76zM472 321q0 65 -17 104t-43.5 60t-59 28t-63.5 7q-32 0 -64.5 -7
t-59 -28t-43 -60t-16.5 -103v-98q0 -65 16.5 -103.5t42.5 -58.5t59 -26.5t65 -6.5q29 0 61.5 6t59.5 26t44.5 58t17.5 103v99z" />
    <glyph glyph-name="tau" unicode="&#x3c4;" horiz-adv-x="545" 
d="M77 375h-35v176h459v-176h-35v136h-177v-472h102v-39h-244v39h102v472h-172v-136z" />
    <glyph glyph-name="upsilon" unicode="&#x3c5;" horiz-adv-x="633" 
d="M431 551h102v-460q0 -31 7 -44t24 -13q15 0 45 11l11 -29q-29 -10 -44.5 -14.5t-32.5 -4.5q-44 0 -50 74q-29 -44 -76.5 -61t-105.5 -17q-46 0 -85 10t-67 37t-44 75.5t-16 125.5v272h-64v38h104v-321q0 -65 14.5 -104t38.5 -60t54.5 -27.5t61.5 -6.5q32 0 65 3.5
t59.5 20t43.5 49.5t17 92v314h-62v40z" />
    <glyph glyph-name="phi" unicode="&#x3c6;" horiz-adv-x="544" 
d="M287 711v-154q43 -2 80.5 -13.5t65 -39t43.5 -74.5t16 -120v-73q0 -73 -16 -120t-44 -75t-65 -39.5t-80 -12.5v-203h-36v203q-44 1 -81.5 12.5t-65 39t-43 73.5t-15.5 118v76q0 73 15.5 120.5t43 75t65 39t81.5 13.5v154h36zM86 322v-98q0 -60 14.5 -97.5t37.5 -58.5
t53 -29.5t60 -9.5v490q-30 -2 -60 -10.5t-53 -30.5t-37.5 -59.5t-14.5 -96.5zM452 321q0 60 -14.5 98t-38 59.5t-53 30t-59.5 10.5v-490q28 1 57.5 9t53.5 29t39 58t15 97v99z" />
    <glyph glyph-name="chi" unicode="&#x3c7;" horiz-adv-x="669" 
d="M615 40v-40h-81l-204 246l-202 -244v-2h-77v40h56l198 236l-197 235h-57v40h79l200 -245l202 245h83v-40h-63l-197 -235l198 -236h62z" />
    <glyph glyph-name="psi" unicode="&#x3c8;" horiz-adv-x="597" 
d="M321 711v-682q30 1 60 9.5t53 29.5t37.5 58.5t14.5 97.5v156q0 66 14 114l38 -13q-12 -36 -12 -90v-158q0 -72 -15.5 -118t-43 -73.5t-65 -39t-81.5 -12.5v-203h-40v203q-43 1 -80.5 12.5t-65 39.5t-43.5 75t-16 120v154q0 54 -12 90l38 13q14 -48 14 -114v-158
q0 -60 15 -97t39 -58t53.5 -29t57.5 -9v682h40z" />
    <glyph glyph-name="omega" unicode="&#x3c9;" horiz-adv-x="735" 
d="M81 166v244q0 57 6 89.5t14 51.5q9 22 19 31l23 -8q-3 -8 -6 -18t-5 -21q-4 -19 -7.5 -45t-3.5 -59v-263q0 -28 5.5 -52.5t19 -43t35.5 -29t55 -10.5q39 0 62 13.5t35 35.5t16 50.5t4 59.5v240h40v-240q0 -31 4 -59.5t16 -50.5t35 -35.5t62 -13.5q33 0 55 10.5t35.5 29
t19 43t5.5 52.5v263q0 33 -3.5 59t-7.5 45q-2 11 -5 21t-6 18l23 8q10 -9 19 -31q8 -19 14 -51.5t6 -89.5v-244q0 -33 -7.5 -64t-25 -55t-47.5 -39t-75 -15q-63 0 -93.5 25.5t-43.5 75.5q-14 -50 -44.5 -75.5t-92.5 -25.5q-45 0 -75 15t-47.5 39t-25 55t-7.5 64z" />
    <glyph glyph-name="iotadieresis" unicode="&#x3ca;" horiz-adv-x="318" 
d="M4 688q0 17 11.5 28.5t28.5 11.5t28.5 -11.5t11.5 -28.5t-11.5 -28.5t-28.5 -11.5t-28.5 11.5t-11.5 28.5zM234 688q0 17 11.5 28.5t28.5 11.5t28.5 -11.5t11.5 -28.5t-11.5 -28.5t-28.5 -11.5t-28.5 11.5t-11.5 28.5zM282 40v-40h-223v40h91v471h-103v40h143v-511h92z
" />
    <glyph glyph-name="upsilondieresis" unicode="&#x3cb;" horiz-adv-x="633" 
d="M431 551h102v-460q0 -31 7 -44t24 -13q15 0 45 11l11 -29q-29 -10 -44.5 -14.5t-32.5 -4.5q-44 0 -50 74q-29 -44 -76.5 -61t-105.5 -17q-46 0 -85 10t-67 37t-44 75.5t-16 125.5v272h-64v38h104v-321q0 -65 14.5 -104t38.5 -60t54.5 -27.5t61.5 -6.5q32 0 65 3.5
t59.5 20t43.5 49.5t17 92v314h-62v40zM161 688q0 17 11.5 28.5t28.5 11.5t28.5 -11.5t11.5 -28.5t-11.5 -28.5t-28.5 -11.5t-28.5 11.5t-11.5 28.5zM391 688q0 17 11.5 28.5t28.5 11.5t28.5 -11.5t11.5 -28.5t-11.5 -28.5t-28.5 -11.5t-28.5 11.5t-11.5 28.5z" />
    <glyph glyph-name="omicrontonos" unicode="&#x3cc;" horiz-adv-x="533" 
d="M36 309q0 77 17 125.5t47 76t70.5 37.5t88.5 10q46 0 86.5 -10t70.5 -37.5t47 -76t17 -124.5v-73q0 -77 -17.5 -125.5t-47.5 -75.5t-70.5 -37t-86.5 -10q-47 0 -87.5 10t-70.5 37t-47 74.5t-17 122.5v76zM442 321q0 65 -17 104.5t-43.5 61.5t-59 29t-63.5 7
q-32 0 -64.5 -7.5t-59 -29.5t-43 -61t-16.5 -103v-98q0 -65 16.5 -104t42.5 -60t59 -28t65 -7q29 0 61.5 6.5t59.5 27.5t44.5 59.5t17.5 103.5v99zM286 712v-126h-31l-27 126h58z" />
    <glyph glyph-name="upsilontonos" unicode="&#x3cd;" horiz-adv-x="633" 
d="M431 551h102v-460q0 -31 7 -44t24 -13q15 0 45 11l11 -29q-29 -10 -44.5 -14.5t-32.5 -4.5q-44 0 -50 74q-29 -44 -76.5 -61t-105.5 -17q-46 0 -85 10t-67 37t-44 75.5t-16 125.5v272h-64v38h104v-321q0 -65 14.5 -104t38.5 -60t54.5 -27.5t61.5 -6.5q32 0 65 3.5
t59.5 20t43.5 49.5t17 92v314h-62v40zM332 714v-126h-31l-27 126h58z" />
    <glyph glyph-name="omegatonos" unicode="&#x3ce;" horiz-adv-x="755" 
d="M81 166v244q0 57 6 89.5t14 51.5q9 22 19 31l23 -8q-3 -8 -6 -18t-5 -21q-4 -19 -7.5 -45t-3.5 -59v-263q0 -28 5.5 -52.5t19 -43t35.5 -29t55 -10.5q39 0 62 13.5t35 35.5t16 50.5t4 59.5v240h40v-240q0 -31 4 -59.5t16 -50.5t35 -35.5t62 -13.5q33 0 55 10.5t35.5 29
t19 43t5.5 52.5v263q0 33 -3.5 59t-7.5 45q-2 11 -5 21t-6 18l23 8q10 -9 19 -31q8 -19 14 -51.5t6 -89.5v-244q0 -33 -7.5 -64t-25 -55t-47.5 -39t-75 -15q-63 0 -93.5 25.5t-43.5 75.5q-14 -50 -44.5 -75.5t-92.5 -25.5q-45 0 -75 15t-47.5 39t-25 55t-7.5 64zM391 712
v-126h-31l-27 126h58z" />
    <glyph glyph-name="uni03D0" unicode="&#x3d0;" horiz-adv-x="551" 
d="M157 30q6 -1 17 -1.5t23 -0.5h23.5h18.5q36 0 76.5 10t75 31t57.5 52.5t23 75.5q0 52 -19.5 83.5t-51 48.5t-71.5 22.5t-81 5.5h-43l-9 37h46q38 0 72.5 5.5t60.5 21t41 43.5t15 73q0 46 -14.5 73t-40 40.5t-59.5 17.5t-74 4q-68 0 -101.5 -41t-33.5 -134v-491
q0 -57 -6 -89.5t-14 -51.5q-9 -22 -19 -31l-24 8q3 8 6 18t5 21q4 19 7.5 45t3.5 59v515q0 64 15 105.5t39.5 65.5t55.5 33.5t63 9.5q34 0 75 -4.5t75.5 -22t58 -52.5t23.5 -95q0 -71 -28 -108t-72 -51q31 -8 56.5 -22t44 -35.5t28.5 -52.5t10 -73q0 -58 -26 -98t-66 -64.5
t-88 -35.5t-92 -11h-18.5t-23.5 0.5t-23.5 1t-17.5 0.5z" />
    <glyph glyph-name="uni03D1" unicode="&#x3d1;" horiz-adv-x="640" 
d="M636 318l-9 -40h-79v-26q0 -77 -23.5 -125.5t-61.5 -76t-85.5 -37.5t-95.5 -10q-42 0 -100 8.5t-136 43.5l19 36q24 -14 54.5 -23t60.5 -14.5t56.5 -8t43.5 -2.5q32 0 71.5 6t74.5 26.5t58.5 58.5t23.5 102v42h-221q-47 0 -90 8.5t-76 34t-53 72t-20 121.5
q0 68 19.5 111.5t53 68t79 33.5t96.5 9q61 0 108.5 -8t79 -37t48 -86t16.5 -154v-133h88zM508 457q0 84 -15 132t-43 72t-67.5 30t-87.5 6q-40 0 -77.5 -5t-66 -24t-46 -55t-17.5 -98q0 -65 18.5 -103.5t47.5 -59.5t64.5 -27.5t69.5 -6.5h220v139z" />
    <glyph glyph-name="uni03F0" unicode="&#x3f0;" horiz-adv-x="669" 
d="M615 40v-40h-81l-204 246l-202 -244v-2h-77v40h56l198 236l-197 235h-57v40h79l200 -245l202 245h83v-40h-63l-197 -235l198 -236h62z" />
    <glyph glyph-name="afii10023" unicode="&#x401;" 
d="M557 710v-143h-35v103h-336v-287h272v-39h-272v-304h356v103h35v-143h-513v40h82v630h-82v40h493zM162 847q0 17 11.5 28.5t28.5 11.5t28.5 -11.5t11.5 -28.5t-11.5 -28.5t-28.5 -11.5t-28.5 11.5t-11.5 28.5zM392 847q0 17 11.5 28.5t28.5 11.5t28.5 -11.5t11.5 -28.5
t-11.5 -28.5t-28.5 -11.5t-28.5 11.5t-11.5 28.5z" />
    <glyph glyph-name="afii10051" unicode="&#x402;" horiz-adv-x="767" 
d="M65 534h-35v176h619v-176h-35v136h-255v-320q29 44 76.5 61t105.5 17q44 0 81 -9t63.5 -33.5t41.5 -68t15 -111.5q0 -61 -14.5 -100.5t-42 -63t-66 -33t-86.5 -9.5v38q40 1 71.5 8.5t53 26t33 50.5t11.5 83q0 57 -14 92.5t-36.5 56t-51 28t-58.5 7.5q-31 0 -63.5 -4
t-59 -21t-43.5 -51t-17 -93v-181h101v-40h-244v40h102v630h-253v-136z" />
    <glyph glyph-name="afii10052" unicode="&#x403;" horiz-adv-x="576" 
d="M59 670v40h498v-143h-40v103h-326v-630h92v-40h-224v40h92v630h-92zM324 871l-49 -116h-41l49 116h41z" />
    <glyph glyph-name="afii10053" unicode="&#x404;" horiz-adv-x="602" 
d="M559 683v-139h-40v110q-22 7 -46 12.5t-47.5 9t-44 5t-35.5 1.5q-45 0 -89 -7.5t-79 -35t-56.5 -82t-21.5 -148.5v-30h352v-40h-352v-38q0 -84 18 -137t49.5 -83t74 -41.5t92.5 -11.5q40 0 75.5 6t65.5 14.5t54.5 17.5t43.5 16l16 -38q-20 -7 -45 -16.5t-56.5 -18
t-69.5 -14.5t-84 -6q-57 0 -107 12.5t-87.5 47t-59 95.5t-21.5 157v95q0 91 17.5 153t53 100.5t89.5 55.5t127 17q33 0 84 -7.5t129 -31.5z" />
    <glyph glyph-name="afii10054" unicode="&#x405;" horiz-adv-x="609" 
d="M62 22v133h39v-100q24 -6 52.5 -11t56 -8t51 -5t37.5 -2q39 0 79.5 9.5t73.5 28.5t53.5 47t20.5 65q0 45 -21 75t-52.5 49t-69.5 29.5t-72 16.5q-128 23 -187 73t-59 133q0 44 19 76t53.5 52.5t83.5 30t108 9.5q19 0 38 -1.5t42 -5t51.5 -11t66.5 -19.5v-124h-40v95
q-42 12 -86 19t-72 7q-40 0 -79.5 -5.5t-71 -19.5t-51.5 -39t-20 -64q0 -36 14 -62.5t40 -45.5t63.5 -32t85.5 -23q21 -5 48.5 -9.5t56.5 -12.5t56.5 -21.5t49 -36t34.5 -55t13 -79.5q0 -43 -20 -78t-55.5 -59.5t-85 -38t-108.5 -13.5q-38 0 -99.5 5t-136.5 28z" />
    <glyph glyph-name="afii10055" unicode="&#x406;" horiz-adv-x="279" 
d="M120 40v630h-92v40h224v-40h-92v-630h92v-40h-224v40h92z" />
    <glyph glyph-name="afii10056" unicode="&#x407;" horiz-adv-x="279" 
d="M120 40v630h-92v40h224v-40h-92v-630h92v-40h-224v40h92zM-15 847q0 17 11.5 28.5t28.5 11.5t28.5 -11.5t11.5 -28.5t-11.5 -28.5t-28.5 -11.5t-28.5 11.5t-11.5 28.5zM215 847q0 17 11.5 28.5t28.5 11.5t28.5 -11.5t11.5 -28.5t-11.5 -28.5t-28.5 -11.5t-28.5 11.5
t-11.5 28.5z" />
    <glyph glyph-name="afii10057" unicode="&#x408;" horiz-adv-x="454" 
d="M48 52q23 -14 49.5 -21t50.5 -7q31 0 63.5 7t58.5 28t42.5 59.5t16.5 102.5v449h-103v40h143v-472q0 -77 -17 -125.5t-46.5 -76t-70 -37.5t-88.5 -10q-31 0 -60.5 9t-54.5 23z" />
    <glyph glyph-name="afii10058" unicode="&#x409;" horiz-adv-x="982" 
d="M210 670v-441q0 -68 -14 -112t-41 -70t-66.5 -36.5t-89.5 -10.5v38q42 1 74 9.5t53.5 30t32 58.5t10.5 95v439h-91v40h619v-40h-111v-276h87q53 0 103 -7t88.5 -28t62 -60t23.5 -103q0 -58 -18 -95.5t-48 -60t-69 -31.5t-81 -9h-282v40h93v630h-335zM729 40q37 0 70 8
t57.5 26t39 47.5t14.5 73.5q0 52 -18 83.5t-47.5 49t-68 23t-79.5 5.5h-111v-316h143z" />
    <glyph glyph-name="afii10059" unicode="&#x40a;" horiz-adv-x="996" 
d="M697 670h-111v-276h87q53 0 103 -7t88.5 -28t62 -60t23.5 -103q0 -58 -18 -95.5t-48 -60t-69 -31.5t-81 -9h-282v40h93v314h-355v-314h92v-40h-224v40h92v630h-92v40h224v-40h-92v-277h355v277h-92v40h244v-40zM729 40q37 0 70 8t57.5 26t39 47.5t14.5 73.5
q0 52 -18 83.5t-47.5 49t-68 23t-79.5 5.5h-111v-316h143z" />
    <glyph glyph-name="afii10060" unicode="&#x40b;" horiz-adv-x="833" 
d="M65 534h-35v176h619v-176h-35v136h-256v-320q29 44 76.5 61t105.5 17q46 0 83.5 -10t64.5 -37t41.5 -75.5t14.5 -125.5v-140h44v-40h-84v191q0 65 -13.5 104t-36.5 60t-52.5 28t-60.5 7t-63.5 -4t-59 -21t-43.5 -51t-17 -93v-182h101v-39h-244v39h102v631h-252v-136z" />
    <glyph glyph-name="afii10061" unicode="&#x40c;" horiz-adv-x="760" 
d="M709 710v-40h-92l-278 -350l235 -227q23 -23 44.5 -38.5t38.5 -25.5q10 -5 19 -10t17 -9l-11 -23q-14 -1 -36 8q-18 8 -46.5 27t-67.5 57l-332 321v-255q0 -57 -6 -89.5t-14 -51.5q-9 -22 -19 -31l-23 8q3 8 6 18t5 21q4 19 7.5 45t3.5 59v546h-103v40h143v-254l112 -109
l289 363h108zM416 871l-49 -116h-41l49 116h41z" />
    <glyph glyph-name="afii10062" unicode="&#x40e;" horiz-adv-x="715" 
d="M564 710h93v-40h-70l-352 -670h-109v40h85l109 203l-225 427h-70v40h93l223 -430zM359 761q-24 0 -46 8.5t-40 23.5t-32 34.5t-23 42.5l35 12q15 -37 42 -60t64 -23q38 0 66 24t43 59l33 -10q-8 -23 -22 -43t-33 -35t-41 -24t-46 -9z" />
    <glyph glyph-name="afii10145" unicode="&#x40f;" horiz-adv-x="739" 
d="M556 40v670h132v-40h-92v-630h92v-40h-295v-137h-40v137h-295v40h92v630h-92v40h132v-670h366z" />
    <glyph glyph-name="afii10017" unicode="&#x410;" horiz-adv-x="707" 
d="M490 236h-270l-78 -236h-123v40h90l226 670h40l226 -670h90v-40h-123zM355 647l-124 -371h248z" />
    <glyph glyph-name="afii10018" unicode="&#x411;" horiz-adv-x="681" 
d="M57 670v40h518v-143h-40v103h-346v-276h168q53 0 103 -7t88.5 -28t62 -60t23.5 -103q0 -58 -18 -95.5t-48 -60t-69 -31.5t-81 -9h-361v40h92v630h-92zM413 40q37 0 70 8t57.5 26t39 47.5t14.5 73.5q0 52 -18 83.5t-47.5 49t-68 23t-79.5 5.5h-192v-316h224z" />
    <glyph glyph-name="afii10019" unicode="&#x412;" horiz-adv-x="686" 
d="M57 40h93v630h-92v40h291q33 0 74 -4t77 -21.5t60.5 -52t24.5 -94.5q0 -68 -29.5 -105t-77.5 -51q38 -8 67.5 -22t49.5 -36t30 -53.5t10 -74.5q0 -58 -18 -95.5t-48 -60t-69 -31.5t-81 -9h-362v40zM414 40q37 0 70 8t57.5 26t39 47.5t14.5 73.5q0 52 -18 83.5t-47.5 49
t-68 23t-79.5 5.5h-192v-316h224zM190 394h150q41 0 78 4.5t65.5 19.5t45 43.5t16.5 75.5t-17.5 73.5t-46 40t-66.5 16.5t-78 3h-147v-276z" />
    <glyph glyph-name="afii10020" unicode="&#x413;" horiz-adv-x="576" 
d="M59 670v40h498v-143h-40v103h-326v-630h92v-40h-224v40h92v630h-92z" />
    <glyph glyph-name="afii10021" unicode="&#x414;" horiz-adv-x="791" 
d="M760 40v-157h-40v116h-640v-116h-40v157h43q35 3 62.5 14t46.5 32.5t29 56.5t10 88v439h-91v40h590v-40h-92v-630h122zM272 670v-440q0 -74 -18 -119.5t-50 -70.5h394v630h-326z" />
    <glyph glyph-name="afii10022" unicode="&#x415;" 
d="M557 710v-143h-35v103h-336v-287h272v-39h-272v-304h356v103h35v-143h-513v40h82v630h-82v40h493z" />
    <glyph glyph-name="afii10024" unicode="&#x416;" horiz-adv-x="1048" 
d="M1019 710v-40h-92l-278 -350l235 -227q23 -23 44.5 -38.5t38.5 -25.5q10 -5 19 -10t17 -9l-11 -23q-14 -1 -36 8q-18 8 -46.5 27t-67.5 57l-302 292v-331h92v-40h-224v40h92v331l-302 -292q-39 -38 -67.5 -57t-46.5 -27q-22 -9 -36 -8l-11 23q8 4 17 9t19 10
q17 10 38.5 25.5t44.5 38.5l235 227l-278 350h-92v40h108l289 -363l82 80v243h-92v40h224v-40h-92v-243l82 -80l289 363h108z" />
    <glyph glyph-name="afii10025" unicode="&#x417;" horiz-adv-x="616" 
d="M84 674q39 12 67.5 19.5t51.5 12t42.5 6.5t39.5 2h7q33 0 76 -4.5t81 -22.5t64 -53t26 -95v-8q-2 -68 -28 -102t-70 -48q62 -16 95.5 -57.5t33.5 -125.5q0 -58 -27 -98t-67.5 -64.5t-88 -35.5t-89.5 -11t-78.5 5t-67 12.5t-55.5 16t-44 15.5l22 35q38 -14 93 -30.5
t130 -16.5q37 1 77.5 11.5t75 31.5t57 52.5t22.5 75.5q0 52 -18 83.5t-47.5 48.5t-68 22.5t-79.5 5.5h-63l-9 37h66q38 0 72.5 5.5t60.5 21t41 43.5t15 73q0 46 -17 73t-45.5 40.5t-65 17.5t-76.5 4h-5q-15 0 -35 -2t-42.5 -6t-46 -9.5t-45.5 -12.5v-110h-38v142z" />
    <glyph glyph-name="afii10026" unicode="&#x418;" horiz-adv-x="835" 
d="M188 671v-614l456 653h143v-39h-92v-631h94v-40h-226v40h92v612l-455 -652h-141v40h89v631h-92v39h224v-39h-92z" />
    <glyph glyph-name="afii10027" unicode="&#x419;" horiz-adv-x="835" 
d="M188 671v-614l456 653h143v-39h-92v-631h94v-40h-226v40h92v612l-455 -652h-141v40h89v631h-92v39h224v-39h-92zM425 761q-24 0 -46 8.5t-40 23.5t-32 34.5t-23 42.5l35 12q15 -37 42 -60t64 -23q38 0 66 24t43 59l33 -10q-8 -23 -22 -43t-33 -35t-41 -24t-46 -9z" />
    <glyph glyph-name="afii10028" unicode="&#x41a;" horiz-adv-x="741" 
d="M709 710v-40h-92l-278 -350l235 -227q23 -23 44.5 -38.5t38.5 -25.5q10 -5 19 -10t17 -9l-11 -23q-14 -1 -36 8q-18 8 -46.5 27t-67.5 57l-332 321v-255q0 -57 -6 -89.5t-14 -51.5q-9 -22 -19 -31l-23 8q3 8 6 18t5 21q4 19 7.5 45t3.5 59v546h-103v40h143v-254l112 -109
l289 363h108z" />
    <glyph glyph-name="afii10029" unicode="&#x41b;" horiz-adv-x="770" 
d="M212 670v-440h-2q-2 -69 -16 -113.5t-40 -70.5t-64.5 -36t-88.5 -10v38q42 1 74 9.5t53.5 30t32 58.5t10.5 95v439h-91v40h650v-40h-92v-630h92v-40h-224v40h92v630h-386z" />
    <glyph glyph-name="afii10030" unicode="&#x41c;" horiz-adv-x="958" 
d="M923 40v-40h-226v40h93l-19 600l-278 -541h-22l-279 543l-20 -602h92v-40h-225v40h92l21 630h-92v40h137l285 -549l285 549h136v-40h-92l20 -630h92z" />
    <glyph glyph-name="afii10031" unicode="&#x41d;" horiz-adv-x="796" 
d="M514 670v40h224v-40h-92v-630h92v-40h-224v40h92v306h-416v-306h92v-40h-224v40h92v630h-92v40h224v-40h-92v-285h416v285h-92z" />
    <glyph glyph-name="afii10032" unicode="&#x41e;" horiz-adv-x="661" 
d="M601 311q0 -99 -22 -162t-59 -98.5t-86 -48.5t-104 -13t-104 13t-86 48.5t-59 98.5t-22 162v88q0 99 22 162t59 98.5t86 48.5t104 13t104 -13t86 -48.5t59 -98t22 -162.5v-88zM100 297q0 -86 19.5 -139t51.5 -82t73.5 -38.5t85.5 -9.5t85.5 9.5t73.5 38.5t51.5 82
t19.5 139v102q0 92 -19 147.5t-50.5 85.5t-73 40t-87.5 10t-87.5 -10t-73 -40t-50.5 -85.5t-19 -147.5v-102z" />
    <glyph glyph-name="afii10033" unicode="&#x41f;" horiz-adv-x="782" 
d="M190 670v-630h92v-40h-224v40h92v630h-92v40h670v-40h-92v-630h92v-40h-224v40h92v630h-406z" />
    <glyph glyph-name="afii10034" unicode="&#x420;" horiz-adv-x="640" 
d="M282 0h-225v40h93v630h-92v40h265q75 0 127 -12.5t84 -39.5t46 -69t14 -102t-15.5 -99.5t-48 -62.5t-84 -32t-123.5 -9h-133v-244h92v-40zM190 324h133q51 0 93.5 4.5t72.5 21t47 48.5t17 88q0 61 -17 97.5t-47.5 56t-72.5 25t-93 5.5h-133v-346z" />
    <glyph glyph-name="afii10035" unicode="&#x421;" 
d="M559 683v-139h-40v110q-22 7 -46 12.5t-47.5 9t-44 5t-35.5 1.5q-45 0 -89 -7.5t-79 -35t-56.5 -82t-21.5 -148.5v-108q0 -84 18 -137t49.5 -83t74 -41.5t92.5 -11.5q40 0 75.5 6t65.5 14.5t54.5 17.5t43.5 16l16 -38q-20 -7 -45 -16.5t-56.5 -18t-69.5 -14.5t-84 -6
q-57 0 -107 12.5t-87.5 47t-59 95.5t-21.5 157v95q0 91 17.5 153t53 100.5t89.5 55.5t127 17q33 0 84 -7.5t129 -31.5z" />
    <glyph glyph-name="afii10036" unicode="&#x422;" horiz-adv-x="698" 
d="M75 534h-35v176h619v-176h-35v136h-257v-631h102v-39h-244v39h102v631h-252v-136z" />
    <glyph glyph-name="afii10037" unicode="&#x423;" horiz-adv-x="681" 
d="M564 710h93v-40h-70l-352 -670h-109v40h85l109 203l-225 427h-70v40h93l223 -430z" />
    <glyph glyph-name="afii10038" unicode="&#x424;" horiz-adv-x="639" 
d="M335 114v-74h92v-40h-224v40h92v74h-18q-77 0 -125 20t-75 54t-37 77.5t-10 91.5q0 46 10 90t37.5 78t75.5 54.5t125 20.5h17v70h-92v40h224v-40h-92v-70h16q77 0 125.5 -21t75.5 -55t37 -78t10 -90q0 -47 -10.5 -90.5t-37.5 -77.5t-75 -54t-123 -20h-18zM69 357
q0 -34 7 -70t28 -65.5t59.5 -48.5t102.5 -19h29v406h-29q-65 0 -104 -20t-59.5 -50.5t-27 -66t-6.5 -66.5zM335 560v-406h29q64 0 103 19t59 48t26.5 65t6.5 71q0 33 -6 69t-26.5 66t-59 49t-102.5 19h-30z" />
    <glyph glyph-name="afii10039" unicode="&#x425;" horiz-adv-x="716" 
d="M683 39v-39h-81l-247 325l-246 -325h-77v39h56l243 317l-242 315h-57v39h79l244 -323l245 323h83v-39h-63l-242 -315l243 -317h62z" />
    <glyph glyph-name="afii10040" unicode="&#x426;" horiz-adv-x="755" 
d="M586 40v630h-92v40h224v-40h-92v-630h92v-157h-40v116l1 1h-621v40h92v630h-92v40h224v-40h-92v-630h396z" />
    <glyph glyph-name="afii10041" unicode="&#x427;" horiz-adv-x="756" 
d="M566 670h-92v40h225v-40h-93v-630h92v-40h-224v40h92v305q-29 -44 -78.5 -61.5t-107.5 -17.5q-46 0 -84.5 10t-66.5 37.5t-43.5 76t-15.5 125.5v155h-112v40h152v-206q0 -65 13.5 -104t36.5 -60t54 -27.5t66 -6.5q25 0 57.5 2.5t61 17.5t48 46.5t19.5 88.5v209z" />
    <glyph glyph-name="afii10042" unicode="&#x428;" horiz-adv-x="1019" 
d="M843 40v630h-92v40h224v-40h-92v-630h92v-40h-917v40h92v630h-92v40h224v-40h-92v-630h306v630h-92v40h225v-40h-92v-630h306z" />
    <glyph glyph-name="afii10043" unicode="&#x429;" horiz-adv-x="1028" 
d="M843 40v630h-92v40h224v-40h-92v-630h92v-157h-40v117h-877v40h92v630h-92v40h224v-40h-92v-630h306v630h-92v40h225v-40h-92v-630h306z" />
    <glyph glyph-name="afii10044" unicode="&#x42a;" horiz-adv-x="695" 
d="M313 670h-112v-276h168q53 0 103 -7t88.5 -28t62 -60t23.5 -103q0 -58 -18 -95.5t-48 -60t-69 -31.5t-81 -9h-362v40h93v630h-122v-116h-40v156h314v-40zM425 40q37 0 70 8t57.5 26t39 47.5t14.5 73.5q0 52 -18 83.5t-47.5 49t-68 23t-79.5 5.5h-192v-316h224z" />
    <glyph glyph-name="afii10045" unicode="&#x42b;" horiz-adv-x="949" 
d="M413 40q37 0 70 8t57.5 26t39 47.5t14.5 73.5q0 52 -18 83.5t-47.5 49t-68 23t-79.5 5.5h-192v-316h224zM301 670h-112v-276h168q53 0 103 -7t88.5 -28t62 -60t23.5 -103q0 -58 -18 -95.5t-48 -60t-69 -31.5t-81 -9h-362v40h93v630h-92v40h244v-40zM760 40v630h-92v40
h224v-40h-92v-630h92v-40h-224v40h92z" />
    <glyph glyph-name="afii10046" unicode="&#x42c;" horiz-adv-x="695" 
d="M413 40q37 0 70 8t57.5 26t39 47.5t14.5 73.5q0 52 -18 83.5t-47.5 49t-68 23t-79.5 5.5h-192v-316h224zM301 670h-112v-276h168q53 0 103 -7t88.5 -28t62 -60t23.5 -103q0 -58 -18 -95.5t-48 -60t-69 -31.5t-81 -9h-362v40h93v630h-92v40h244v-40z" />
    <glyph glyph-name="afii10047" unicode="&#x42d;" horiz-adv-x="645" 
d="M89 683q78 24 129 31.5t84 7.5q73 0 127 -17t89.5 -55.5t53 -100.5t17.5 -153v-95q0 -96 -21.5 -157t-59 -95.5t-87.5 -47t-107 -12.5q-46 0 -84 6t-69.5 14.5t-56.5 18t-45 16.5l16 38q19 -7 43.5 -16t54.5 -17.5t65.5 -14.5t75.5 -6q49 0 92 11.5t74.5 41.5t49.5 83
t18 137v38h-352v40h352v30q0 94 -21.5 148.5t-56.5 82t-79 35t-89 7.5q-15 0 -35.5 -1.5t-44 -5t-47.5 -9t-46 -12.5v-110h-40v139z" />
    <glyph glyph-name="afii10048" unicode="&#x42e;" horiz-adv-x="988" 
d="M150 40v630h-92v40h224v-40h-92v-300h198v29q0 99 22 162t59 98.5t86 48.5t104 13t104 -13t86 -48.5t59 -98t22 -162.5v-88q0 -99 -22 -162t-59 -98.5t-86 -48.5t-104 -13t-104 13t-86 48.5t-59 98.5t-22 162v19h-198v-290h92v-40h-224v40h92zM429 297q0 -86 19.5 -139
t51.5 -82t73.5 -38.5t85.5 -9.5t85.5 9.5t73.5 38.5t51.5 82t19.5 139v102q0 92 -19 147.5t-50.5 85.5t-73 40t-87.5 10t-87.5 -10t-73 -40t-50.5 -85.5t-19 -147.5v-102z" />
    <glyph glyph-name="afii10049" unicode="&#x42f;" horiz-adv-x="704" 
d="M420 40h92v246h-150h-20.5t-20.5 2l-152 -197q-33 -45 -58.5 -67t-42.5 -33q-18 -11 -34 -13l-16 22l33 24q15 12 33.5 30.5t38.5 44.5l149 194q-88 12 -134 58t-46 139q0 67 19.5 110t57.5 67.5t93.5 33.5t127.5 9h254v-40h-92v-630h92v-40h-224v40zM512 670h-128
q-51 0 -96.5 -5t-80 -23t-55 -54t-20.5 -98q3 -57 23.5 -89.5t54.5 -49t78.5 -21t95.5 -4.5h128v344z" />
    <glyph glyph-name="afii10065" unicode="&#x430;" horiz-adv-x="582" 
d="M110 459v72q20 4 45.5 8t51.5 7.5t50 5.5t42 2q61 0 96 -18.5t52 -49.5t21 -71t4 -82v-242q0 -39 4.5 -49t13.5 -10t17.5 1.5t30.5 9.5l11 -29q-14 -5 -22.5 -8.5t-14 -5t-11 -2t-13.5 -0.5q-20 0 -30.5 4.5t-16 14t-7 23.5t-2.5 32h-5q-2 -4 -5 -7t-5 -6
q-11 -17 -23 -29.5t-30 -20.5t-44 -12.5t-65 -4.5q-54 0 -89.5 12.5t-57 34t-30 50t-8.5 61.5v29q0 31 11 59t37 48t69.5 32t108.5 12h136q0 47 -4.5 82t-18.5 57.5t-39 33.5t-66 11q-42 0 -80.5 -6t-73.5 -11v-38h-40zM110 149q0 -63 36 -90t111 -27q31 0 62.5 3t56.5 19
t40.5 49.5t15.5 93.5v93h-139q-102 0 -142.5 -29.5t-40.5 -83.5v-28z" />
    <glyph glyph-name="afii10066" unicode="&#x431;" horiz-adv-x="551" 
d="M446 773l39 -5l-13 -106q-72 9 -123.5 12.5t-86.5 3.5q-29 0 -61.5 -6.5t-60 -26.5t-46 -58t-18.5 -102v-49q32 16 80.5 32.5t113.5 16.5q39 0 82 -11t78.5 -38.5t59 -76t23.5 -123.5q0 -72 -21.5 -120t-57 -77t-82 -41t-95.5 -12q-51 0 -92 8t-69.5 37.5t-44 86
t-15.5 154.5v196q0 77 19 125.5t50.5 76.5t72 38t83.5 10q24 0 44 -0.5t40.5 -2t42.5 -3.5t49 -6zM473 236q0 64 -21 105t-52.5 64t-67.5 31.5t-65 8.5q-27 0 -55.5 -4.5t-54 -10.5t-47 -13t-34.5 -13v-143q0 -87 14.5 -134.5t39.5 -70t58.5 -27t71.5 -4.5q33 0 70 7t69 29
t53 64t21 111z" />
    <glyph glyph-name="afii10067" unicode="&#x432;" horiz-adv-x="605" 
d="M55 40h72v471h-71v40h286q26 0 59 -3.5t62 -17t49 -40t20 -73.5q0 -53 -22 -81.5t-59 -39.5q30 -6 52 -16.5t36.5 -27t22 -40t7.5 -57.5q0 -45 -15 -75t-39 -47.5t-55 -25t-64 -7.5h-341v40zM394 40q28 0 52.5 5.5t43 19t29 35.5t10.5 55q0 39 -13.5 62t-35.5 35
t-50.5 16t-59.5 4h-202v-232h226zM168 312h201q16 0 37.5 3.5t40.5 14.5t32 31.5t13 55.5q0 31 -13 49.5t-34.5 28.5t-49.5 13t-58 3h-169v-199z" />
    <glyph glyph-name="afii10068" unicode="&#x433;" horiz-adv-x="591" 
d="M59 511v40h498v-142h-38v102h-328v-471h92v-40h-224v40h92v471h-92z" />
    <glyph glyph-name="afii10069" unicode="&#x434;" horiz-adv-x="689" 
d="M662 40v-157h-40v116h-560v-116h-40v157h43q35 3 62.5 14t46.5 32.5t29 56.5t10 88v279h-91v40h510v-40h-92v-470h122zM254 510v-280q0 -74 -18 -119.5t-50 -70.5h314v470h-246z" />
    <glyph glyph-name="afii10070" unicode="&#x435;" horiz-adv-x="572" 
d="M76 309q0 77 18 125.5t49.5 76t73 37.5t89.5 10q46 0 86 -11.5t69 -37.5t45.5 -67.5t16.5 -100.5q0 -18 -1 -38.5t-3 -30.5h-403v-45q0 -65 16.5 -103.5t42.5 -59t59 -27t65 -6.5q63 0 104.5 7.5t71.5 18.5l15 -37q-29 -11 -74.5 -21t-117.5 -10q-47 0 -87.5 10t-70.5 37
t-47 74.5t-17 122.5v76zM116 312h367v40q0 45 -16 76.5t-41.5 51.5t-57 29t-62.5 9q-32 0 -65.5 -5.5t-61.5 -26t-45.5 -61.5t-17.5 -113z" />
    <glyph glyph-name="afii10072" unicode="&#x436;" horiz-adv-x="926" 
d="M482 551v-155l96 -93l198 248h108v-40h-92l-186 -234l191 -184q23 -23 44.5 -38t38.5 -25q10 -5 19 -10.5t17 -9.5l-13 -24q-14 -1 -36 8q-18 8 -46.5 27.5t-67.5 57.5l-271 261v-340h-41v340l-271 -261q-39 -38 -67.5 -57.5t-46.5 -27.5q-22 -9 -36 -8l-13 24
q8 4 17 9.5t19 10.5q17 10 38.5 25t44.5 38l191 184l-186 234h-92v40h108l198 -248l96 93v155h41z" />
    <glyph glyph-name="afii10073" unicode="&#x437;" horiz-adv-x="558" 
d="M295 -11q-46 0 -84.5 6t-70 15t-56.5 19t-45 17l16 38q19 -7 43.5 -16t55 -17.5t66 -14.5t75.5 -6q27 0 58 7.5t56.5 22.5t42.5 38.5t17 56.5q0 39 -13.5 62t-35.5 35t-50.5 16t-59.5 4h-62l-13 40h74q16 0 37.5 3.5t40.5 14.5t32 31.5t13 55.5q0 31 -13 51t-34.5 32
t-49.5 17t-58 5q-15 0 -35.5 -1.5t-44 -5t-47.5 -9t-46 -12.5v-100h-40v129q78 24 129 31.5t84 7.5q26 0 59.5 -5.5t63.5 -20.5t51 -43.5t21 -75.5q0 -53 -22 -81.5t-59 -39.5q30 -6 52 -16.5t36.5 -27t22 -40t7.5 -57.5q0 -45 -21 -76.5t-53 -51t-69.5 -29t-70.5 -9.5z" />
    <glyph glyph-name="afii10074" unicode="&#x438;" horiz-adv-x="752" 
d="M190 0h-132v40h92v471h-92v40h132v-486l366 486h132v-40h-92v-471h92v-40h-132v487z" />
    <glyph glyph-name="afii10075" unicode="&#x439;" horiz-adv-x="752" 
d="M190 0h-132v40h92v471h-92v40h132v-486l366 486h132v-40h-92v-471h92v-40h-132v487zM377 602q-24 0 -46 8.5t-40 23.5t-32 34.5t-23 42.5l35 12q15 -37 42 -60t64 -23q38 0 66 24t43 59l33 -10q-8 -23 -22 -43t-33 -35t-41 -24t-46 -9z" />
    <glyph glyph-name="afii10076" unicode="&#x43a;" horiz-adv-x="657" 
d="M592 551v-40h-92l-185 -236l193 -182q23 -23 43 -37.5t37 -24.5q10 -5 18.5 -11t16.5 -10l-12 -23q-14 -1 -36 8q-18 8 -46.5 27t-67.5 57l-272 262v-196q0 -57 -6 -89.5t-14 -51.5q-9 -22 -19 -31l-23 8q3 8 6 18t5 21q4 19 7.5 45t3.5 59v387h-103v40h143v-154l97 -94
l198 248h108z" />
    <glyph glyph-name="afii10077" unicode="&#x43b;" horiz-adv-x="755" 
d="M199 511v-291h-2q-2 -69 -13 -112t-33.5 -67t-57.5 -32.5t-85 -8.5v38q42 1 71 8t46.5 26.5t25 55t7.5 93.5v290h-91v40h630v-40h-92v-471h92v-40h-224v40h92v471h-366z" />
    <glyph glyph-name="afii10078" unicode="&#x43c;" horiz-adv-x="784" 
d="M394 165l-204 325v-490h-132v40h92v471h-92v40h143l192 -309l192 309h143v-40h-92v-471h92v-40h-132v490z" />
    <glyph glyph-name="afii10079" unicode="&#x43d;" horiz-adv-x="739" 
d="M190 262v-262h-132v40h92v471h-92v40h132v-249h366v249h132v-40h-92v-471h92v-40h-132v262h-366z" />
    <glyph glyph-name="afii10080" unicode="&#x43e;" horiz-adv-x="556" 
d="M56 309q0 77 17 125.5t47 76t70.5 37.5t88.5 10q46 0 87 -10t71 -37.5t47.5 -76t17.5 -124.5v-73q0 -77 -17.5 -125.5t-48 -75.5t-71.5 -37t-87 -10q-47 0 -87.5 10t-70.5 37t-47 74.5t-17 122.5v76zM462 321q0 65 -17 104t-43.5 60t-59 28t-63.5 7q-32 0 -64.5 -7
t-59 -28t-43 -60t-16.5 -103v-98q0 -65 16.5 -103.5t42.5 -58.5t59 -26.5t65 -6.5q29 0 61.5 6t59.5 26t44.5 58t17.5 103v99z" />
    <glyph glyph-name="afii10081" unicode="&#x43f;" horiz-adv-x="739" 
d="M190 511v-471h92v-40h-224v40h92v471h-92v40h630v-40h-92v-471h92v-40h-224v40h92v471h-366z" />
    <glyph glyph-name="afii10082" unicode="&#x440;" horiz-adv-x="616" 
d="M116 -212v672q0 19 -3 30.5t-7 17t-9 7t-9 1.5q-33 0 -60 -10l-11 29q29 10 46 14.5t34 4.5q43 0 55 -53q10 9 23.5 19.5t33 18.5t48 13.5t69.5 5.5q48 0 89.5 -11.5t72.5 -41t49 -79.5t18 -127v-66q0 -75 -18 -122.5t-49 -74.5t-72.5 -37t-88.5 -10q-40 0 -67 3t-45.5 8
t-32 12.5t-26.5 16.5v-228zM156 62q14 -6 28.5 -12.5t33.5 -11.5t45 -8.5t63 -3.5q34 0 68 7.5t61 29t43.5 61t16.5 103.5v85q0 64 -17.5 104.5t-45 64t-61 32.5t-65.5 9q-54 0 -99 -15.5t-71 -36.5v-408z" />
    <glyph glyph-name="afii10083" unicode="&#x441;" horiz-adv-x="516" 
d="M294 522q-32 0 -65.5 -7.5t-61.5 -29t-45.5 -60.5t-17.5 -103v-95q0 -65 16.5 -104.5t42.5 -61.5t59 -29t65 -7q63 0 104.5 10.5t71.5 21.5l15 -37q-29 -11 -74.5 -21t-117.5 -10q-47 0 -87.5 10t-70.5 37t-47 74.5t-17 122.5v76q0 77 18 125.5t49.5 76t73 37.5t89.5 10
q15 0 30 -0.5t33 -3t40.5 -7.5t52.5 -14l-1 -3v-110h-35v84q-32 10 -65.5 14t-54.5 4z" />
    <glyph glyph-name="afii10084" unicode="&#x442;" horiz-adv-x="680" 
d="M95 375h-35v176h559v-176h-35v136h-227v-472h102v-39h-244v39h102v472h-222v-136z" />
    <glyph glyph-name="afii10085" unicode="&#x443;" 
d="M523 551h93v-40h-70l-291 -723h-108v40h85l68 172l-206 511h-70v40h93l203 -499z" />
    <glyph glyph-name="afii10086" unicode="&#x444;" horiz-adv-x="557" 
d="M292 711v-154q43 -2 80.5 -13.5t65 -39t43.5 -74.5t16 -120v-73q0 -73 -16 -120t-44 -75t-65 -39.5t-80 -12.5v-203h-40v203q-44 1 -81.5 12.5t-65 39t-43 73.5t-15.5 118v76q0 73 15.5 120.5t43 75t65 39t81.5 13.5v154h40zM87 322v-98q0 -60 14.5 -97.5t37.5 -58.5
t53 -29.5t60 -9.5v490q-30 -2 -60 -10.5t-53 -30.5t-37.5 -59.5t-14.5 -96.5zM457 321q0 60 -14.5 98t-38 59.5t-53 30t-59.5 10.5v-490q28 1 57.5 9t53.5 29t39 58t15 97v99z" />
    <glyph glyph-name="afii10087" unicode="&#x445;" horiz-adv-x="669" 
d="M615 40v-40h-81l-204 246l-202 -244v-2h-77v40h56l198 236l-197 235h-57v40h79l200 -245l202 245h83v-40h-63l-197 -235l198 -236h62z" />
    <glyph glyph-name="afii10088" unicode="&#x446;" horiz-adv-x="752" 
d="M556 40v511h132v-40h-92v-471h92v-157h-40v117h-590v40h92v471h-92v40h132v-511h366z" />
    <glyph glyph-name="afii10089" unicode="&#x447;" horiz-adv-x="714" 
d="M525 551h133v-40h-93v-471h92v-40h-132v256q-15 -22 -39.5 -37t-54 -24.5t-61.5 -13.5t-61 -4q-46 0 -77 10t-49.5 37.5t-26 76t-7.5 125.5v85h-112v40h152v-136q0 -65 5.5 -104t19.5 -60t37 -27.5t58 -6.5q17 0 39.5 1t46.5 5.5t47.5 14t41.5 26.5t29.5 43.5t11.5 64.5
v179z" />
    <glyph glyph-name="afii10090" unicode="&#x448;" horiz-adv-x="1019" 
d="M823 40v511h132v-40h-92v-471h92v-40h-897v40h92v471h-92v40h132v-511h296v471h-92v40h225v-40h-92v-471h296z" />
    <glyph glyph-name="afii10091" unicode="&#x449;" horiz-adv-x="1019" 
d="M823 40v511h132v-40h-92v-471h92v-157h-40v117h-857v40h92v471h-92v40h132v-511h296v471h-92v40h225v-40h-92v-471h296z" />
    <glyph glyph-name="afii10092" unicode="&#x44a;" horiz-adv-x="573" 
d="M191 312h153q39 0 75 -6.5t63 -23.5t43.5 -48t16.5 -79q0 -45 -15 -75t-39 -47.5t-55 -25t-64 -7.5h-311v40h92v471h-121v-116h-40v156h202v-239zM367 40q28 0 52.5 5.5t43 19t29 35.5t10.5 55q0 39 -13.5 62t-35.5 35t-50.5 16t-59.5 4h-152v-232h176z" />
    <glyph glyph-name="afii10093" unicode="&#x44b;" horiz-adv-x="901" 
d="M710 40v471h-92v40h132v-511h92v-40h-224v40h92zM191 312h153q39 0 75 -6.5t63 -23.5t43.5 -48t16.5 -79q0 -45 -15 -75t-39 -47.5t-55 -25t-64 -7.5h-311v40h92v471h-92v40h133v-239zM367 40q28 0 52.5 5.5t43 19t29 35.5t10.5 55q0 39 -13.5 62t-35.5 35t-50.5 16
t-59.5 4h-152v-232h176z" />
    <glyph glyph-name="afii10094" unicode="&#x44c;" horiz-adv-x="593" 
d="M191 312h153q39 0 75 -6.5t63 -23.5t43.5 -48t16.5 -79q0 -45 -15 -75t-39 -47.5t-55 -25t-64 -7.5h-311v40h92v471h-92v40h133v-239zM367 40q28 0 52.5 5.5t43 19t29 35.5t10.5 55q0 39 -13.5 62t-35.5 35t-50.5 16t-59.5 4h-152v-232h176z" />
    <glyph glyph-name="afii10095" unicode="&#x44d;" horiz-adv-x="524" 
d="M95 302h331q0 77 -17.5 120.5t-45.5 64.5t-61.5 26t-65.5 5q-23 0 -47 -5t-45.5 -16t-39 -27.5t-29.5 -40.5l-33 28q26 54 77 77.5t117 23.5q48 0 89.5 -10t73 -37.5t49.5 -76t18 -125.5v-76q0 -75 -17 -122.5t-47 -74.5t-70.5 -37t-87.5 -10q-72 0 -117.5 11.5
t-74.5 22.5l15 37q30 -11 71.5 -20t104.5 -9q32 0 64.5 6.5t59 27t43 59t16.5 103.5v35h-331v40z" />
    <glyph glyph-name="afii10096" unicode="&#x44e;" horiz-adv-x="880" 
d="M152 260v40h223v-40h-223zM269 40v-40h-223v40h91v471h-103v40h143v-511h92zM336 309q0 77 17 125.5t47 76t70.5 37.5t88.5 10q46 0 87 -10t71 -37.5t47.5 -76t17.5 -124.5v-73q0 -77 -17.5 -125.5t-48 -75.5t-71.5 -37t-87 -10q-47 0 -87.5 10t-70.5 37t-47 74.5
t-17 122.5v76zM742 321q0 65 -17 104t-43.5 60t-59 28t-63.5 7q-32 0 -64.5 -7t-59 -28t-43 -60t-16.5 -103v-98q0 -65 16.5 -103.5t42.5 -58.5t59 -26.5t65 -6.5q29 0 61.5 6t59.5 26t44.5 58t17.5 103v99z" />
    <glyph glyph-name="afii10097" unicode="&#x44f;" horiz-adv-x="644" 
d="M289 239l-37 2q-30 0 -58.5 9.5t-50 29t-35 48.5t-13.5 68q0 45 15 75t39 47.5t55 25t64 7.5h341v-40h-72v-471h71v-40h-112v239h-155l-131 -161q-17 -22 -28 -34.5t-20 -19.5t-16.5 -11t-16.5 -10q-18 -11 -34 -13l-16 22l33 24q7 6 12.5 9.5t11 8t12 12t16.5 20.5z
M270 511q-28 0 -52.5 -5.5t-43 -19t-29 -35.5t-10.5 -55q0 -40 12.5 -63.5t34.5 -35.5t51 -15t61 -3h202v232h-226z" />
    <glyph glyph-name="afii10071" unicode="&#x451;" horiz-adv-x="572" 
d="M66 309q0 77 18 125.5t49.5 76t73 37.5t89.5 10q46 0 86 -11.5t69 -37.5t45.5 -67.5t16.5 -100.5q0 -18 -1 -38.5t-3 -30.5h-403v-45q0 -65 16.5 -103.5t42.5 -59t59 -27t65 -6.5q63 0 104.5 7.5t71.5 18.5l15 -37q-29 -11 -74.5 -21t-117.5 -10q-47 0 -87.5 10t-70.5 37
t-47 74.5t-17 122.5v76zM106 312h367v40q0 45 -16 76.5t-41.5 51.5t-57 29t-62.5 9q-32 0 -65.5 -5.5t-61.5 -26t-45.5 -61.5t-17.5 -113zM149 688q0 17 11.5 28.5t28.5 11.5t28.5 -11.5t11.5 -28.5t-11.5 -28.5t-28.5 -11.5t-28.5 11.5t-11.5 28.5zM379 688q0 17 11.5 28.5
t28.5 11.5t28.5 -11.5t11.5 -28.5t-11.5 -28.5t-28.5 -11.5t-28.5 11.5t-11.5 28.5z" />
    <glyph glyph-name="afii10099" unicode="&#x452;" horiz-adv-x="648" 
d="M189 710v-118h123v-40h-123v-202q29 44 76.5 61t105.5 17q44 0 81 -9t63.5 -33.5t41.5 -68t15 -111.5q0 -61 -14.5 -100.5t-42 -63t-66 -33t-86.5 -9.5v38q40 1 71.5 8.5t53 26t33 50.5t11.5 83q0 57 -14 92.5t-36.5 56t-51 28t-58.5 7.5q-31 0 -63.5 -4t-59 -21
t-43.5 -51t-17 -93v-181h101v-40h-244v40h102v512h-118v40h118v118h41z" />
    <glyph glyph-name="afii10100" unicode="&#x453;" horiz-adv-x="591" 
d="M59 511v40h498v-142h-38v102h-328v-471h92v-40h-224v40h92v471h-92zM372 712l-49 -116h-41l49 116h41z" />
    <glyph glyph-name="afii10101" unicode="&#x454;" horiz-adv-x="524" 
d="M427 262h-331v-35q0 -65 16.5 -103.5t42.5 -59t59 -27t65 -6.5q63 0 104.5 9t71.5 20l15 -37q-29 -11 -74.5 -22.5t-117.5 -11.5q-47 0 -87.5 10t-70.5 37t-47 74.5t-17 122.5v76q0 77 18 125.5t49.5 76t73 37.5t89.5 10q66 0 117 -23.5t77 -77.5l-33 -28
q-12 24 -29.5 40.5t-39 27.5t-45.5 16t-47 5q-32 0 -65.5 -5t-61.5 -26t-45.5 -64.5t-17.5 -120.5h331v-40z" />
    <glyph glyph-name="afii10102" unicode="&#x455;" horiz-adv-x="533" 
d="M68 15v113h37v-85q19 -5 40.5 -8.5t42.5 -5.5t39 -3t30 -1q32 0 63 9.5t56 26.5t40 40.5t15 52.5v19q0 34 -18 53.5t-45 30t-59 14.5t-59 7q-53 5 -87.5 17t-55.5 31.5t-29.5 45.5t-8.5 58q0 35 15.5 60t43 41.5t66.5 24t87 7.5q15 0 30.5 -0.5t34 -3t41.5 -7.5t53 -14
v-114h-38v85q-33 11 -66 14.5t-55 3.5q-32 0 -62.5 -3.5t-54.5 -14t-38.5 -29.5t-14.5 -50q0 -57 35 -81t113 -32q25 -3 62 -6.5t70.5 -17t57.5 -42.5t24 -84q0 -44 -16 -77t-44.5 -55.5t-68 -34t-87.5 -11.5q-31 0 -79.5 3.5t-109.5 22.5z" />
    <glyph glyph-name="afii10103" unicode="&#x456;" horiz-adv-x="318" 
d="M117 695q0 17 11.5 28.5t28.5 11.5t28.5 -11.5t11.5 -28.5t-11.5 -28.5t-28.5 -11.5t-28.5 11.5t-11.5 28.5zM282 40v-40h-223v40h91v471h-103v40h143v-511h92z" />
    <glyph glyph-name="afii10104" unicode="&#x457;" horiz-adv-x="293" 
d="M259 40v-40h-223v40h91v471h-103v40h143v-511h92zM-8 688q0 17 11.5 28.5t28.5 11.5t28.5 -11.5t11.5 -28.5t-11.5 -28.5t-28.5 -11.5t-28.5 11.5t-11.5 28.5zM222 688q0 17 11.5 28.5t28.5 11.5t28.5 -11.5t11.5 -28.5t-11.5 -28.5t-28.5 -11.5t-28.5 11.5t-11.5 28.5z
" />
    <glyph glyph-name="afii10105" unicode="&#x458;" horiz-adv-x="254" 
d="M165 551v-625q0 -57 -6 -89.5t-14 -51.5q-9 -22 -19 -31l-23 8q3 8 6 18t5 21q4 19 7.5 45t3.5 59v606h-103v40h143zM102 695q0 17 11.5 28.5t28.5 11.5t28.5 -11.5t11.5 -28.5t-11.5 -28.5t-28.5 -11.5t-28.5 11.5t-11.5 28.5z" />
    <glyph glyph-name="afii10106" unicode="&#x459;" horiz-adv-x="917" 
d="M546 312h123q39 0 75 -6.5t63 -23.5t43.5 -48t16.5 -79q0 -45 -15 -75t-39 -47.5t-55 -25t-64 -7.5h-281v40h92v471h-306v-291h-2q-2 -69 -13 -112t-33.5 -67t-57.5 -32.5t-85 -8.5v38q42 1 71 8t46.5 26.5t25 55t7.5 93.5v290h-91v40h570v-40h-91v-199zM692 40
q28 0 52.5 5.5t43 19t29 35.5t10.5 55q0 39 -13.5 62t-35.5 35t-50.5 16t-59.5 4h-122v-232h146z" />
    <glyph glyph-name="afii10107" unicode="&#x45a;" horiz-adv-x="901" 
d="M190 270v-270h-132v40h92v471h-92v40h132v-241h306v241h132v-40h-91v-199h123q39 0 75 -6.5t63 -23.5t43.5 -48t16.5 -79q0 -45 -15 -75t-39 -47.5t-55 -25t-64 -7.5h-281v40h92v230h-306zM683 40q28 0 52.5 5.5t43 19t29 35.5t10.5 55q0 39 -13.5 62t-35.5 35t-50.5 16
t-59.5 4h-122v-232h146z" />
    <glyph glyph-name="afii10108" unicode="&#x45b;" horiz-adv-x="648" 
d="M189 710v-118h123v-40h-123v-202q29 44 76.5 61t105.5 17q46 0 83.5 -10t64.5 -37t41.5 -75.5t14.5 -125.5v-140h44v-40h-84v191q0 65 -13.5 104t-36.5 60t-52.5 28t-60.5 7t-63.5 -4t-59 -21t-43.5 -51t-17 -93v-182h101v-39h-244v39h102v513h-118v40h118v118h41z" />
    <glyph glyph-name="afii10109" unicode="&#x45c;" horiz-adv-x="657" 
d="M592 551v-40h-92l-185 -236l193 -182q23 -23 43 -37.5t37 -24.5q10 -5 18.5 -11t16.5 -10l-12 -23q-14 -1 -36 8q-18 8 -46.5 27t-67.5 57l-272 262v-196q0 -57 -6 -89.5t-14 -51.5q-9 -22 -19 -31l-23 8q3 8 6 18t5 21q4 19 7.5 45t3.5 59v387h-103v40h143v-154l97 -94
l198 248h108zM365 712l-49 -116h-41l49 116h41z" />
    <glyph glyph-name="afii10110" unicode="&#x45e;" horiz-adv-x="651" 
d="M335 602q-24 0 -46 8.5t-40 23.5t-32 34.5t-23 42.5l35 12q15 -37 42 -60t64 -23q38 0 66 24t43 59l33 -10q-8 -23 -22 -43t-33 -35t-41 -24t-46 -9zM550 552h93v-40h-70l-352 -670h-109v40h85l109 203l-225 427h-70v40h93l223 -430z" />
    <glyph glyph-name="afii10193" unicode="&#x45f;" horiz-adv-x="739" 
d="M556 40v511h132v-40h-92v-471h92v-40h-295v-137h-40v137h-295v40h92v471h-92v40h132v-511h366z" />
    <glyph glyph-name="afii10146" unicode="&#x462;" horiz-adv-x="833" 
d="M613 670h-256v-276h167q53 0 103 -7t88.5 -28t62 -60t23.5 -103q0 -58 -18 -95.5t-48 -60t-69 -31.5t-81 -9h-361v40h93v630h-252v-136h-35v176h618v-176h-35v136zM580 40q37 0 70 8t57.5 26t39 47.5t14.5 73.5q0 52 -18 83.5t-47.5 49t-68 23t-79.5 5.5h-191v-316h223z
" />
    <glyph glyph-name="afii10194" unicode="&#x463;" horiz-adv-x="577" 
d="M191 312h153q39 0 75 -6.5t63 -23.5t43.5 -48t16.5 -79q0 -45 -15 -75t-39 -47.5t-55 -25t-64 -7.5h-311v40h92v512h-120v40h118v118h41v-118h123v-40h-122zM367 40q28 0 52.5 5.5t43 19t29 35.5t10.5 55q0 39 -13.5 62t-35.5 35t-50.5 16t-59.5 4h-152v-232h176z" />
    <glyph glyph-name="afii10147" unicode="&#x472;" horiz-adv-x="480" 
d="M434 356q0 -106 -16 -176.5t-44 -113t-64.5 -60t-76.5 -17.5q-41 0 -77 17.5t-64 60t-44 113t-16 176.5q0 100 16 170t44 113t64 62.5t77 19.5q40 0 76.5 -19.5t64.5 -62.5t44 -113t16 -170zM233 28q31 0 59.5 13t50.5 44.5t35.5 84.5t16.5 134l-323 64v-30
q0 -91 12.5 -151t34 -95t51 -49.5t63.5 -14.5zM396 378q-1 82 -14.5 140t-36 94.5t-51.5 53t-61 16.5q-30 0 -57.5 -15t-49.5 -48t-36 -85t-17 -126l323 -63v33z" />
    <glyph glyph-name="afii10195" unicode="&#x473;" horiz-adv-x="532" 
d="M40 309q0 77 17 125.5t47 76t70.5 37.5t88.5 10q46 0 86.5 -10t70.5 -37.5t47 -76t17 -124.5v-73q0 -77 -17.5 -125.5t-47.5 -75.5t-70.5 -37t-86.5 -10q-47 0 -87.5 10t-70.5 37t-47 74.5t-17 122.5v76zM446 321q0 65 -17 104.5t-43.5 61.5t-59 29t-63.5 7
q-32 0 -64.5 -7.5t-58.5 -29t-43 -60.5t-17 -102l366 -70v67zM263 25q28 0 60 6.5t58.5 26t44.5 56.5t20 99l-366 70v-59q0 -65 16.5 -104t42.5 -60t59 -28t65 -7z" />
    <glyph glyph-name="afii10148" unicode="&#x474;" horiz-adv-x="682" 
d="M362 63l168 502q18 54 34 83.5t30 43.5q17 18 28 24l21 -15q-5 -8 -11 -16t-12 -18q-10 -17 -22 -40.5t-23 -54.5l-193 -572h-40l-226 670h-90v40h123z" />
    <glyph glyph-name="afii10196" unicode="&#x475;" horiz-adv-x="564" 
d="M312 63l116 346q18 54 34 83.5t30 43.5q17 18 28 24l21 -15q-5 -8 -11 -16t-12 -18q-10 -17 -22 -40.5t-23 -54.5l-141 -416h-40l-175 512h-90v40h123z" />
    <glyph glyph-name="afii10050" unicode="&#x490;" horiz-adv-x="582" 
d="M59 670v40h459v103h39v-143h-366v-630h92v-40h-224v40h92v630h-92z" />
    <glyph glyph-name="afii10098" unicode="&#x491;" horiz-adv-x="547" 
d="M59 511v40h419v103h39v-143h-326v-471h92v-40h-224v40h92v471h-92z" />
    <glyph glyph-name="afii10846" unicode="&#x4d9;" horiz-adv-x="542" 
d="M493 238q0 -77 -18 -125.5t-49.5 -76t-73 -37.5t-89.5 -10q-47 0 -86.5 11.5t-68.5 37.5t-45.5 67.5t-16.5 100.5q0 18 1 38.5t3 30.5h403v45q0 65 -16.5 103.5t-43 59t-59 27t-64.5 6.5q-63 0 -104.5 -7.5t-71.5 -18.5l-15 37q29 11 74.5 21t117.5 10q47 0 87.5 -10
t70.5 -37t47 -74.5t17 -122.5v-76zM86 235v-40q0 -45 16 -76.5t41.5 -51.5t57 -29t62.5 -9q32 0 65.5 5.5t61.5 26t45.5 61.5t17.5 113h-367z" />
    <glyph glyph-name="Wgrave" unicode="&#x1e80;" horiz-adv-x="1056" 
d="M922 710h123v-40h-90l-238 -670h-40l-151 474l-167 -474h-40l-214 670h-90v40h123l202 -649l165 479l-42 130h-90v40h123l202 -649zM431 871l49 -116h-41l-49 116h41z" />
    <glyph glyph-name="wgrave" unicode="&#x1e81;" horiz-adv-x="885" 
d="M433 550l152 -488l170 489h123v-40h-90l-184 -511h-40l-120 374l-133 -374h-40l-164 511h-90v40h123l152 -489l131 378l-21 71h-82v40zM377 712l49 -116h-41l-49 116h41z" />
    <glyph glyph-name="Wacute" unicode="&#x1e82;" horiz-adv-x="1056" 
d="M922 710h123v-40h-90l-238 -670h-40l-151 474l-167 -474h-40l-214 670h-90v40h123l202 -649l165 479l-42 130h-90v40h123l202 -649zM573 871l-49 -116h-41l49 116h41z" />
    <glyph glyph-name="wacute" unicode="&#x1e83;" horiz-adv-x="885" 
d="M433 550l152 -488l170 489h123v-40h-90l-184 -511h-40l-120 374l-133 -374h-40l-164 511h-90v40h123l152 -489l131 378l-21 71h-82v40zM487 712l-49 -116h-41l49 116h41z" />
    <glyph glyph-name="Wdieresis" unicode="&#x1e84;" horiz-adv-x="1056" 
d="M922 710h123v-40h-90l-238 -670h-40l-151 474l-167 -474h-40l-214 670h-90v40h123l202 -649l165 479l-42 130h-90v40h123l202 -649zM373 847q0 17 11.5 28.5t28.5 11.5t28.5 -11.5t11.5 -28.5t-11.5 -28.5t-28.5 -11.5t-28.5 11.5t-11.5 28.5zM603 847q0 17 11.5 28.5
t28.5 11.5t28.5 -11.5t11.5 -28.5t-11.5 -28.5t-28.5 -11.5t-28.5 11.5t-11.5 28.5z" />
    <glyph glyph-name="wdieresis" unicode="&#x1e85;" horiz-adv-x="885" 
d="M433 550l152 -488l170 489h123v-40h-90l-184 -511h-40l-120 374l-133 -374h-40l-164 511h-90v40h123l152 -489l131 378l-21 71h-82v40zM287 688q0 17 11.5 28.5t28.5 11.5t28.5 -11.5t11.5 -28.5t-11.5 -28.5t-28.5 -11.5t-28.5 11.5t-11.5 28.5zM517 688q0 17 11.5 28.5
t28.5 11.5t28.5 -11.5t11.5 -28.5t-11.5 -28.5t-28.5 -11.5t-28.5 11.5t-11.5 28.5z" />
    <glyph glyph-name="Ygrave" unicode="&#x1ef2;" horiz-adv-x="672" 
d="M559 710h93v-40h-70l-237 -340v-290h92v-40h-224v40h92v290l-215 340h-70v40h93l212 -340zM304 871l49 -116h-41l-49 116h41z" />
    <glyph glyph-name="ygrave" unicode="&#x1ef3;" horiz-adv-x="536" 
d="M401 551h122v-518q0 -77 -17 -125.5t-46.5 -76t-70 -37.5t-88.5 -10q-30 0 -58.5 4t-53.5 14t-45.5 27t-35.5 43l31 29q13 -26 32 -41t40.5 -23t45 -10.5t45.5 -2.5q31 0 63.5 6t58.5 26t42.5 58t16.5 102v55q-29 -44 -76.5 -61t-105.5 -17q-46 0 -83.5 10t-63.5 37
t-40.5 75.5t-14.5 125.5v270h-84v40h122v-321q0 -65 13.5 -104t36 -60t51.5 -27.5t60 -6.5q32 0 64 3.5t58.5 19.5t43.5 49t19 93v314h-82v40zM279 712l49 -116h-41l-49 116h41z" />
    <glyph glyph-name="figuredash" unicode="&#x2012;" horiz-adv-x="543" 
d="M450 304v-36h-368v36h368z" />
    <glyph glyph-name="endash" unicode="&#x2013;" horiz-adv-x="533" 
d="M445 308v-40h-368v40h368z" />
    <glyph glyph-name="emdash" unicode="&#x2014;" horiz-adv-x="767" 
d="M691 308v-40h-615v40h615z" />
    <glyph glyph-name="quoteleft" unicode="&#x2018;" horiz-adv-x="173" 
d="M126 560q0 -17 -11.5 -28.5t-28.5 -11.5q-19 0 -31 15q-10 11 -10 32q0 19 3 39t11.5 38.5t24.5 35.5t42 31l13 -17q-18 -15 -28.5 -27.5t-15.5 -23.5t-6.5 -21.5t-1.5 -21.5q17 -1 28 -12t11 -28z" />
    <glyph glyph-name="quoteright" unicode="&#x2019;" horiz-adv-x="167" 
d="M39 667q0 17 11.5 28.5t28.5 11.5q19 0 31 -15q10 -11 10 -32q0 -20 -3 -39.5t-11.5 -38t-24.5 -35.5t-42 -31l-13 17q18 15 28.5 27.5t15.5 23.5t6.5 21.5t1.5 21.5q-17 1 -28 12t-11 28z" />
    <glyph glyph-name="quotesinglbase" unicode="&#x201a;" horiz-adv-x="174" 
d="M51 42q0 17 11.5 28.5t28.5 11.5q19 0 31 -15q10 -11 10 -32q0 -20 -3 -39.5t-11.5 -38t-24.5 -35.5t-42 -31l-13 17q18 15 28.5 27.5t15.5 23.5t6.5 21.5t1.5 21.5q-17 1 -28 12t-11 28z" />
    <glyph glyph-name="quotedblleft" unicode="&#x201c;" horiz-adv-x="289" 
d="M126 560q0 -17 -11.5 -28.5t-28.5 -11.5q-19 0 -31 15q-10 11 -10 32q0 19 3 39t11.5 38.5t24.5 35.5t42 31l13 -17q-18 -15 -28.5 -27.5t-15.5 -23.5t-6.5 -21.5t-1.5 -21.5q17 -1 28 -12t11 -28zM241 560q0 -17 -11.5 -28.5t-28.5 -11.5q-19 0 -31 15q-10 11 -10 32
q0 19 3 39t11.5 38.5t24.5 35.5t42 31l13 -17q-18 -15 -28.5 -27.5t-15.5 -23.5t-6.5 -21.5t-1.5 -21.5q17 -1 28 -12t11 -28z" />
    <glyph glyph-name="quotedblright" unicode="&#x201d;" horiz-adv-x="260" 
d="M34 672q0 17 11.5 28.5t28.5 11.5q19 0 31 -15q10 -11 10 -32q0 -20 -3 -39.5t-11.5 -38t-24.5 -35.5t-42 -31l-13 17q18 15 28.5 27.5t15.5 23.5t6.5 21.5t1.5 21.5q-17 1 -28 12t-11 28zM147 672q0 17 11.5 28.5t28.5 11.5q19 0 31 -15q10 -11 10 -32q0 -20 -3 -39.5
t-11.5 -38t-24.5 -35.5t-42 -31l-13 17q18 15 28.5 27.5t15.5 23.5t6.5 21.5t1.5 21.5q-17 1 -28 12t-11 28z" />
    <glyph glyph-name="quotedblbase" unicode="&#x201e;" horiz-adv-x="280" 
d="M39 32q0 17 11.5 28.5t28.5 11.5q19 0 31 -15q10 -11 10 -32q0 -20 -3 -39.5t-11.5 -38t-24.5 -35.5t-42 -31l-13 17q18 15 28.5 27.5t15.5 23.5t6.5 21.5t1.5 21.5q-17 1 -28 12t-11 28zM150 32q0 17 11.5 28.5t28.5 11.5q19 0 31 -15q10 -11 10 -32q0 -20 -3 -39.5
t-11.5 -38t-24.5 -35.5t-42 -31l-13 17q18 15 28.5 27.5t15.5 23.5t6.5 21.5t1.5 21.5q-17 1 -28 12t-11 28z" />
    <glyph glyph-name="dagger" unicode="&#x2020;" horiz-adv-x="489" 
d="M259 468v-680h-40v680h-165v40h165v203h40v-203h163v-40h-163z" />
    <glyph glyph-name="daggerdbl" unicode="&#x2021;" horiz-adv-x="479" 
d="M259 472v-410h163v-36h-163v-238h-40v238h-165v36h165v410h-165v36h165v203h40v-203h163v-36h-163z" />
    <glyph glyph-name="bullet" unicode="&#x2022;" horiz-adv-x="310" 
d="M155 176q-33 0 -56 23t-23 58q0 34 23 57.5t56 23.5t55.5 -23.5t22.5 -57.5q0 -35 -22.5 -58t-55.5 -23z" />
    <glyph glyph-name="onedotenleader" unicode="&#x2024;" horiz-adv-x="170" 
d="M26 32q0 17 11.5 28.5t28.5 11.5t28.5 -11.5t11.5 -28.5t-11.5 -28.5t-28.5 -11.5t-28.5 11.5t-11.5 28.5z" />
    <glyph glyph-name="twodotenleader" unicode="&#x2025;" horiz-adv-x="340" 
d="M26 32q0 17 11.5 28.5t28.5 11.5t28.5 -11.5t11.5 -28.5t-11.5 -28.5t-28.5 -11.5t-28.5 11.5t-11.5 28.5zM196 32q0 17 11.5 28.5t28.5 11.5t28.5 -11.5t11.5 -28.5t-11.5 -28.5t-28.5 -11.5t-28.5 11.5t-11.5 28.5z" />
    <glyph glyph-name="ellipsis" unicode="&#x2026;" horiz-adv-x="530" 
d="M74 32q0 17 11.5 28.5t28.5 11.5t28.5 -11.5t11.5 -28.5t-11.5 -28.5t-28.5 -11.5t-28.5 11.5t-11.5 28.5zM254 32q0 17 11.5 28.5t28.5 11.5t28.5 -11.5t11.5 -28.5t-11.5 -28.5t-28.5 -11.5t-28.5 11.5t-11.5 28.5zM434 32q0 17 11.5 28.5t28.5 11.5t28.5 -11.5
t11.5 -28.5t-11.5 -28.5t-28.5 -11.5t-28.5 11.5t-11.5 28.5z" />
    <glyph glyph-name="perthousand" unicode="&#x2030;" horiz-adv-x="956" 
d="M577 710l-445 -710h-45l441 710h49zM44 590q0 43 9.5 68.5t26.5 38.5t40 17t50 4q26 0 48.5 -4t39 -17.5t26 -38.5t9.5 -68v-63q0 -43 -10 -68t-26.5 -38.5t-39.5 -17.5t-48 -4q-27 0 -50 4.5t-39.5 18t-26 38t-9.5 65.5v65zM258 597q0 53 -23.5 70t-66.5 17
q-42 0 -65 -17.5t-23 -69.5v-77q0 -50 23 -67.5t66 -17.5q21 0 37.5 3.5t28 13.5t17.5 27t6 43v75zM368 188q0 43 9.5 68.5t26.5 38.5t40 17t50 4q26 0 48.5 -4t39 -17.5t26 -38.5t9.5 -68v-63q0 -43 -10 -68t-26.5 -38.5t-39.5 -17.5t-48 -4q-27 0 -50 4.5t-39.5 18t-26 38
t-9.5 65.5v65zM582 195q0 53 -23.5 70t-66.5 17q-42 0 -65 -17.5t-23 -69.5v-77q0 -50 23 -67.5t66 -17.5q21 0 37.5 3.5t28 13.5t17.5 27t6 43v75zM666 188q0 43 9.5 68.5t26.5 38.5t40 17t50 4q26 0 48.5 -4t39 -17.5t26 -38.5t9.5 -68v-63q0 -43 -10 -68t-26.5 -38.5
t-39.5 -17.5t-48 -4q-27 0 -50 4.5t-39.5 18t-26 38t-9.5 65.5v65zM880 195q0 53 -23.5 70t-66.5 17q-42 0 -65 -17.5t-23 -69.5v-77q0 -50 23 -67.5t66 -17.5q21 0 37.5 3.5t28 13.5t17.5 27t6 43v75z" />
    <glyph glyph-name="guilsinglleft" unicode="&#x2039;" horiz-adv-x="312" 
d="M253 446l-189 -188l189 -186v-53l-239 239l239 238v-50z" />
    <glyph glyph-name="guilsinglright" unicode="&#x203a;" horiz-adv-x="315" 
d="M64 496l239 -238l-239 -239v53l189 186l-189 188v50z" />
    <glyph glyph-name="fraction" unicode="&#x2044;" horiz-adv-x="296" 
d="M279 710l-229 -710h-41l225 710h45z" />
    <glyph glyph-name="zerosuperior" unicode="&#x2070;" horiz-adv-x="401" 
d="M351 478q0 -55 -12.5 -89t-32.5 -52.5t-47.5 -25t-57.5 -6.5h-5q-31 0 -58 6.5t-46.5 25.5t-30.5 53t-11 88v65q2 57 14.5 91t33 51.5t48 23t59.5 5.5q30 0 57 -6.5t46.5 -26t31 -54t11.5 -90.5v-59zM308 540q0 46 -9 73.5t-24 42t-34 19t-38 4.5h-3q-21 0 -40 -4.5
t-34 -19t-24 -41.5t-9 -72v-64q0 -47 9.5 -74.5t25 -41.5t34.5 -18t39 -4q18 0 36.5 4t34.5 18t26 41t10 72v65z" />
    <glyph glyph-name="foursuperior" unicode="&#x2074;" horiz-adv-x="438" 
d="M328 303q-11 2 -21 3t-21 3v62h-236v34l200 302h50l-201 -302h187v43q0 30 -5 50t-7 27l25 8q12 -9 19.5 -35.5t9.5 -92.5h60v-34h-60v-68z" />
    <glyph glyph-name="fivesuperior" unicode="&#x2075;" horiz-adv-x="397" 
d="M67 710h268v-87h-32v26.5t-2 24.5h-195v-131q15 5 32.5 8.5t47.5 3.5q72 0 116.5 -29t44.5 -98v-6q0 -31 -14.5 -53t-37.5 -36.5t-51 -21t-55 -6.5q-47 0 -81 10.5t-58 19.5l14 31q23 -8 52 -17.5t73 -9.5q17 0 37 5t37.5 15.5t29 27t11.5 39.5q0 45 -29 71t-83 26
q-20 0 -34 -1t-25 -3t-20.5 -5t-19.5 -6h-26v202z" />
    <glyph glyph-name="sixsuperior" unicode="&#x2076;" horiz-adv-x="406" 
d="M93 456q0 -42 8.5 -65.5t23 -35.5t34.5 -15t44 -3q18 0 37.5 2.5t35.5 12t26 28.5t10 52q0 31 -10 49t-25.5 28t-34.5 13t-36 3q-31 0 -63.5 -7.5t-49.5 -12.5v-49zM253 673q-2 0 -9 0.5t-15 1t-14.5 1t-8.5 0.5q-14 0 -33.5 -3.5t-36.5 -14t-29.5 -29.5t-12.5 -50
q-1 -12 -1 -23.5v-22.5q17 8 48 16.5t66 8.5q27 0 54 -4t48 -17.5t34 -38t13 -66.5q0 -39 -12 -64.5t-32.5 -40.5t-48.5 -20.5t-61 -5.5q-36 0 -64 5.5t-47.5 22.5t-30 48.5t-10.5 83.5v79q0 52 11 85t31 52t48.5 26.5t63.5 7.5q16 0 29.5 -1t27 -3.5t28.5 -7t33 -10.5
q-1 -14 -2.5 -26.5t-3.5 -26.5q-16 1 -30 4v26q-6 2 -16.5 4t-16.5 3z" />
    <glyph glyph-name="sevensuperior" unicode="&#x2077;" horiz-adv-x="415" 
d="M129 312l189 363h-235q-1 -13 -1.5 -26.5t-0.5 -28.5h-31v90h315v-35q-48 -91 -95.5 -181.5t-95.5 -181.5h-45z" />
    <glyph glyph-name="eightsuperior" unicode="&#x2078;" horiz-adv-x="410" 
d="M213 710q20 0 43 -2.5t43 -11.5t33 -27.5t13 -50.5v-4q0 -35 -16 -52.5t-41 -27.5q41 -16 56.5 -43t15.5 -72q0 -32 -11.5 -54t-32 -35.5t-49 -20t-62.5 -6.5q-33 0 -61.5 6.5t-49 20.5t-32.5 37t-12 55q0 29 5 48.5t14.5 32t22.5 19.5t30 12q-25 11 -40.5 28t-15.5 56
q0 32 14.5 50.5t35.5 27.5t45 11.5t44 2.5h8zM317 424q0 88 -113 88q-57 0 -83.5 -21.5t-26.5 -66.5q0 -26 9 -42t24.5 -26t35.5 -13.5t41 -3.5q23 0 43.5 3.5t36 13.5t24.5 26t9 42zM109 612q0 -21 7.5 -34t20.5 -20.5t31 -10t38 -2.5q19 0 36.5 2.5t30.5 10t21 21t8 34.5
q0 22 -8 34t-21 18t-31 7.5t-37 1.5q-16 0 -33 -1.5t-31 -7.5t-23 -18.5t-9 -34.5z" />
    <glyph glyph-name="ninesuperior" unicode="&#x2079;" horiz-adv-x="404" 
d="M311 560q0 39 -8.5 62t-23.5 35t-35 15t-42 3q-20 0 -39 -3t-35 -13t-25.5 -28t-9.5 -48q0 -31 8.5 -50t22.5 -29.5t31.5 -14t35.5 -3.5h22q26 0 44 4.5t32 9.5l22 7v53zM302 404q3 6 5 15.5t3 20t1 20.5v17l-10 -5q-14 -7 -34.5 -13.5t-52.5 -7.5h-24q-27 0 -52.5 5.5
t-45 20t-31 40.5t-11.5 68q0 37 12 61t33 38t48.5 20t58.5 6q36 0 64.5 -5.5t48 -22.5t29.5 -48.5t10 -83.5v-106q0 -43 -13 -70.5t-35 -43.5t-49.5 -22.5t-57.5 -6.5q-29 0 -61 5t-72 23l13 31q28 -14 63 -20t58 -6q13 0 29 3t30.5 10.5t26 21t16.5 35.5z" />
    <glyph glyph-name="nsuperior" unicode="&#x207f;" horiz-adv-x="683" 
 />
    <glyph glyph-name="Euro" unicode="&#x20ac;" horiz-adv-x="667" 
d="M402 420v-36h-253v-76h253v-36h-253q4 -74 23.5 -121t50.5 -74.5t72 -38t88 -10.5q40 0 75.5 6t65.5 14.5t54.5 17.5t43.5 16l17 -39q-20 -7 -45 -16.5t-56.5 -17.5t-70 -14t-84.5 -6q-58 0 -107 11.5t-85.5 43t-58 86.5t-24.5 142h-64v36h64v76h-64v36h64q2 94 22.5 153
t58.5 92t92.5 45t123.5 12q20 0 39.5 -1t42.5 -5t51.5 -11t67.5 -19l-14 -41q-23 10 -49.5 17t-53 11.5t-50.5 6.5t-40 2q-39 0 -83 -6t-81 -32t-61.5 -78.5t-24.5 -145.5h253z" />
    <glyph glyph-name="litre" unicode="&#x2113;" horiz-adv-x="538" 
d="M40 222q0 48 18 90.5t49.5 73.5t73.5 49t90 18t90 -18t73.5 -49t49.5 -73.5t18 -90.5t-18 -90.5t-49.5 -73.5t-73.5 -49t-90 -18t-90 18t-73.5 49t-49.5 73.5t-18 90.5z" />
    <glyph glyph-name="afii61352" unicode="&#x2116;" horiz-adv-x="1265" 
d="M505 671v39h224v-39h-92v-631h92v-40h-144l-395 652v-612h92v-40h-234v40h102v631h-92v39h143l396 -653v614h-92zM770 465q0 77 17 125.5t47 76t70.5 37.5t88.5 10q46 0 87 -10t71 -37.5t47.5 -76t17.5 -124.5v-73q0 -77 -17.5 -125.5t-48 -75.5t-71.5 -37t-87 -10
q-47 0 -87.5 10t-70.5 37t-47 74.5t-17 122.5v76zM1176 477q0 65 -17 104t-43.5 60t-59 28t-63.5 7q-32 0 -64.5 -7t-59 -28t-43 -60t-16.5 -103v-98q0 -65 16.5 -103.5t42.5 -58.5t59 -26.5t65 -6.5q29 0 61.5 6t59.5 26t44.5 58t17.5 103v99zM788 0h417v40h-417v-40z" />
    <glyph glyph-name="trademark" unicode="&#x2122;" horiz-adv-x="924" 
d="M915 333v-35h-141v35h53q-1 42 -2.5 80t-3 75.5t-3 76t-2.5 80.5q-37 -73 -74.5 -146t-74.5 -145h-19l-150 293q-2 -80 -5.5 -156.5t-5.5 -157.5h52v-35h-140v35h52l12 347h-52v35h87l160 -306l159 306h87v-35h-53q2 -88 5.5 -173.5t5.5 -173.5h53zM58 604h-32v112h365
v-112h-32v77h-135v-348h59v-34h-152v34h59v348h-132v-77z" />
    </font>
</defs>
</svg>
